<?xml version="1.0" standalone="no"?>
<!DOCTYPE svg PUBLIC "-//W3C//DTD SVG 1.1//EN" "http://www.w3.org/Graphics/SVG/1.1/DTD/svg11.dtd" >
<svg xmlns="http://www.w3.org/2000/svg">
<metadata></metadata>
<defs>
<font id="calendas_plusitalic" horiz-adv-x="1378" >
<font-face units-per-em="2048" ascent="1536" descent="-512" />
<missing-glyph horiz-adv-x="477" />
<glyph unicode="&#x2e;&#x2e;&#x2e;" horiz-adv-x="1828" d="M92 70q0 55 39.5 99t97.5 44q45 0 73 -28.5t28 -73.5q0 -55 -39.5 -99.5t-95.5 -44.5q-45 0 -74 29t-29 74zM731 70q0 55 39.5 99t97.5 44q45 0 73 -28.5t28 -73.5q0 -55 -39.5 -99.5t-95.5 -44.5q-45 0 -74 29t-29 74zM1372 70q0 55 39.5 99t97.5 44q45 0 73 -28.5 t28 -73.5q0 -55 -39.5 -99.5t-95.5 -44.5q-45 0 -74 29t-29 74z" />
<glyph unicode="ff" horiz-adv-x="1239" d="M-555 -498q0 55 36 83t83 28l26 -2q-12 -27 -12 -51q0 -38 25 -60t73 -22q122 0 212.5 128.5t168.5 387.5l252 835h-155l14 50l170 34l16 54q76 233 245 358t382 125q152 0 225 -66q198 211 443 211q114 0 173.5 -38t59.5 -97q0 -50 -38.5 -84.5t-90.5 -34.5 q-36 0 -70 17q19 34 19 63q0 33 -36 58.5t-116 25.5q-122 0 -215.5 -114.5t-167.5 -350.5l-39 -127h279l-43 -102h-268l-170 -508q-29 -88 -59.5 -169t-73 -176.5t-87 -175.5t-100.5 -156.5t-114.5 -129.5t-128.5 -85t-142 -32q-85 0 -125.5 35.5t-40.5 87.5q0 55 36 83 t83 28l27 -2q-13 -29 -13 -51q0 -38 25.5 -60t73.5 -22q122 0 212.5 128.5t168.5 387.5l245 817h-428l-170 -508q-29 -88 -59.5 -169t-73 -176.5t-86.5 -175t-100.5 -156.5t-114.5 -130t-128 -85t-142 -32q-85 0 -125.5 35.5t-40.5 87.5zM518 913h430l19 56q48 141 112 248 q-6 66 -57 104.5t-133 38.5q-105 0 -194.5 -76t-139.5 -246z" />
<glyph unicode="fi" horiz-adv-x="1128" d="M-557 -498q0 55 36 83t83 28l26 -2q-12 -27 -12 -51q0 -38 25 -60t73 -22q122 0 212.5 128.5t168.5 387.5l252 835h-155l14 50l170 34l18 56q58 175 155.5 314t235.5 225.5t291 86.5q71 0 123 -16.5t79 -44t39.5 -55.5t12.5 -58q0 -53 -42.5 -97t-102.5 -44q-42 0 -74 16 q14 47 14 82q0 21 -4.5 39.5t-17.5 40t-42.5 34.5t-72.5 13q-128 0 -223.5 -114t-169.5 -351l-39 -127h504q47 14 98 39l-241 -628q-56 -148 -56 -193q0 -29 27 -29q35 0 118.5 73t120.5 126l31 -20q-36 -65 -96.5 -135t-140.5 -124.5t-146 -54.5q-39 0 -58.5 18t-19.5 60 q0 84 52 225l149 420q14 37 14 66q0 33 -31 45t-100 12h-258l-170 -510q-29 -88 -59.5 -169t-73 -176.5t-86.5 -175t-100.5 -156.5t-114.5 -130t-128 -85t-142 -32q-85 0 -125.5 35.5t-40.5 87.5z" />
<glyph unicode="fl" horiz-adv-x="1177" d="M-557 -498q0 55 36 83t83 28l26 -2q-12 -27 -12 -51q0 -38 25 -60t73 -22q122 0 212.5 128.5t168.5 387.5l252 835h-155l14 50l170 34l18 56q58 175 155.5 314t235.5 225.5t291 86.5q142 0 207 -88q42 14 72 29l-416 -1198q-49 -140 -49 -184q0 -43 41 -43q87 0 217 190 l31 -22q-28 -53 -60 -100.5t-76.5 -99t-98 -82t-107.5 -30.5q-52 0 -85.5 32t-33.5 103q0 59 35 166l346 1024q16 50 16 97q0 116 -127 116q-128 0 -223.5 -114t-169.5 -351l-39 -127h340l-35 -102h-338l-170 -508q-29 -88 -59.5 -169t-73 -176.5t-86.5 -175t-100.5 -156.5 t-114.5 -130t-128 -85t-142 -32q-85 0 -125.5 35.5t-40.5 87.5z" />
<glyph unicode="ffi" horiz-adv-x="1738" d="M-557 -498q0 55 36 83t83 28l26 -2q-12 -27 -12 -51q0 -38 25 -60t73 -22q122 0 212.5 128.5t168.5 387.5l252 835h-155l14 50l170 34l16 54q76 233 245 358t382 125q152 0 225 -66q198 211 443 211q71 0 123 -16.5t79 -44t39.5 -55.5t12.5 -58q0 -53 -43 -97t-103 -44 q-38 0 -74 18q19 47 19 80q0 20 -5 39t-18.5 40.5t-44 34.5t-73.5 13q-128 0 -224 -114.5t-170 -350.5l-39 -127h504q50 15 99 39l-242 -628q-55 -146 -55 -193q0 -29 26 -29q35 0 119 73t121 126l31 -20q-36 -65 -96.5 -135t-140.5 -124.5t-146 -54.5q-39 0 -58.5 18 t-19.5 60q0 86 51 225l149 420q15 40 15 66q0 33 -31 45t-100 12h-258l-170 -510q-29 -88 -59.5 -169t-73 -176.5t-87 -175.5t-100.5 -156.5t-114.5 -129.5t-128.5 -85t-142 -32q-85 0 -125.5 35.5t-40.5 87.5q0 55 36 83t83 28l27 -2q-13 -29 -13 -51q0 -38 25.5 -60 t73.5 -22q122 0 212.5 128.5t168.5 387.5l245 817h-428l-170 -508q-29 -88 -59.5 -169t-73 -176.5t-86.5 -175t-100.5 -156.5t-114.5 -130t-128 -85t-142 -32q-85 0 -125.5 35.5t-40.5 87.5zM516 913h430l19 56q48 141 112 248q-6 66 -57 104.5t-133 38.5q-105 0 -194.5 -76 t-139.5 -246z" />
<glyph unicode="ffl" horiz-adv-x="1785" d="M-557 -498q0 55 36 83t83 28l26 -2q-12 -27 -12 -51q0 -38 25 -60t73 -22q122 0 212.5 128.5t168.5 387.5l252 835h-155l14 50l170 34l16 54q76 233 245 358t382 125q150 0 223 -66q198 211 443 211q141 0 206 -88q42 14 72 29l-416 -1198q-49 -140 -49 -184 q0 -43 41 -43q87 0 217 190l31 -22q-28 -53 -60 -100.5t-76.5 -99t-98 -82t-107.5 -30.5q-52 0 -85.5 32t-33.5 103q0 59 35 166l346 1024q16 50 16 97q0 116 -127 116q-128 0 -223.5 -114t-169.5 -351l-39 -127h340l-34 -102h-338l-170 -508q-29 -88 -59.5 -169t-73 -176.5 t-87 -175.5t-100.5 -156.5t-114.5 -129.5t-128.5 -85t-142 -32q-85 0 -125.5 35.5t-40.5 87.5q0 55 36 83t83 28l27 -2q-13 -29 -13 -51q0 -38 25.5 -60t73.5 -22q122 0 212.5 128.5t168.5 387.5l245 817h-426l-170 -508q-29 -88 -59.5 -169t-73 -176.5t-86.5 -175 t-100.5 -156.5t-114.5 -130t-128 -85t-142 -32q-85 0 -125.5 35.5t-40.5 87.5zM516 913h428l19 56q44 134 114 250q-8 65 -59.5 103t-130.5 38q-105 0 -194.5 -76t-139.5 -246z" />
<glyph unicode="Th" horiz-adv-x="2039" d="M193 1247q0 44 26 75.5t74.5 48.5t99 25.5t119.5 12.5q652 38 898 60.5t355 56.5q-132 -349 -245 -643t-154.5 -401.5t-42.5 -112.5h8q56 112 121 212t139.5 186t156 136.5t155.5 50.5q58 0 83 -25.5t25 -76.5q0 -73 -39 -180l-123 -348q-55 -154 -55 -193q0 -29 31 -29 q58 0 176 168l31 -22q-28 -51 -59.5 -96t-73 -89t-91.5 -70t-100 -26q-39 0 -58.5 18t-19.5 60q0 78 70 279l123 350q24 70 24 102q0 41 -30 41q-73 0 -175 -100.5t-186.5 -236t-144.5 -277t-60 -219.5q-24 -17 -73 -17q-36 0 -57 19.5t-21 52.5q0 26 10 59l395 1170 q6 18 6 28q0 18 -9.5 29t-34.5 16.5t-54.5 7t-81.5 1.5h-330l-266 -1147q-8 -40 -8 -60q0 -35 22 -50t72 -23l66 -11l-15 -59q-110 6 -286 6q-77 0 -145 -1.5t-97 -2.5l-29 -2l15 59l43 11q85 20 128.5 65.5t63.5 134.5l250 1078h-307q-77 0 -117.5 -25.5t-40.5 -62.5 q0 -30 21 -62q-9 -17 -33 -27t-51 -10q-40 0 -67 21t-27 65z" />
<glyph unicode="&#x164;h" horiz-adv-x="2039" d="M193 1247q0 44 26 75.5t74.5 48.5t99 25.5t119.5 12.5q652 38 898 60.5t355 56.5q-132 -349 -245 -643t-154.5 -401.5t-42.5 -112.5h8q56 112 121 212t139.5 186t156 136.5t155.5 50.5q58 0 83 -25.5t25 -76.5q0 -73 -39 -180l-123 -348q-55 -154 -55 -193q0 -29 31 -29 q58 0 176 168l31 -22q-28 -51 -59.5 -96t-73 -89t-91.5 -70t-100 -26q-39 0 -58.5 18t-19.5 60q0 78 70 279l123 350q24 70 24 102q0 41 -30 41q-73 0 -175 -100.5t-186.5 -236t-144.5 -277t-60 -219.5q-24 -17 -73 -17q-36 0 -57 19.5t-21 52.5q0 26 10 59l395 1170 q6 18 6 28q0 18 -9.5 29t-34.5 16.5t-54.5 7t-81.5 1.5h-330l-266 -1147q-8 -40 -8 -60q0 -35 22 -50t72 -23l66 -11l-15 -59q-110 6 -286 6q-77 0 -145 -1.5t-97 -2.5l-29 -2l15 59l43 11q85 20 128.5 65.5t63.5 134.5l250 1078h-307q-77 0 -117.5 -25.5t-40.5 -62.5 q0 -30 21 -62q-9 -17 -33 -27t-51 -10q-40 0 -67 21t-27 65zM690 1806l129 72l158 -246q50 85 136.5 163.5t162.5 78.5q37 0 55.5 -16.5t18.5 -40.5l-394 -279z" />
<glyph unicode="&#x162;h" horiz-adv-x="2039" d="M193 1247q0 44 26 75.5t74.5 48.5t99 25.5t119.5 12.5q652 38 898 60.5t355 56.5q-132 -349 -245 -643t-154.5 -401.5t-42.5 -112.5h8q56 112 121 212t139.5 186t156 136.5t155.5 50.5q58 0 83 -25.5t25 -76.5q0 -73 -39 -180l-123 -348q-55 -154 -55 -193q0 -29 31 -29 q58 0 176 168l31 -22q-28 -51 -59.5 -96t-73 -89t-91.5 -70t-100 -26q-39 0 -58.5 18t-19.5 60q0 78 70 279l123 350q24 70 24 102q0 41 -30 41q-73 0 -175 -100.5t-186.5 -236t-144.5 -277t-60 -219.5q-24 -17 -73 -17q-36 0 -57 19.5t-21 52.5q0 26 10 59l395 1170 q6 18 6 28q0 18 -9.5 29t-34.5 16.5t-54.5 7t-81.5 1.5h-330l-266 -1147q-8 -40 -8 -60q0 -35 22 -50t72 -23l66 -11l-15 -59q-100 4 -258 6q-71 -41 -71 -104q0 -23 17 -44.5t38 -36.5t38 -39.5t17 -53.5q0 -64 -49.5 -114.5t-111.5 -73.5t-117 -23q-59 0 -95 24t-36 64 q0 39 28.5 63.5t63.5 24.5q25 0 35 -10q-35 -23 -35 -58q0 -22 18 -37.5t58 -15.5q43 0 79.5 29t36.5 69q0 25 -14 47.5t-30 37.5t-30 41.5t-14 58.5q0 47 41 90.5t88 60.5q-73 0 -136.5 -1.5t-90.5 -2.5l-27 -2l15 59l43 11q85 20 128.5 65.5t63.5 134.5l250 1078h-307 q-77 0 -117.5 -25.5t-40.5 -62.5q0 -30 21 -62q-9 -17 -33 -27t-51 -10q-40 0 -67 21t-27 65z" />
<glyph unicode="fj" horiz-adv-x="1095" d="M-557 -498q0 55 36 83t83 28l26 -2q-12 -27 -12 -51q0 -38 25 -60t73 -22q122 0 212.5 128.5t168.5 387.5l252 835h-155l14 50l170 34l18 56q58 175 155.5 314t235.5 225.5t291 86.5q71 0 123 -16.5t79 -44t39.5 -55.5t12.5 -58q0 -53 -42.5 -97t-102.5 -44q-42 0 -74 16 q14 47 14 82q0 21 -4.5 39.5t-17.5 40t-42.5 34.5t-72.5 13q-128 0 -223.5 -114t-169.5 -351l-39 -127h504q25 8 98 39l-274 -852q-44 -137 -98.5 -228.5t-147.5 -158.5q-50 -36 -119 -54.5t-142 -37t-128 -53.5l-12 39q51 44 164 90t155 86q50 46 81.5 104.5t61.5 155.5 l209 645q13 52 13 68q0 33 -34.5 45t-105.5 12h-258l-170 -510q-29 -88 -59.5 -169t-73 -176.5t-86.5 -175t-100.5 -156.5t-114.5 -130t-128 -85t-142 -32q-85 0 -125.5 35.5t-40.5 87.5z" />
<glyph unicode="ffj" horiz-adv-x="1708" d="M-555 -498q0 55 36 83t83 28l26 -2q-12 -27 -12 -51q0 -38 25 -60t73 -22q122 0 212.5 128.5t168.5 387.5l252 835h-155l14 50l170 34l16 54q76 233 245 358t382 125q152 0 225 -66q198 211 443 211q71 0 123 -16.5t79 -44t39.5 -55.5t12.5 -58q0 -53 -43 -97t-103 -44 q-42 0 -74 16q15 51 15 82q0 21 -4.5 39.5t-17.5 40t-42.5 34.5t-72.5 13q-128 0 -224 -114.5t-170 -350.5l-39 -127h504q30 10 99 39l-275 -852q-44 -137 -98.5 -228.5t-147.5 -158.5q-50 -36 -119 -54.5t-142 -37t-128 -53.5l-12 39q51 44 164 90t155 86q50 46 82 105 t62 155l209 645q12 48 12 68q0 33 -34 45t-105 12h-258l-170 -510q-29 -88 -59.5 -169t-73 -176.5t-87 -175.5t-100.5 -156.5t-114.5 -129.5t-128.5 -85t-142 -32q-85 0 -125.5 35.5t-40.5 87.5q0 55 36 83t83 28l27 -2q-13 -29 -13 -51q0 -38 25.5 -60t73.5 -22 q122 0 212.5 128.5t168.5 387.5l245 817h-428l-170 -508q-29 -88 -59.5 -169t-73 -176.5t-86.5 -175t-100.5 -156.5t-114.5 -130t-128 -85t-142 -32q-85 0 -125.5 35.5t-40.5 87.5zM518 913h430l19 56q50 147 112 248q-6 66 -57 104.5t-133 38.5q-105 0 -194.5 -76 t-139.5 -246z" />
<glyph unicode="fb" horiz-adv-x="1574" d="M-557 -498q0 55 36 83t83 28l26 -2q-12 -27 -12 -51q0 -38 25 -60t73 -22q122 0 212.5 128.5t168.5 387.5l252 835h-155l14 50l170 34l18 56q58 175 155.5 314t235.5 225.5t291 86.5q140 0 207 -90q22 7 72 31l-359 -946h9q32 61 71 117t92.5 115.5t120 95.5t133.5 36 q94 0 144.5 -52.5t50.5 -153.5q0 -99 -34.5 -208.5t-98 -210t-144.5 -182.5t-183.5 -131t-205.5 -49q-110 0 -160.5 65t-50.5 175q0 104 56 258l301 819q18 53 18 105q0 116 -127 116q-128 0 -223.5 -114t-169.5 -351l-39 -127h340l-35 -102h-338l-170 -508 q-29 -88 -59.5 -169t-73 -176.5t-86.5 -175t-100.5 -156.5t-114.5 -130t-128 -85t-142 -32q-85 0 -125.5 35.5t-40.5 87.5zM848 162q0 -62 25.5 -90.5t80.5 -28.5q73 0 145 48.5t126.5 124.5t97 165.5t64.5 176t22 151.5q0 66 -22.5 97.5t-75.5 31.5q-61 0 -143.5 -72 t-152 -174t-118.5 -222t-49 -208z" />
<glyph unicode="ffb" horiz-adv-x="2181" d="M-557 -498q0 55 36 83t83 28l26 -2q-12 -27 -12 -51q0 -38 25 -60t73 -22q122 0 212.5 128.5t168.5 387.5l252 835h-155l14 50l170 34l16 54q76 233 245 358t382 125q148 0 221 -66q198 211 442 211q140 0 207 -90q22 7 72 31l-358 -946h8q32 61 71 117t93 115.5 t120.5 95.5t133.5 36q94 0 144 -52.5t50 -153.5q0 -99 -34.5 -208.5t-97.5 -210t-144.5 -182.5t-183.5 -131t-205 -49q-110 0 -160.5 65t-50.5 175q0 106 55 258l301 819q18 53 18 105q0 116 -127 116q-128 0 -223.5 -114t-169.5 -351l-39 -127h340l-35 -102h-337l-170 -508 q-29 -88 -59.5 -169t-73 -176.5t-87 -175.5t-100.5 -156.5t-114.5 -129.5t-128.5 -85t-142 -32q-85 0 -125.5 35.5t-40.5 87.5q0 55 36 83t83 28l27 -2q-13 -29 -13 -51q0 -38 25.5 -60t73.5 -22q122 0 212.5 128.5t168.5 387.5l245 817h-424l-170 -508q-29 -88 -59.5 -169 t-73 -176.5t-86.5 -175t-100.5 -156.5t-114.5 -130t-128 -85t-142 -32q-85 0 -125.5 35.5t-40.5 87.5zM516 913h426l19 56q46 139 114 252q-8 63 -59 101t-129 38q-105 0 -194.5 -76t-139.5 -246zM1454 162q0 -62 26 -90.5t81 -28.5q91 0 178 73.5t145.5 179t94.5 218.5 t36 195q0 66 -22.5 97.5t-75.5 31.5q-61 0 -143.5 -72t-152 -174t-118.5 -222t-49 -208z" />
<glyph unicode="fh" horiz-adv-x="1587" d="M-557 -498q0 55 36 83t83 28l26 -2q-12 -27 -12 -51q0 -38 25 -60t73 -22q122 0 212.5 128.5t168.5 387.5l252 835h-155l14 50l170 34l18 56q58 175 155.5 314t235.5 225.5t291 86.5q140 0 207 -90q22 7 72 31q-131 -346 -245.5 -644.5t-156 -408t-43.5 -114.5h9 q56 112 120.5 212t139 186t156 136.5t155.5 50.5q58 0 83.5 -25.5t25.5 -76.5q0 -73 -39 -180l-123 -348q-56 -157 -56 -193q0 -29 31 -29q58 0 176 168l31 -22q-28 -51 -59.5 -96t-73 -89t-91.5 -70t-100 -26q-39 0 -58 17.5t-19 60.5q0 81 69 279l123 350q25 73 25 102 q0 41 -31 41q-73 0 -174.5 -100.5t-186 -236t-144.5 -277t-60 -219.5q-25 -17 -74 -17q-36 0 -57 19.5t-21 52.5q0 26 10 59l398 1174q20 65 20 108q0 125 -127 125q-128 0 -223.5 -114t-169.5 -351l-39 -127h340l-35 -102h-338l-170 -508q-29 -88 -59.5 -169t-73 -176.5 t-86.5 -175t-100.5 -156.5t-114.5 -130t-128 -85t-142 -32q-85 0 -125.5 35.5t-40.5 87.5z" />
<glyph unicode="ffh" horiz-adv-x="2191" d="M-557 -498q0 55 36 83t83 28l26 -2q-12 -27 -12 -51q0 -38 25 -60t73 -22q122 0 212.5 128.5t168.5 387.5l252 835h-155l14 50l170 34l16 54q76 233 245 358t382 125q146 0 219 -66q198 211 442 211q140 0 207 -90q22 7 72 31q-129 -339 -244.5 -643t-156.5 -411 t-43 -113h8q56 112 120.5 212t139 186t156 136.5t155.5 50.5q58 0 83.5 -25.5t25.5 -76.5q0 -73 -39 -180l-123 -348q-55 -154 -55 -193q0 -29 30 -29q58 0 176 168l31 -22q-28 -51 -59.5 -96t-73 -89t-91 -70t-99.5 -26q-39 0 -58.5 18t-19.5 60q0 81 69 279l123 350 q25 73 25 102q0 41 -31 41q-73 0 -174.5 -100.5t-186 -236t-144.5 -277t-60 -219.5q-25 -17 -74 -17q-36 0 -57 19.5t-21 52.5q0 22 11 59l397 1174q20 65 20 108q0 125 -127 125q-128 0 -223.5 -114t-169.5 -351l-39 -127h340l-35 -102h-338l-169 -508q-29 -88 -59.5 -169 t-73 -176.5t-87 -175.5t-100.5 -156.5t-114.5 -129.5t-128.5 -85t-142 -32q-85 0 -125.5 35.5t-40.5 87.5q0 55 36 83t83 28l27 -2q-13 -29 -13 -51q0 -38 25.5 -60t73.5 -22q122 0 212 128t168 388l246 817h-422l-170 -508q-29 -88 -59.5 -169t-73 -176.5t-86.5 -175 t-100.5 -156.5t-114.5 -130t-128 -85t-142 -32q-85 0 -125.5 35.5t-40.5 87.5zM516 913h424l18 56q41 129 117 254q-9 62 -60.5 99.5t-127.5 37.5q-105 0 -194.5 -76t-139.5 -246z" />
<glyph unicode="fk" horiz-adv-x="1646" d="M-557 -498q0 55 36 83t83 28l26 -2q-12 -27 -12 -51q0 -38 25 -60t73 -22q122 0 212.5 128.5t168.5 387.5l252 835h-155l14 50l170 34l18 56q58 175 155.5 314t235.5 225.5t291 86.5q140 0 207 -90q22 7 72 31q-447 -1166 -447 -1167h9q58 121 121 220.5t136.5 184.5 t157.5 132.5t168 47.5q53 0 92 -16t59 -42t29 -51.5t9 -51.5q0 -256 -449 -365l29 -104q39 -146 96.5 -207.5t149.5 -61.5q55 0 118 25l15 -21q-3 -4 -8.5 -10t-24.5 -22.5t-40.5 -29t-56 -22.5t-71.5 -10q-133 0 -204 75.5t-107 248.5l-31 147q61 18 128.5 47t137 69 t114 91.5t44.5 101.5q0 72 -86 72q-74 0 -161.5 -65.5t-164 -167t-141 -215t-102 -218t-37.5 -167.5q-25 -17 -74 -17q-36 0 -57 19.5t-21 52.5q0 26 10 59l400 1174q20 65 20 108q0 125 -127 125q-128 0 -223.5 -114t-169.5 -351l-39 -127h340l-35 -102h-338l-170 -508 q-29 -88 -59.5 -169t-73 -176.5t-86.5 -175t-100.5 -156.5t-114.5 -130t-128 -85t-142 -32q-85 0 -125.5 35.5t-40.5 87.5z" />
<glyph unicode="ffk" horiz-adv-x="2250" d="M-557 -498q0 55 36 83t83 28l26 -2q-12 -27 -12 -51q0 -38 25 -60t73 -22q122 0 212.5 128.5t168.5 387.5l252 835h-155l14 50l170 34l16 54q76 233 245 358t382 125q146 0 219 -66q198 211 442 211q140 0 207 -90q22 7 72 31q-443 -1156 -446 -1167h8q58 121 121 220.5 t136.5 184.5t157.5 132.5t168 47.5q53 0 92 -16t59 -42t29 -51.5t9 -51.5q0 -256 -449 -365l29 -104q39 -146 96.5 -207.5t149.5 -61.5q57 0 119 25l14 -21q-3 -4 -8.5 -10t-24.5 -22.5t-40.5 -29t-56 -22.5t-71.5 -10q-133 0 -204 75.5t-107 248.5l-31 147q61 18 128.5 47 t137 69t114 91.5t44.5 101.5q0 72 -86 72q-74 0 -161.5 -65.5t-164 -167t-141 -215t-102 -218t-37.5 -167.5q-25 -17 -74 -17q-36 0 -57 19.5t-21 52.5q0 22 11 59l399 1174q20 65 20 108q0 125 -127 125q-128 0 -223.5 -114t-169.5 -351l-39 -127h340l-35 -102h-338 l-169 -508q-29 -88 -59.5 -169t-73 -176.5t-87 -175.5t-100.5 -156.5t-114.5 -129.5t-128.5 -85t-142 -32q-85 0 -125.5 35.5t-40.5 87.5q0 55 36 83t83 28l27 -2q-13 -29 -13 -51q0 -38 25.5 -60t73.5 -22q122 0 212 128t168 388l246 817h-422l-170 -508 q-29 -88 -59.5 -169t-73 -176.5t-86.5 -175t-100.5 -156.5t-114.5 -130t-128 -85t-142 -32q-85 0 -125.5 35.5t-40.5 87.5zM516 913h424l18 56q41 129 117 254q-11 61 -62.5 99t-125.5 38q-105 0 -194.5 -76t-139.5 -246z" />
<glyph unicode="fr" horiz-adv-x="1419" d="M-557 -498q0 55 36 83t83 28l26 -2q-12 -27 -12 -51q0 -38 25 -60t73 -22q122 0 212.5 128.5t168.5 387.5l252 835h-155l14 50l168 20l20 70q52 175 150.5 315.5t238 225.5t293.5 85q71 0 123 -16.5t79 -44t39.5 -55.5t12.5 -58q0 -53 -42.5 -97t-102.5 -44q-42 0 -74 16 q14 47 14 82q0 21 -4.5 39.5t-17.5 40t-42.5 34.5t-72.5 13q-267 0 -393 -465l-35 -127h502q41 13 96 39q-210 -519 -233 -583h8q5 12 14.5 33t39.5 81.5t62 115.5t79 122.5t92.5 116t101.5 81.5t107 33q62 0 96.5 -34t34.5 -87q0 -58 -39.5 -89t-87.5 -31l-15 2q4 12 4 26 q0 24 -16.5 44t-56.5 20q-56 0 -124.5 -65t-128.5 -165t-111 -211.5t-81 -214t-30 -163.5q-25 -15 -74 -15q-34 0 -54 23.5t-20 58.5q0 27 6 47l166 588q14 49 14 70q0 33 -31 45t-100 12h-256l-172 -510q-310 -924 -704 -924q-85 0 -125.5 35.5t-40.5 87.5z" />
<glyph unicode="ffr" horiz-adv-x="2021" d="M-557 -498q0 55 36 83t83 28l26 -2q-12 -27 -12 -51q0 -38 25 -60t73 -22q122 0 212.5 128.5t168.5 387.5l252 835h-155l14 50l170 34l16 54q76 233 245 358t382 125q142 0 213 -61q200 206 446 206q71 0 123 -16.5t79 -44t39.5 -55.5t12.5 -58q0 -53 -42.5 -97 t-102.5 -44q-42 0 -74 16q15 51 15 82q0 21 -4.5 39.5t-17.5 40t-43 34.5t-73 13q-267 0 -393 -465l-35 -127h502q41 13 96 39q-210 -519 -233 -583h8q5 12 14.5 33t39.5 81.5t62 115.5t79 122.5t92.5 116t101.5 81.5t107 33q62 0 96.5 -34t34.5 -87q0 -58 -39.5 -89 t-87.5 -31l-15 2q5 12 5 26q0 24 -16.5 44t-57.5 20q-56 0 -124.5 -65t-128.5 -165t-111 -211.5t-81 -214t-30 -163.5q-25 -15 -74 -15q-34 0 -54 23.5t-20 58.5q0 27 6 47l166 588q15 52 15 70q0 33 -31.5 45t-100.5 12h-256l-172 -510q-310 -924 -704 -924 q-85 0 -125.5 35.5t-40.5 87.5q0 55 36 83t83 28l26 -2q-12 -27 -12 -51q0 -38 25 -60t73 -22q122 0 212.5 128.5t168.5 387.5l246 817h-420l-170 -508q-29 -88 -59.5 -169t-73 -176.5t-86.5 -175t-100.5 -156.5t-114.5 -130t-128 -85t-142 -32q-85 0 -125.5 35.5 t-40.5 87.5zM516 913h424l16 56q38 134 117 262q-14 58 -64.5 93.5t-121.5 35.5q-105 0 -194.5 -76t-139.5 -246z" />
<glyph unicode="ft" horiz-adv-x="1234" d="M-557 -498q0 55 36 83t83 28l26 -2q-12 -27 -12 -51q0 -38 25 -60t73 -22q122 0 212.5 128.5t168.5 387.5l252 835h-155l14 50l170 34l18 56q58 175 155.5 314t235.5 225.5t291 86.5q115 0 174.5 -38t59.5 -97q0 -50 -38.5 -84.5t-90.5 -34.5q-36 0 -70 17q19 34 19 63 q0 84 -152 84q-122 0 -215.5 -114.5t-167.5 -350.5l-39 -127l412 21l53 145q41 117 145 117q21 0 42 -7.5t28 -14.5q-21 -21 -48 -82.5t-44 -112.5l-17 -51h261l-37 -90h-254l-137 -373q-91 -247 -91 -303q0 -39 35 -39q49 0 117.5 69.5t130.5 159.5l35 -20 q-26 -51 -65 -108.5t-90 -117.5t-111 -99.5t-113 -39.5q-106 0 -106 127q0 82 32 172l201 570h-403l-179 -533q-29 -88 -59.5 -169t-73 -176.5t-86.5 -175t-100.5 -156.5t-114.5 -130t-128 -85t-142 -32q-85 0 -125.5 35.5t-40.5 87.5z" />
<glyph unicode="fft" horiz-adv-x="1847" d="M-555 -498q0 55 36 83t83 28l26 -2q-12 -27 -12 -51q0 -38 25 -60t73 -22q122 0 212.5 128.5t168.5 387.5l252 835h-155l14 50l170 34l16 54q76 233 245 358t382 125q152 0 225 -66q198 211 443 211q114 0 173.5 -38t59.5 -97q0 -50 -38.5 -84.5t-90.5 -34.5 q-36 0 -70 17q19 34 19 63q0 84 -152 84q-122 0 -215.5 -114.5t-167.5 -350.5l-39 -127l412 21l53 145q41 117 146 117q21 0 41.5 -7.5t27.5 -14.5q-21 -21 -48 -82.5t-44 -112.5l-16 -51h260l-37 -90h-254l-137 -373q-90 -244 -90 -303q0 -39 35 -39q49 0 117 69.5 t130 159.5l35 -20q-26 -51 -65 -108.5t-90 -117.5t-111 -99.5t-113 -39.5q-106 0 -106 127q0 80 33 172l200 570h-403l-178 -533q-29 -88 -59.5 -169t-73 -176.5t-87 -175.5t-100.5 -156.5t-114.5 -129.5t-128.5 -85t-142 -32q-85 0 -125.5 35.5t-40.5 87.5q0 55 36 83 t83 28l27 -2q-13 -29 -13 -51q0 -38 25.5 -60t73.5 -22q122 0 212.5 128.5t168.5 387.5l245 817h-428l-170 -508q-29 -88 -59.5 -169t-73 -176.5t-86.5 -175t-100.5 -156.5t-114.5 -130t-128 -85t-142 -32q-85 0 -125.5 35.5t-40.5 87.5zM518 913h430l19 56q50 147 112 248 q-6 66 -57 104.5t-133 38.5q-105 0 -194.5 -76t-139.5 -246z" />
<glyph unicode="fy" horiz-adv-x="1556" d="M-557 -498q0 55 36 83t83 28l26 -2q-12 -27 -12 -51q0 -38 25 -60t73 -22q122 0 212.5 128.5t168.5 387.5l252 835h-155l14 50l168 20l20 70q52 175 150.5 315.5t238 225.5t293.5 85q71 0 123 -16.5t79 -44t39.5 -55.5t12.5 -58q0 -53 -42.5 -97t-102.5 -44q-42 0 -74 16 q14 47 14 82q0 21 -4.5 39.5t-17.5 40t-42.5 34.5t-72.5 13q-128 0 -222.5 -114t-170.5 -351l-45 -141l350 27q78 4 90 4q44 0 63.5 -25.5t22.5 -77.5q23 -414 23 -821q137 131 248.5 340t111.5 354q0 51 -22.5 89t-67.5 45q9 54 44.5 86t82.5 32q60 0 95.5 -39.5 t35.5 -101.5q0 -91 -56 -225.5t-148 -279t-216.5 -289t-254 -258.5t-268 -185.5t-251.5 -71.5q-61 0 -97 29.5t-36 79.5q0 44 26.5 73.5t65.5 39.5q19 -66 109 -66q146 0 280.5 79.5t173.5 160.5q13 30 13 176q0 282 -49 698q-4 40 -31.5 54t-85.5 12l-270 -7l-179 -528 q-310 -924 -704 -924q-85 0 -125.5 35.5t-40.5 87.5z" />
<glyph unicode="ffy" horiz-adv-x="2168" d="M-555 -498q0 55 36 83t83 28l26 -2q-12 -27 -12 -51q0 -38 25 -60t73 -22q122 0 212.5 128.5t168.5 387.5l252 835h-155l14 50l166 22l20 66q73 234 242.5 358.5t384.5 124.5q147 0 221 -64q202 209 447 209q71 0 123 -16.5t79 -44t39.5 -55.5t12.5 -58q0 -53 -43 -97 t-103 -44q-42 0 -74 16q15 51 15 82q0 21 -4.5 39.5t-17.5 40t-42.5 34.5t-72.5 13q-128 0 -224 -114.5t-170 -350.5l-41 -131l347 17q78 4 90 4q44 0 63.5 -25.5t22.5 -77.5q22 -396 22 -821q137 131 249 340t112 354q0 51 -22.5 89t-67.5 45q9 54 44 86t82 32q60 0 96 -40 t36 -101q0 -91 -56 -225.5t-148 -279t-216.5 -289t-254 -258.5t-268 -185.5t-251.5 -71.5q-61 0 -97.5 29.5t-36.5 79.5q0 44 27 73.5t66 39.5q19 -66 108 -66q146 0 281 80t174 160q12 28 12 176q0 278 -49 694q-4 39 -29 50t-88 11h-270l-178 -526q-310 -924 -705 -924 q-85 0 -125.5 35.5t-40.5 87.5q0 55 36 83t83 28l27 -2q-13 -29 -13 -51q0 -38 25.5 -60t73.5 -22q122 0 212.5 128.5t168.5 387.5l252 835h-428l-177 -526q-29 -88 -59.5 -169t-73 -176.5t-86.5 -175t-100.5 -156.5t-114.5 -130t-128 -85t-142 -32q-85 0 -125.5 35.5 t-40.5 87.5zM512 899l436 6l19 64q43 142 110 254q-8 63 -58.5 100t-129.5 37q-49 0 -94.5 -16.5t-90 -52.5t-83 -100.5t-66.5 -152.5z" />
<glyph unicode="gf" horiz-adv-x="1523" d="M-86 -274q0 77 44.5 124.5t109.5 47.5q34 0 56.5 -16.5t25.5 -39.5q-41 -7 -69 -35.5t-28 -80.5q0 -77 71.5 -133t194.5 -56q77 0 136 18t90.5 47.5t47 61.5t15.5 66q0 65 -44.5 100.5t-153.5 67.5q-33 10 -44.5 13.5t-41.5 13.5t-42 15.5t-36.5 16.5t-35 20t-26.5 23.5 t-23 28.5t-12.5 32.5t-5.5 38.5q0 75 56.5 120.5t130.5 55.5q-66 20 -106 75.5t-40 142.5q0 112 54.5 218t150 174t203.5 68q50 0 84 -12.5t69 -44.5q58 -12 105 -12q41 0 65.5 6t61.5 27q33 -25 33 -62q0 -35 -21 -56.5t-61 -21.5q-29 0 -83 28t-59 30q21 -47 21 -121 q0 -108 -49.5 -208t-136 -165t-187.5 -74q-151 -26 -151 -108q0 -40 47.5 -64.5t154.5 -56.5q147 -42 209 -105.5t62 -162.5q0 -94 -72 -172q181 110 268 395l252 835h-155l14 50l170 34l18 56q58 175 155.5 314t235.5 225.5t291 86.5q115 0 174.5 -38t59.5 -97 q0 -50 -38.5 -84.5t-90.5 -34.5q-36 0 -70 17q19 34 19 63q0 84 -152 84q-122 0 -215.5 -114.5t-167.5 -350.5l-39 -127h279l-43 -102h-269l-170 -508q-28 -85 -53.5 -152t-59 -141.5t-68 -132t-79 -116.5t-93 -102.5t-110.5 -82.5t-131.5 -63t-154 -38t-180.5 -14 q-167 0 -267 74t-100 191zM332 508q0 -91 28.5 -136.5t79.5 -45.5q56 0 100.5 41.5t69 104t37 125t12.5 116.5q0 84 -27.5 133t-84.5 49q-45 0 -82.5 -28t-61.5 -71t-40.5 -96.5t-23.5 -102t-7 -89.5z" />
<glyph unicode="gfl" horiz-adv-x="2074" d="M-86 -274q0 77 44.5 124.5t109.5 47.5q34 0 56.5 -16.5t25.5 -39.5q-41 -7 -69 -35.5t-28 -80.5q0 -77 71.5 -133t194.5 -56q77 0 136 18t90.5 47.5t47 61.5t15.5 66q0 65 -44.5 100.5t-153.5 67.5q-33 10 -44.5 13.5t-41.5 13.5t-42 15.5t-36.5 16.5t-35 20t-26.5 23.5 t-23 28.5t-12.5 32.5t-5.5 38.5q0 75 56.5 120.5t130.5 55.5q-66 20 -106 75.5t-40 142.5q0 112 54.5 218t150 174t203.5 68q50 0 84 -12.5t69 -44.5q58 -12 105 -12q41 0 65.5 6t61.5 27q33 -25 33 -62q0 -35 -21 -56.5t-61 -21.5q-29 0 -83 28t-59 30q21 -47 21 -121 q0 -108 -49.5 -208t-136 -165t-187.5 -74q-151 -26 -151 -108q0 -40 47.5 -64.5t154.5 -56.5q147 -42 209 -105.5t62 -162.5q0 -94 -72 -172q181 110 268 395l252 835h-155l14 50l170 34l18 56q58 175 155.5 314t235.5 225.5t291 86.5q142 0 207 -88q42 14 72 29l-416 -1198 q-49 -140 -49 -184q0 -43 41 -43q87 0 217 190l31 -22q-28 -53 -60 -100.5t-76.5 -99t-98 -82t-107.5 -30.5q-52 0 -85.5 32t-33.5 103q0 59 35 166l346 1024q16 50 16 97q0 116 -127 116q-128 0 -223.5 -114t-169.5 -351l-39 -127h279l-43 -102h-269l-170 -508 q-28 -85 -53.5 -152t-59 -141.5t-68 -132t-79 -116.5t-93 -102.5t-110.5 -82.5t-131.5 -63t-154 -38t-180.5 -14q-167 0 -267 74t-100 191zM332 508q0 -91 28.5 -136.5t79.5 -45.5q56 0 100.5 41.5t69 104t37 125t12.5 116.5q0 84 -27.5 133t-84.5 49q-45 0 -82.5 -28 t-61.5 -71t-40.5 -96.5t-23.5 -102t-7 -89.5z" />
<glyph unicode="f&#xe4;" horiz-adv-x="1605" d="M-557 -498q0 55 36 83t83 28l26 -2q-12 -27 -12 -51q0 -38 25 -60t73 -22q122 0 212.5 128.5t168.5 387.5l252 835h-155l14 50l170 34l18 56q58 175 155.5 314t235.5 225.5t291 86.5q67 0 118.5 -16t82.5 -41.5t51 -61.5t27.5 -71t7.5 -74t-12 -81t-42.5 -76.5 t-72.5 -34.5q-39 0 -63.5 20t-24.5 55q0 30 29.5 86.5t29.5 90.5q0 122 -180 122q-284 0 -432 -473l-39 -127h279l-43 -102h-269l-170 -508q-29 -88 -59.5 -169t-73 -176.5t-86.5 -175t-100.5 -156.5t-114.5 -130t-128 -85t-142 -32q-85 0 -125.5 35.5t-40.5 87.5zM696 199 q0 122 49.5 249t129 226t188 162t219.5 63q37 0 69.5 -11t49 -22t39.5 -30q12 38 42.5 77t76.5 39q43 0 77 -30q-33 -38 -99 -183.5t-124.5 -322t-58.5 -269.5q0 -45 39 -45q78 0 190 185l31 -21q-20 -47 -48.5 -94.5t-67.5 -96.5t-88.5 -79.5t-100.5 -30.5q-107 0 -107 117 q0 26 4 52.5t13 56t14 45t17.5 47t13.5 34.5h-9q-18 -37 -29 -59t-35 -63.5t-44 -68.5t-51.5 -60.5t-62.5 -53t-72 -33.5t-84 -14q-90 0 -135.5 64.5t-45.5 169.5zM856 240q0 -82 21 -118t75 -36q61 0 130.5 70t126.5 173.5t101.5 209t67.5 190.5q-39 92 -137 92 q-102 0 -192.5 -89.5t-141.5 -223.5t-51 -268zM1487 1229q0 47 34.5 86t86.5 39q39 0 63.5 -25.5t24.5 -64.5q0 -46 -35.5 -85.5t-83.5 -39.5q-41 0 -65.5 25.5t-24.5 64.5z" />
<glyph unicode="ff&#xe4;" horiz-adv-x="2232" d="M-555 -498q0 55 36 83t83 28l26 -2q-12 -27 -12 -51q0 -38 25 -60t73 -22q122 0 212.5 128.5t168.5 387.5l252 835h-155l14 50l170 34l16 54q76 233 245 358t382 125q158 0 225 -70q199 215 447 215q83 0 141.5 -23.5t88.5 -64t43 -83.5t13 -93q0 -39 -12 -81 t-42.5 -76.5t-72.5 -34.5q-39 0 -63.5 20t-24.5 55q0 30 30 86.5t30 90.5q0 122 -180 122q-285 0 -433 -473l-38 -127h278l-43 -102h-268l-170 -508q-29 -88 -59.5 -169t-73 -176.5t-87 -175.5t-100.5 -156.5t-114.5 -129.5t-128.5 -85t-142 -32q-85 0 -125.5 35.5 t-40.5 87.5q0 55 36 83t83 28l27 -2q-12 -27 -12 -51q0 -38 25 -60t73 -22q122 0 212.5 128.5t168.5 387.5l246 817h-433l-170 -508q-29 -88 -59.5 -169t-73 -176.5t-86.5 -175t-100.5 -156.5t-114.5 -130t-128 -85t-142 -32q-85 0 -125.5 35.5t-40.5 87.5zM518 913h434 l19 56q42 130 108 239q-7 71 -58.5 111.5t-131.5 40.5q-105 0 -194.5 -76t-139.5 -246zM1313 199q0 122 49 249t128.5 226t188 162t219.5 63q37 0 69.5 -11t49 -22t39.5 -30q12 38 42.5 77t76.5 39q44 0 78 -30q-33 -38 -99.5 -183.5t-125 -322.5t-58.5 -269q0 -45 39 -45 q79 0 191 185l30 -21q-20 -47 -48.5 -94.5t-67.5 -96.5t-88.5 -79.5t-100.5 -30.5q-106 0 -106 117q0 22 3.5 46t7.5 42.5t12 43.5t12.5 37.5t14 36.5t11.5 29h-8q-18 -37 -29 -59.5t-35 -63.5t-44.5 -68t-52 -60.5t-62.5 -53t-72 -33.5t-84 -14q-90 0 -135 64.5t-45 169.5z M1473 240q0 -82 21 -118t75 -36q61 0 130.5 70t126.5 173.5t101.5 209t67.5 190.5q-39 92 -137 92q-102 0 -192.5 -89.5t-141.5 -223.5t-51 -268zM2103 1229q0 47 34.5 86t86.5 39q39 0 63.5 -25.5t24.5 -64.5q0 -46 -35.5 -85.5t-83.5 -39.5q-41 0 -65.5 25.5t-24.5 64.5z " />
<glyph unicode="f&#xeb;" horiz-adv-x="1454" d="M-557 -498q0 55 36 83t83 28l26 -2q-12 -27 -12 -51q0 -38 25 -60t73 -22q122 0 212.5 128.5t168.5 387.5l252 835h-155l14 50l170 34l18 56q58 175 155.5 314t235.5 225.5t291 86.5q67 0 118.5 -16t82.5 -41.5t51 -61.5t27.5 -71t7.5 -74t-12 -81t-42.5 -76.5 t-72.5 -34.5q-39 0 -63.5 20t-24.5 55q0 30 29.5 86.5t29.5 90.5q0 122 -180 122q-284 0 -432 -473l-39 -127h279l-43 -102h-269l-170 -508q-29 -88 -59.5 -169t-73 -176.5t-86.5 -175t-100.5 -156.5t-114.5 -130t-128 -85t-142 -32q-85 0 -125.5 35.5t-40.5 87.5zM717 215 q0 89 27 189t81.5 197.5t127 176.5t172.5 127.5t210 48.5q81 0 119.5 -41.5t38.5 -99.5q0 -118 -142.5 -208t-435.5 -167q-30 -105 -30 -200q0 -65 34 -109.5t107 -44.5q87 0 173.5 64t133.5 133l31 -23q-15 -26 -31 -51t-55.5 -72.5t-81 -81t-103.5 -60t-126 -26.5 q-122 0 -186 65t-64 183zM932 494q54 16 96.5 31t104 43.5t102 59t70.5 76t30 95.5q0 35 -18 54t-51 19q-60 0 -117 -40.5t-99.5 -105t-70 -120.5t-47.5 -112zM1473 1229q0 47 34.5 86t85.5 39q39 0 63.5 -25.5t24.5 -64.5q0 -46 -35 -85.5t-83 -39.5q-41 0 -65.5 25.5 t-24.5 64.5z" />
<glyph unicode="ff&#xeb;" horiz-adv-x="2080" d="M-555 -498q0 55 36 83t83 28l26 -2q-12 -27 -12 -51q0 -38 25 -60t73 -22q122 0 212.5 128.5t168.5 387.5l252 835h-155l14 50l170 34l16 54q76 233 245 358t382 125q158 0 225 -70q199 215 447 215q83 0 141.5 -23.5t88.5 -64t43 -83.5t13 -93q0 -39 -12 -81 t-42.5 -76.5t-72.5 -34.5q-39 0 -63.5 20t-24.5 55q0 30 30 86.5t30 90.5q0 122 -180 122q-285 0 -433 -473l-38 -127h278l-43 -102h-268l-170 -508q-29 -88 -59.5 -169t-73 -176.5t-87 -175.5t-100.5 -156.5t-114.5 -129.5t-128.5 -85t-142 -32q-85 0 -125.5 35.5 t-40.5 87.5q0 55 36 83t83 28l27 -2q-12 -27 -12 -51q0 -38 25 -60t73 -22q122 0 212.5 128.5t168.5 387.5l246 817h-433l-170 -508q-29 -88 -59.5 -169t-73 -176.5t-86.5 -175t-100.5 -156.5t-114.5 -130t-128 -85t-142 -32q-85 0 -125.5 35.5t-40.5 87.5zM518 913h434 l19 56q42 130 108 239q-7 71 -58.5 111.5t-131.5 40.5q-105 0 -194.5 -76t-139.5 -246zM1343 215q0 89 27 189t81.5 197.5t127.5 176.5t173 127.5t210 48.5q81 0 119.5 -41.5t38.5 -99.5q0 -118 -142.5 -208t-435.5 -167q-31 -109 -31 -200q0 -65 34 -109.5t108 -44.5 q87 0 173.5 64t133.5 133l31 -23q-15 -26 -31 -51t-56 -72.5t-81.5 -81t-103.5 -60t-126 -26.5q-122 0 -186 65t-64 183zM1559 494q54 16 96.5 31t104 43.5t102 59t70.5 76t30 95.5q0 35 -18.5 54t-51.5 19q-60 0 -117 -40.5t-99 -105t-69.5 -120.5t-47.5 -112zM2099 1229 q0 47 34.5 86t86.5 39q39 0 63.5 -25.5t24.5 -64.5q0 -46 -35.5 -85.5t-83.5 -39.5q-41 0 -65.5 25.5t-24.5 64.5z" />
<glyph unicode="f&#xf6;" horiz-adv-x="1517" d="M-557 -498q0 55 36 83t83 28l26 -2q-12 -27 -12 -51q0 -38 25 -60t73 -22q122 0 212.5 128.5t168.5 387.5l252 835h-155l14 50l170 34l18 56q58 175 155.5 314t235.5 225.5t291 86.5q75 0 129.5 -20t84 -55t42.5 -75.5t13 -88.5q0 -39 -15.5 -87.5t-51.5 -89t-81 -40.5 q-38 0 -58 19.5t-20 55.5q0 30 30 86.5t30 90.5q0 63 -31.5 92.5t-120.5 29.5q-284 0 -432 -473l-39 -127h279l-43 -102h-269l-170 -508q-29 -88 -59.5 -169t-73 -176.5t-86.5 -175t-100.5 -156.5t-114.5 -130t-128 -85t-142 -32q-85 0 -125.5 35.5t-40.5 87.5zM719 252 q0 90 27.5 189t79 189.5t119 163.5t155 116.5t178.5 43.5q110 0 175 -75.5t65 -210.5q0 -114 -44 -237.5t-117.5 -226.5t-180 -170t-220.5 -67q-108 0 -172.5 75.5t-64.5 209.5zM887 274q0 -231 129 -231q66 0 130 62t107.5 153.5t70 196.5t26.5 192q0 230 -129 230 q-88 0 -167.5 -103.5t-123 -242t-43.5 -257.5zM1450 1229q0 47 34.5 86t86.5 39q39 0 63.5 -25.5t24.5 -64.5q0 -46 -35.5 -85.5t-83.5 -39.5q-41 0 -65.5 25.5t-24.5 64.5z" />
<glyph unicode="ff&#xf6;" horiz-adv-x="2144" d="M-555 -498q0 55 36 83t83 28l26 -2q-12 -27 -12 -51q0 -38 25 -60t73 -22q122 0 212.5 128.5t168.5 387.5l252 835h-155l14 50l170 34l16 54q76 233 245 358t382 125q74 0 134 -19t91 -51q202 215 447 215q144 0 206 -67.5t62 -171.5q0 -45 -17 -94t-52 -86t-78 -37 q-38 0 -58 19.5t-20 55.5q0 30 29.5 86.5t29.5 90.5q0 63 -31 92.5t-120 29.5q-285 0 -433 -473l-38 -127h278l-43 -102h-268l-170 -508q-29 -88 -59.5 -169t-73 -176.5t-87 -175.5t-100.5 -156.5t-114.5 -129.5t-128.5 -85t-142 -32q-85 0 -125.5 35.5t-40.5 87.5 q0 55 36 83t83 28l27 -2q-12 -27 -12 -51q0 -38 25 -60t73 -22q122 0 212.5 128.5t168.5 387.5l246 817h-433l-170 -508q-29 -88 -59.5 -169t-73 -176.5t-86.5 -175t-100.5 -156.5t-114.5 -130t-128 -85t-142 -32q-85 0 -125.5 35.5t-40.5 87.5zM518 913h434l17 56 q40 123 110 239q-7 71 -58.5 111.5t-131.5 40.5q-105 0 -194.5 -76t-139.5 -246zM1346 252q0 90 27.5 189t79 189.5t119 163.5t155 116.5t178.5 43.5q110 0 174.5 -75.5t64.5 -210.5q0 -114 -44 -237.5t-117 -226.5t-179.5 -170t-220.5 -67q-108 0 -172.5 75.5t-64.5 209.5z M1513 274q0 -231 129 -231q66 0 130 62t107.5 153.5t70 196.5t26.5 192q0 230 -129 230q-88 0 -167.5 -103.5t-123 -242t-43.5 -257.5zM2077 1229q0 47 34.5 86t86.5 39q39 0 63.5 -25.5t24.5 -64.5q0 -46 -35.5 -85.5t-83.5 -39.5q-41 0 -65.5 25.5t-24.5 64.5z" />
<glyph unicode="f&#xfc;" horiz-adv-x="1642" d="M-557 -498q0 55 36 83t83 28l26 -2q-12 -27 -12 -51q0 -38 25 -60t73 -22q122 0 212.5 128.5t168.5 387.5l252 835h-155l14 50l170 34l18 56q58 175 155.5 314t235.5 225.5t291 86.5q74 0 129.5 -22t86 -59t45 -80t14.5 -91q0 -40 -12 -84.5t-42.5 -82t-72.5 -37.5 q-39 0 -63.5 20t-24.5 55q0 30 29.5 86.5t29.5 90.5q0 60 -38.5 91t-129.5 31q-284 0 -432 -473l-39 -127h279l-43 -102h-269l-170 -508q-29 -88 -59.5 -169t-73 -176.5t-86.5 -175t-100.5 -156.5t-114.5 -130t-128 -85t-142 -32q-85 0 -125.5 35.5t-40.5 87.5zM717 672 q28 52 59.5 97t73 89t91 70t99.5 26q39 0 58.5 -18t19.5 -62q0 -78 -69 -276l-123 -352q-25 -70 -25 -103q0 -39 31 -39q73 0 174.5 100.5t186 236.5t144.5 277.5t60 219.5q21 16 70 16q36 0 57 -19t21 -54q0 -21 -11 -58l-192 -592q-15 -50 -15 -65q0 -33 35.5 -45 t106.5 -12v-46q-22 -1 -60 -4.5t-138 -27.5t-179 -62q200 492 233 584h-8q-47 -86 -94.5 -163t-108.5 -156.5t-119 -136.5t-123.5 -93.5t-125.5 -36.5q-58 0 -83.5 26t-25.5 77q0 75 39 178l123 350q55 154 55 193q0 28 -30 28q-58 0 -176 -168zM1466 1229q0 47 34.5 86 t86.5 39q39 0 63.5 -25.5t24.5 -64.5q0 -46 -35.5 -85.5t-83.5 -39.5q-41 0 -65.5 25.5t-24.5 64.5z" />
<glyph unicode="ff&#xfc;" horiz-adv-x="2269" d="M-555 -498q0 55 36 83t83 28l26 -2q-12 -27 -12 -51q0 -38 25 -60t73 -22q122 0 212.5 128.5t168.5 387.5l252 835h-155l14 50l170 34l16 54q76 233 245 358t382 125q74 0 134 -19t91 -51q202 215 447 215q144 0 206 -67.5t62 -171.5q0 -45 -17 -94t-52 -86t-78 -37 q-38 0 -58 19.5t-20 55.5q0 30 29.5 86.5t29.5 90.5q0 63 -31 92.5t-120 29.5q-285 0 -433 -473l-38 -127h278l-43 -102h-268l-170 -508q-29 -88 -59.5 -169t-73 -176.5t-87 -175.5t-100.5 -156.5t-114.5 -129.5t-128.5 -85t-142 -32q-85 0 -125.5 35.5t-40.5 87.5 q0 55 36 83t83 28l27 -2q-12 -27 -12 -51q0 -38 25 -60t73 -22q122 0 212.5 128.5t168.5 387.5l246 817h-433l-170 -508q-29 -88 -59.5 -169t-73 -176.5t-86.5 -175t-100.5 -156.5t-114.5 -130t-128 -85t-142 -32q-85 0 -125.5 35.5t-40.5 87.5zM518 913h434l17 56 q40 123 110 239q-7 71 -58.5 111.5t-131.5 40.5q-105 0 -194.5 -76t-139.5 -246zM1343 672q28 51 60 96.5t73 89.5t91 70t100 26q39 0 58.5 -18t19.5 -62q0 -75 -70 -276l-123 -352q-24 -67 -24 -103q0 -39 31 -39q73 0 174.5 100.5t186 236.5t144.5 277.5t60 219.5 q20 16 69 16q36 0 57 -19t21 -54q0 -25 -10 -58l-193 -592q-14 -47 -14 -65q0 -33 35 -45t106 -12v-46q-22 -1 -60 -4.5t-137.5 -27.5t-178.5 -62q200 492 233 584h-8q-47 -86 -94.5 -163t-108.5 -156.5t-119 -136.5t-123.5 -93.5t-125.5 -36.5q-58 0 -83.5 26t-25.5 77 q0 75 39 178l123 350q55 154 55 193q0 28 -31 28q-58 0 -176 -168zM2077 1229q0 47 34.5 86t86.5 39q39 0 63.5 -25.5t24.5 -64.5q0 -46 -35.5 -85.5t-83.5 -39.5q-41 0 -65.5 25.5t-24.5 64.5z" />
<glyph unicode=" "  horiz-adv-x="477" />
<glyph unicode="&#x09;" horiz-adv-x="477" />
<glyph unicode="&#xa0;" horiz-adv-x="477" />
<glyph unicode="!" horiz-adv-x="585" d="M164 70q0 55 39.5 99t97.5 44q45 0 72.5 -28.5t27.5 -73.5q0 -55 -39.5 -99.5t-95.5 -44.5q-45 0 -73.5 29t-28.5 74zM322 383q12 37 24 96q28 127 42.5 426t51.5 432q18 63 56 94t84 31q45 0 72.5 -28.5t27.5 -73.5q0 -15 -4 -35q-26 -131 -133.5 -421.5t-136.5 -424.5 l-15 -96h-69z" />
<glyph unicode="&#x22;" horiz-adv-x="661" d="M246 922q8 28 14 55q19 89 19 217q0 115 16 178q9 36 32.5 58t57.5 22q29 0 46.5 -17t17.5 -44q0 -8 -5 -33q-15 -74 -65.5 -183t-69.5 -198l-8 -55h-55zM500 922q8 28 14 55q18 84 18 217q0 111 17 178q9 36 32.5 58t57.5 22q29 0 46 -17t17 -44q0 -13 -4 -33 q-15 -74 -65.5 -183t-69.5 -198l-8 -55h-55z" />
<glyph unicode="#" horiz-adv-x="1282" d="M121 334l59 119h226l190 372h-215l59 117h219l172 340h117l-170 -340h316l170 340h116l-170 -340h248l-59 -117h-254l-189 -372h240l-59 -119h-246l-166 -334h-115l166 334h-317l-168 -334h-117l168 334h-221zM522 453h320l186 372h-315z" />
<glyph unicode="$" horiz-adv-x="1044" d="M115 197q0 63 45 106.5t131 46.5q-15 -62 -15 -117q0 -92 47 -145t146 -53l164 518q-55 34 -95 65t-80.5 75t-61.5 98.5t-21 117.5q0 172 134.5 300t358.5 137l68 235h82l-74 -238q120 -5 205.5 -62.5t85.5 -141.5q0 -56 -50 -98.5t-128 -51.5q12 52 12 101 q0 151 -147 170l-154 -486q49 -27 84 -49t76.5 -56t66.5 -69t42.5 -83.5t17.5 -102.5q0 -132 -76.5 -237.5t-198 -160.5t-262.5 -55q-41 -133 -67 -229h-82l73 231q-149 0 -238 70.5t-89 163.5zM549 37q80 0 153 33t120.5 94.5t47.5 136.5q0 63 -44.5 116t-129.5 107 q-67 -218 -147 -487zM551 1018q0 -116 162 -211l133 459q-131 -4 -213 -75t-82 -173z" />
<glyph unicode="%" horiz-adv-x="1552" d="M225 -51q445 518 592 694l539 657h125q-437 -516 -582 -690l-547 -661h-127zM266 874q0 111 53.5 213.5t144.5 166t193 63.5q95 0 147 -60t52 -157q0 -111 -54 -212.5t-145.5 -163.5t-193.5 -62q-89 0 -143 56t-54 156zM410 895q0 -71 28.5 -111.5t73.5 -40.5 q48 0 87.5 36.5t63 91t36 109.5t12.5 99q0 69 -26 112.5t-77 43.5q-48 0 -88 -37.5t-63 -93t-35 -111t-12 -98.5zM834 141q0 111 53.5 213.5t144.5 166t193 63.5q95 0 146.5 -60t51.5 -157q0 -111 -54 -212.5t-145.5 -164t-193.5 -62.5q-89 0 -142.5 56.5t-53.5 156.5z M977 162q0 -71 28.5 -111.5t73.5 -40.5q48 0 87.5 36.5t63 91t36 109.5t12.5 99q0 69 -25.5 112.5t-76.5 43.5q-48 0 -88 -37.5t-63 -93t-35.5 -111t-12.5 -98.5z" />
<glyph unicode="&#x26;" horiz-adv-x="1497" d="M74 412q0 97 31.5 180.5t80 139t110 97t118 62.5t108.5 27q-98 98 -98 233q0 137 101.5 224t265.5 87q102 0 163.5 -50t61.5 -130q0 -73 -48.5 -119.5t-119.5 -46.5q-56 0 -92 25q69 62 69 141q0 102 -106 102q-28 0 -57 -13t-56 -39.5t-44 -76t-17 -114.5q0 -87 28 -219 q83 0 131 -31t48 -86q0 -36 -26 -57t-62 -21q4 16 4 41q0 102 -105 102q-89 0 -159 -61t-104 -147.5t-34 -174.5q0 -209 127 -308t357 -99q144 0 271 62.5t202 167t75 222.5q0 107 -62.5 191.5t-162.5 105.5q-168 -79 -168 -231q0 -56 37 -89.5t84 -33.5q32 0 59 12 q5 -20 5 -41q-1 -48 -37 -75t-90 -27q-88 0 -145.5 56.5t-57.5 144.5q0 62 23 114t62.5 89.5t90.5 70.5t107 61t112 55.5t107 59t90.5 68t62.5 86t23 108.5q0 50 -31 93t-84 61q31 64 104 64q83 0 132 -61.5t49 -141.5q0 -65 -21 -117.5t-54.5 -90t-88 -69.5t-110 -54 t-130.5 -44v-8q166 -119 166 -334q0 -155 -103 -291.5t-273 -216.5t-361 -80q-88 0 -169 16.5t-152.5 51.5t-124 86.5t-83 126t-30.5 164.5z" />
<glyph unicode="'" horiz-adv-x="407" d="M246 922q8 28 14 55q19 89 19 217q0 115 16 178q9 36 32.5 58t57.5 22q29 0 46.5 -17t17.5 -44q0 -8 -5 -33q-15 -74 -65.5 -183t-69.5 -198l-8 -55h-55z" />
<glyph unicode="(" horiz-adv-x="700" d="M219 414q0 162 50 319.5t126.5 280.5t184 239.5t205 197t206.5 153.5l27 -33q-323 -291 -478 -587t-155 -619q0 -184 49.5 -368t143.5 -331l-41 -33q-61 59 -115 137.5t-101 176.5t-74.5 219.5t-27.5 247.5z" />
<glyph unicode=")" horiz-adv-x="747" d="M14 -334q323 291 478 587t155 619q0 184 -49 368t-143 331l41 33q61 -59 115 -137.5t100.5 -176.5t74 -219.5t27.5 -247.5q0 -162 -50 -319.5t-126.5 -280.5t-184 -239.5t-205 -197t-206.5 -153.5z" />
<glyph unicode="*" horiz-adv-x="663" d="M236 1030q0 29 26 45q25 16 55 28t79.5 28.5t74.5 25.5q-25 9 -74.5 25.5t-79.5 28.5t-55 28q-26 16 -26 45q0 23 15 38t36 15q12 0 24 -6q78 -45 174 -141q-3 25 -11.5 76t-12.5 84t-4 63q0 20 14.5 34.5t34.5 14.5q23 0 38 -14t15 -35q0 -30 -4.5 -63t-14.5 -83.5 t-14 -76.5q96 96 174 141q12 6 25 6q21 0 36 -15t15 -38q0 -29 -26 -45q-25 -16 -55 -28t-79.5 -28.5t-74.5 -25.5q25 -9 74.5 -25.5t79.5 -28.5t55 -28q26 -16 26 -45q0 -23 -15 -38t-36 -15q-13 0 -25 6q-78 45 -174 141q4 -26 14 -76.5t14.5 -83.5t4.5 -63q0 -21 -15 -35 t-38 -14q-20 0 -34.5 14.5t-14.5 34.5q0 30 4 63t12.5 84t11.5 76q-96 -96 -174 -141q-12 -6 -24 -6q-21 0 -36 15t-15 38z" />
<glyph unicode="+" horiz-adv-x="935" d="M0 391v121h408v408h120v-408h406v-121h-406v-391h-120v391h-408z" />
<glyph unicode="," horiz-adv-x="548" d="M-57 -295q89 33 153 101.5t64 158.5q0 95 -68 131q10 48 44 82.5t81 34.5q51 0 82 -37t31 -94q0 -147 -114 -261t-267 -147z" />
<glyph unicode="-" horiz-adv-x="796" d="M127 475q94 71 235.5 136t270.5 65q49 0 76.5 -22t27.5 -56q0 -23 -12 -39q-280 -15 -584 -113z" />
<glyph unicode="." horiz-adv-x="548" d="M92 70q0 55 39.5 99t97.5 44q45 0 73 -28.5t28 -73.5q0 -55 -39.5 -99.5t-95.5 -44.5q-45 0 -74 29t-29 74z" />
<glyph unicode="/" horiz-adv-x="841" d="M-31 -344q379 675 543 973q73 133 201 376t219 420l92 177h135q-377 -675 -541 -973q-73 -133 -201.5 -376t-220.5 -420l-92 -177h-135z" />
<glyph unicode="0" horiz-adv-x="1208" d="M168 360q0 119 53 236.5t143.5 210.5t223.5 151t282 58q175 0 285.5 -107t110.5 -288q0 -119 -52.5 -236.5t-142.5 -210t-222.5 -150t-281.5 -57.5q-178 0 -288.5 105.5t-110.5 287.5zM385 389q0 -158 73 -249t185 -91q84 0 154 34t116.5 89t78.5 127t46.5 145.5 t14.5 145.5q0 158 -74.5 251t-185.5 93q-85 0 -156 -35.5t-116.5 -91.5t-77 -129t-45 -145.5t-13.5 -143.5z" />
<glyph unicode="1" horiz-adv-x="768" d="M94 0l15 59l61 9q162 21 203 204l96 428q17 73 -1.5 107.5t-66.5 40.5l-106 14l14 60q156 5 299 28q74 12 141 27t97 24l31 9l-3 -68l-77 -33q-77 -32 -117 -88.5t-66 -171.5l-100 -456q-13 -57 9.5 -88.5t76.5 -36.5l92 -9l-14 -59q-121 6 -287 6z" />
<glyph unicode="2" horiz-adv-x="993" d="M94 49l463 357q55 42 89.5 71t68.5 64t52.5 65t30 66t11.5 76q0 63 -40 108t-114 45q-110 0 -169.5 -65t-59.5 -154q0 -25 2 -33q-38 -12 -66 -12q-42 0 -67 23.5t-25 64.5q0 47 34 97.5t92 94t145.5 71.5t185.5 28q128 0 204.5 -66t76.5 -168q0 -49 -15.5 -95t-41.5 -87 t-73.5 -86.5t-97 -85t-128.5 -90.5t-152 -95t-181 -106l332 15q112 4 176.5 44t126.5 136l37 -10l-164 -322h-727z" />
<glyph unicode="3" horiz-adv-x="946" d="M-8 -387l6 68q182 13 336.5 75t246 159t91.5 206q0 82 -63.5 130t-168.5 48q-36 0 -72 -5t-54 -10l-19 -5l4 83q49 15 83 27t85.5 33.5t87 43t76 53.5t65.5 66.5t41.5 80.5t16.5 98q0 58 -35 97.5t-113 39.5q-109 0 -169 -65t-60 -154q0 -25 2 -33q-34 -12 -66 -12 q-41 0 -65.5 23.5t-24.5 64.5q0 47 33.5 97.5t91.5 94t146 71.5t186 28q129 0 200.5 -64.5t71.5 -160.5q0 -116 -106 -229.5t-299 -170.5v-8q37 6 74 6q118 0 190 -63.5t72 -161.5q0 -103 -47.5 -190.5t-131 -150.5t-196.5 -109t-243 -71t-273 -30z" />
<glyph unicode="4" horiz-adv-x="1146" d="M92 68l457 493q66 71 107.5 149t41.5 148q0 71 -30 111q47 47 110 47q55 0 85 -38t30 -95q0 -92 -61.5 -184t-227.5 -236l-377 -326h447l65 295l179 70l-82 -365h266l-27 -117h-266l-92 -415h-162l94 415h-540z" />
<glyph unicode="5" horiz-adv-x="962" d="M-98 -221q0 53 40 92t107 39q17 0 25 -2q-19 -59 -19 -86q0 -53 30.5 -87t98.5 -34q111 0 213 67t163 174.5t61 221.5q0 94 -50.5 162.5t-131.5 101.5t-183 33l219 530h410q149 0 256 172l39 -8l-154 -309h-530l-95 -232q189 0 304.5 -103.5t115.5 -272.5 q0 -164 -95.5 -308t-253 -228.5t-333.5 -84.5q-118 0 -177.5 50t-59.5 112z" />
<glyph unicode="6" horiz-adv-x="1095" d="M213 334q0 140 45.5 270t124 233.5t179.5 191.5t217.5 153t231.5 110t228 70l10 -59q-153 -48 -288.5 -130t-231.5 -178.5t-163 -196t-101 -194.5q19 2 76 34.5t130.5 63.5t137.5 31q116 0 194 -72t78 -200q0 -94 -35.5 -176t-92.5 -138.5t-128.5 -97.5t-145 -60.5 t-140.5 -19.5q-108 0 -183.5 52t-109 132.5t-33.5 180.5zM397 305q0 -121 49 -190.5t136 -69.5q119 0 207 109.5t88 255.5q0 95 -50 151.5t-133 56.5q-57 0 -136.5 -32.5t-111.5 -38.5q-49 -138 -49 -242z" />
<glyph unicode="7" horiz-adv-x="1017" d="M174 -201q0 108 66 208t282 325l504 526l-461 -18q-110 -4 -190 -63t-123 -144l-39 8l158 350h823l10 -35l-567 -655q-69 -80 -116 -145t-86.5 -154t-39.5 -166q0 -100 45 -164q-64 -43 -133 -43q-58 0 -95.5 48t-37.5 122z" />
<glyph unicode="8" horiz-adv-x="1038" d="M168 223q0 62 19 114.5t48.5 88t71 69.5t79 57t80.5 52t69 53q-94 79 -136.5 142t-42.5 145q0 115 68.5 207.5t180 142t241.5 49.5q135 0 224 -69t89 -180q0 -72 -26.5 -132t-71 -102t-87.5 -72t-91 -58.5t-66 -43.5q8 -5 21 -14.5t45.5 -41t58 -65t46 -85.5t20.5 -105 q0 -81 -34 -151t-87.5 -117t-121.5 -80.5t-135.5 -48.5t-129.5 -15q-143 0 -237.5 69.5t-94.5 190.5zM334 227q0 -85 50 -136.5t132 -51.5q111 0 200 75t89 181q0 52 -23 104.5t-55.5 91.5t-65.5 70.5t-56 47.5l-23 16q-21 -22 -60 -60.5t-60 -60t-49.5 -57t-42.5 -65 t-25 -70.5t-11 -85zM547 1016q0 -43 16.5 -82.5t51 -78.5t68 -68.5t87.5 -71.5q27 32 76 78t75.5 74.5t49 84.5t22.5 127q0 77 -46.5 131t-123.5 54q-110 0 -193 -71.5t-83 -176.5z" />
<glyph unicode="9" horiz-adv-x="1089" d="M68 -317q154 48 289.5 130t231.5 178.5t162.5 195t100.5 194.5q-19 -2 -76.5 -34.5t-131.5 -63.5t-138 -31q-115 0 -192.5 72t-77.5 200q0 94 35.5 176t92.5 138.5t128.5 97.5t144 60.5t139.5 19.5q109 0 185 -52t109.5 -132.5t33.5 -180.5q0 -167 -65.5 -319.5 t-170.5 -266t-242 -205.5t-275 -149.5t-275 -87.5zM438 575q0 -95 51 -151.5t136 -56.5q56 0 134 32.5t109 38.5q52 146 52 242q0 121 -49 190.5t-136 69.5q-119 0 -208 -110t-89 -255z" />
<glyph unicode=":" horiz-adv-x="548" d="M92 70q0 55 39.5 99t97.5 44q45 0 73 -28.5t28 -73.5q0 -55 -39.5 -99.5t-95.5 -44.5q-45 0 -74 29t-29 74zM225 705q0 55 39.5 99t97.5 44q45 0 73 -29t28 -74q0 -55 -39 -99t-96 -44q-45 0 -74 29t-29 74z" />
<glyph unicode=";" horiz-adv-x="548" d="M-57 -295q89 33 153 101.5t64 158.5q0 95 -68 131q10 48 44 82.5t81 34.5q51 0 82 -37t31 -94q0 -147 -114 -261t-267 -147zM225 705q0 55 39.5 99t97.5 44q45 0 73 -29t28 -74q0 -55 -39 -99t-96 -44q-45 0 -74 29t-29 74z" />
<glyph unicode="&#x3c;" horiz-adv-x="1136" d="M119 385v133l882 385v-141l-731 -311l731 -310v-141z" />
<glyph unicode="=" horiz-adv-x="935" d="M0 190v121h936v-121h-936zM0 590v121h936v-121h-936z" />
<glyph unicode="&#x3e;" horiz-adv-x="1116" d="M119 0v141l731 310l-731 311v141l882 -385v-131z" />
<glyph unicode="?" horiz-adv-x="821" d="M143 70q0 55 40 99t98 44q45 0 72.5 -28.5t27.5 -73.5q0 -55 -39.5 -99.5t-95.5 -44.5q-45 0 -74 29t-29 74zM297 565q0 65 28.5 121.5t73.5 97.5t100 79t110 74.5t100 75t73.5 89t28.5 108.5q0 57 -51 107.5t-137 50.5q-65 0 -103.5 -25t-38.5 -69q0 -16 3.5 -30 t7.5 -20l4 -7q-37 -15 -78 -15q-43 0 -73 26t-30 68q0 58 37 97t87 54t108 15q137 0 246.5 -88t109.5 -211q0 -71 -18 -130.5t-48.5 -102.5t-70 -79.5t-83.5 -66t-88 -57.5t-83.5 -58t-70 -63t-48.5 -78t-18 -98q0 -25 8 -45h-39q-47 73 -47 180z" />
<glyph unicode="@" horiz-adv-x="1607" d="M106 465q0 106 33.5 217.5t105.5 219.5t171 192t243 136t310 52q136 0 251 -41t192.5 -111.5t121 -164.5t43.5 -199q0 -126 -51 -233t-134 -176t-188 -107.5t-215 -38.5q-96 0 -96 88q0 18 3 37.5t9 40t10.5 34t12.5 34.5t10 26h-8q-117 -260 -281 -260q-67 0 -101 47.5 t-34 124.5q0 121 61.5 240t164 196.5t212.5 77.5q63 0 119 -45q9 28 32.5 57t55.5 29q33 0 60 -23q-43 -49 -127 -258t-84 -311q0 -25 6.5 -37t29.5 -12q63 0 124 15t119 50.5t101.5 87t70 131t26.5 177.5q0 195 -141.5 322.5t-393.5 127.5q-109 0 -207.5 -33t-173 -89.5 t-135.5 -130t-100 -156.5t-59.5 -167.5t-20.5 -164.5q0 -95 21.5 -180t70.5 -160.5t121.5 -130t181 -86t242.5 -31.5q136 0 246 38.5t163 84.5q3 -6 3 -14q0 -31 -40.5 -64t-104.5 -59t-152.5 -43t-176.5 -17q-335 0 -529 175.5t-194 484.5zM635 414q0 -61 15 -87t55 -26 q46 0 98.5 51t95.5 127.5t76.5 154t50.5 140.5q-28 66 -104 66q-77 0 -144.5 -65.5t-105 -163.5t-37.5 -197z" />
<glyph unicode="A" d="M-76 0l15 59l43 11q47 11 83.5 30.5t65.5 51t48 60t46 77.5l652 1155l137 22l116 -1276q4 -57 31 -84t86 -36l66 -11l-15 -59q-111 6 -256 6l-317 -6l14 59l43 11q153 30 153 165q0 9 -1 19l-21 283h-436l-147 -281q-2 -4 -10 -18.5t-10.5 -18.5t-8.5 -16t-8 -17 t-5.5 -14.5t-5 -16t-2.5 -14.5t-1 -16q0 -24 20 -36.5t63 -18.5l66 -11l-14 -59q-148 6 -244 6zM516 621h387l-53 602z" />
<glyph unicode="B" horiz-adv-x="1218" d="M20 0l15 59l43 11q85 20 128.5 65.5t63.5 134.5l219 961q9 45 9 59q0 35 -22.5 50.5t-72.5 23.5l-65 10l14 60q70 -7 250 -7q67 0 157.5 3.5t149.5 3.5q154 0 249 -85.5t95 -230.5q0 -74 -27.5 -137t-68 -103t-92.5 -70.5t-94 -45t-80 -21.5q52 -13 100 -40.5t91 -70 t68.5 -106t25.5 -139.5q0 -95 -42 -170t-114.5 -121t-164.5 -70t-198 -24q-200 6 -366 6q-77 0 -145 -1.5t-97 -2.5zM446 174q0 -55 40 -79.5t126 -24.5q74 0 139 19.5t116.5 57t81.5 99t30 139.5t-26 139t-64.5 96.5t-88.5 59t-93 31.5t-82 8l-58 -4l-108 -459 q-13 -52 -13 -82zM582 780q24 4 63 4q69 0 137 -12q118 15 201.5 104.5t83.5 233.5q0 108 -62.5 181t-183.5 73q-61 0 -108 -14z" />
<glyph unicode="C" horiz-adv-x="1390" d="M119 518q0 152 44.5 294.5t129.5 259.5t201 205t266.5 136.5t318.5 48.5q176 0 283.5 -70.5t107.5 -170.5q0 -70 -46 -119t-109 -49q-23 0 -43.5 4.5t-29.5 8.5l-9 5q24 60 24 119q0 77 -68 133.5t-208 56.5q-128 0 -236.5 -45.5t-185 -124t-130.5 -183.5t-79.5 -223.5 t-25.5 -244.5q0 -235 101 -372.5t267 -137.5q371 0 543 311l53 -14l-133 -301q-50 0 -116 -19.5t-160.5 -39t-212.5 -19.5q-257 0 -402 149.5t-145 401.5z" />
<glyph unicode="D" horiz-adv-x="1646" d="M16 0l15 59l43 11q85 20 128.5 65.5t63.5 134.5l219 961q9 45 9 59q0 35 -22.5 50.5t-72.5 23.5l-65 10l14 60q60 -7 240 -7q51 0 162 3.5t149 3.5q171 0 310.5 -46t229.5 -125.5t138.5 -185t48.5 -225.5q0 -258 -123 -451.5t-348.5 -297t-525.5 -103.5q-58 0 -169.5 3 t-172.5 3q-77 0 -145 -1.5t-97 -2.5zM436 174q0 -55 40 -79.5t126 -24.5q172 0 320.5 49.5t259.5 141.5t175 233.5t64 316.5q0 254 -143.5 403.5t-421.5 149.5q-86 0 -158 -14l-249 -1094q-13 -52 -13 -82z" />
<glyph unicode="E" horiz-adv-x="1157" d="M16 0l15 59l43 11q85 20 128.5 65.5t63.5 134.5l219 961q9 45 9 59q0 35 -22.5 50.5t-72.5 23.5l-65 10l14 60q107 -7 287 -7l653 7l-88 -336h-41q0 125 -72 195.5t-221 70.5q-98 0 -159 -14l-138 -576h158q83 0 133 38.5t90 119.5l39 80h53q-50 -145 -77 -262 q-13 -56 -22 -112.5t-12 -85.5l-3 -28h-51l-3 51q-3 119 -122 119h-203l-105 -438q-12 -48 -12 -82q0 -55 34.5 -79.5t111.5 -24.5q80 0 150.5 22t118.5 52.5t92 77.5t68 82.5t50 80.5l43 -6l-127 -379q-510 6 -686 6z" />
<glyph unicode="F" horiz-adv-x="1157" d="M16 0l15 59l43 11q85 20 128.5 65.5t63.5 134.5l219 961q9 45 9 59q0 35 -22.5 50.5t-72.5 23.5l-65 10l14 60q107 -7 287 -7l653 7l-90 -336h-41q0 266 -291 266q-98 0 -159 -14l-142 -594h152q84 0 137 39t92 118l39 80h53q-50 -145 -77 -262q-13 -56 -22 -112.5 t-12 -84.5l-3 -28h-52l-2 51q-3 119 -122 119h-203l-109 -473q-8 -40 -8 -60q0 -35 22 -50t72 -23l66 -11l-15 -59q-110 6 -286 6q-77 0 -145 -1.5t-97 -2.5z" />
<glyph unicode="G" horiz-adv-x="1509" d="M117 559q0 184 73.5 350.5t199.5 288t303.5 193t377.5 71.5q91 0 218 -28.5t177 -28.5l-102 -334l-33 4q0 47 -5.5 84t-25.5 81t-54 73t-97.5 49t-149.5 20q-122 0 -230.5 -44t-189 -122t-139 -181t-88.5 -224.5t-30 -249.5q0 -228 114.5 -371t298.5 -143q140 0 234.5 52 t122.5 163l43 170q6 18 6 35q0 37 -24 56t-81 26l-80 10l15 59h528l-12 -59l-31 -10q-116 -39 -164 -197l-75 -262q-39 0 -96.5 -19t-111.5 -42.5t-140.5 -42.5t-178.5 -19q-274 0 -423.5 149t-149.5 443z" />
<glyph unicode="H" horiz-adv-x="1689" d="M16 0l15 59l43 11q85 20 128.5 65.5t63.5 134.5l219 961q9 45 9 59q0 35 -22.5 50.5t-72.5 23.5l-65 10l14 60q107 -7 287 -7q75 0 142.5 1.5t97.5 3.5l30 2l-14 -60l-43 -10q-85 -20 -129 -66t-64 -135l-86 -379h740l102 447q8 40 8 59q0 35 -22 50.5t-72 23.5l-65 10 l14 60q107 -7 287 -7q75 0 142.5 1.5t97.5 3.5l30 2l-14 -60l-43 -10q-85 -20 -129 -66t-64 -135l-219 -960q-8 -40 -8 -60q0 -35 22 -50t72 -23l65 -11l-14 -59q-111 6 -287 6q-77 0 -144.5 -1.5t-96.5 -2.5l-29 -2l14 59l43 11q85 20 129 65.5t64 134.5l98 430h-741 l-113 -497q-8 -40 -8 -60q0 -35 22 -50t72 -23l66 -11l-15 -59q-110 6 -286 6q-77 0 -145 -1.5t-97 -2.5z" />
<glyph unicode="I" horiz-adv-x="763" d="M16 0l15 59l43 11q85 20 128.5 65.5t63.5 134.5l219 961q9 45 9 59q0 35 -22.5 50.5t-72.5 23.5l-65 10l14 60q107 -7 287 -7q75 0 142.5 1.5t97.5 3.5l30 2l-14 -60l-43 -10q-85 -20 -129 -66t-64 -135l-219 -960q-8 -40 -8 -60q0 -35 22 -50t72 -23l66 -11l-15 -59 q-110 6 -286 6q-77 0 -145 -1.5t-97 -2.5z" />
<glyph unicode="J" horiz-adv-x="1114" d="M-2 -307q0 45 32.5 70.5t69.5 25.5q19 0 27 -4q-10 -27 -10 -51q0 -43 30 -72t89 -29q42 0 82.5 19.5t84 63.5t84 129t70.5 204l121 477l-277 -53l-12 94l309 54l168 686h-8q-67 -76 -174 -76q-48 0 -100 24.5t-103.5 49t-99.5 24.5q-58 0 -98.5 -37t-40.5 -96 q0 -90 84 -90q21 0 39.5 6.5t30 15t19.5 17.5t11 15l4 7q59 -29 59 -98q0 -43 -36 -74.5t-107 -31.5q-72 0 -121 54.5t-49 131.5q0 115 96.5 203t221.5 88q48 0 89 -16t64.5 -35.5t56 -35.5t66.5 -16q35 0 70.5 23t65.5 55.5l60 65t66 55.5t72 23q30 0 56.5 -9t43 -22.5 t28.5 -26.5t18 -22l5 -9l-12 -53q-49 37 -110 37q-53 0 -66 -53l-180 -750l160 31v-90l-179 -35l-116 -444q-31 -117 -80.5 -214.5t-118.5 -174t-163.5 -119.5t-205.5 -43q-87 0 -136.5 35t-49.5 96z" />
<glyph unicode="K" horiz-adv-x="1519" d="M16 0l15 59l43 11q85 20 128.5 65.5t63.5 134.5l219 961q9 45 9 59q0 35 -22.5 50.5t-72.5 23.5l-65 10l14 60q107 -7 287 -7q75 0 142.5 1.5t97.5 3.5l30 2l-14 -60l-43 -10q-85 -20 -129 -66t-64 -135l-100 -436h162l512 543q22 22 22 47q0 39 -55 47l-59 10l14 60 q164 -7 281 -7l256 7l-15 -60l-69 -10q-161 -23 -285 -150l-463 -475l287 -526q40 -73 103.5 -114.5t139.5 -41.5l74 4l-8 -43q-68 -34 -172 -34q-117 0 -194.5 41t-127.5 137l-188 377q-53 104 -158 104q-52 0 -80 -16l-96 -424q-8 -40 -8 -60q0 -35 22 -50t72 -23l66 -11 l-15 -59q-110 6 -286 6q-77 0 -145 -1.5t-97 -2.5z" />
<glyph unicode="L" horiz-adv-x="1142" d="M16 0l15 59l43 11q85 20 128.5 65.5t63.5 134.5l219 961q9 45 9 59q0 35 -22.5 50.5t-72.5 23.5l-65 10l14 60q107 -7 287 -7q75 0 142.5 1.5t97.5 3.5l30 2l-14 -60l-43 -10q-85 -20 -129 -66t-64 -135l-219 -960q-8 -40 -8 -60q0 -73 94 -73q113 0 204.5 28t157 80 t110.5 110t85 134l43 -6l-125 -416q-501 4 -710 6q-77 0 -145 -1.5t-97 -2.5z" />
<glyph unicode="M" horiz-adv-x="1994" d="M-57 0l14 59l43 11q83 20 130 71t79 154l289 936q8 31 8 59q0 34 -21 48t-73 24l-66 12l14 60q176 -7 336 -7q-4 -16 -4 -36q0 -50 13 -103l237 -1055l711 1004q91 128 108 190q96 0 182.5 1.5t124.5 3.5l39 2l-14 -60l-43 -10q-82 -20 -132.5 -75t-59.5 -126l-138 -946 q-4 -32 -4 -47q0 -90 99 -100l96 -11l-15 -59q-159 8 -309 8q-72 0 -149.5 -2t-118.5 -4l-41 -2l14 59l43 11q97 23 147.5 73t67.5 152l136 831l-803 -1136l-64 -8l-264 1130l-246 -823q-26 -89 -26 -129t25 -61.5t83 -28.5l88 -11l-14 -59q-141 8 -309 8q-49 0 -102.5 -2 t-81.5 -4z" />
<glyph unicode="N" horiz-adv-x="1669" d="M16 0l15 59l43 11q85 20 128.5 65t63.5 135l219 961q9 36 9 59q0 35 -22.5 50.5t-72.5 23.5l-65 10l14 60q116 -7 330 -7q0 -57 43 -131l602 -1024l184 916q11 50 11 67q0 53 -31.5 77t-95.5 32l-88 10l14 60q149 -7 315 -7q57 0 113 1.5t83 3.5l27 2l-14 -60l-43 -10 q-85 -20 -128.5 -66t-63.5 -135l-258 -1173l-64 -8l-704 1189l-199 -856q-29 -136 -29 -155q0 -79 111 -90l92 -11l-14 -59q-172 6 -299 6z" />
<glyph unicode="O" horiz-adv-x="1556" d="M117 518q0 148 45 290t128.5 259t193 206.5t247 139t283.5 49.5q240 0 389 -147.5t149 -403.5q0 -148 -45 -290t-128.5 -259t-193 -206.5t-247 -139t-283.5 -49.5q-240 0 -389 147.5t-149 403.5zM322 559q0 -239 123 -375.5t309 -136.5q117 0 217 54.5t168 141.5 t116.5 196.5t70.5 219.5t22 211q0 239 -123.5 375.5t-309.5 136.5q-117 0 -217 -54.5t-167.5 -141.5t-116 -196.5t-70.5 -219.5t-22 -211z" />
<glyph unicode="P" horiz-adv-x="1222" d="M16 0l15 59l43 11q85 20 128.5 65.5t63.5 134.5l219 961q9 45 9 59q0 35 -22.5 50.5t-72.5 23.5l-65 10l14 60q107 -7 287 -7q41 0 119 3.5t133 3.5q177 0 290 -99.5t113 -267.5q0 -126 -67.5 -234t-173.5 -168.5t-220 -60.5q-73 0 -128 15t-92 30t-66 15l-107 -461 q-8 -40 -8 -60q0 -35 22 -50t72 -23l66 -11l-15 -59q-110 6 -286 6q-77 0 -145 -1.5t-97 -2.5zM563 725q24 0 91 -16.5t114 -16.5q91 0 167 55.5t117.5 141.5t41.5 178q0 131 -79.5 214t-197.5 83q-61 0 -108 -14z" />
<glyph unicode="Q" horiz-adv-x="1562" d="M-176 -322q0 40 16 74t60.5 65t77 51t114 48t120 40t142.5 42q100 29 152.5 45t150 49.5t153.5 59.5t139 70.5t132.5 87t107 104t88.5 127t52 150t21 179.5q0 239 -123 375.5t-309 136.5q-114 0 -224 -57t-190.5 -149.5t-130 -214.5t-49.5 -246q0 -49 5.5 -93t21.5 -90.5 t41.5 -79.5t68 -54t98.5 -21q58 0 106.5 23t78.5 59.5t46.5 80.5t16.5 89q0 110 -66 168q37 37 95 37q59 0 97 -40.5t38 -103.5q0 -74 -32 -140t-84.5 -112t-118.5 -79.5t-135.5 -49.5t-135.5 -16q-90 0 -158 27.5t-108.5 77t-60 113.5t-19.5 142q0 132 51 257.5 t139.5 223.5t202 173t244.5 115t260 40q240 0 389 -147t149 -404q0 -115 -22 -214.5t-55.5 -176.5t-93.5 -144t-115 -114t-143 -90.5t-153.5 -70t-171.5 -55.5t-172 -44t-177 -39q-224 -51 -308 -76l4 -6q79 21 152 21q90 0 212 -41.5t241.5 -100.5t234 -118t218 -100.5 t165.5 -41.5q86 0 143.5 40.5t57.5 123.5q0 76 -45 133q37 29 86 29q58 0 95.5 -34t37.5 -95q0 -56 -34 -103t-89 -76.5t-116.5 -52t-124 -34t-104 -16.5t-63.5 -5q-104 0 -230.5 43.5t-243.5 105t-231 123t-224.5 105t-190.5 43.5q-74 0 -131 -31t-57 -88q0 -25 11.5 -41 t33.5 -16q12 0 20 4q4 -12 4 -23q0 -26 -19 -40.5t-50 -14.5q-37 0 -59.5 29.5t-22.5 68.5z" />
<glyph unicode="R" horiz-adv-x="1386" d="M16 0l15 59l43 11q85 20 128.5 65.5t63.5 134.5l219 961q9 45 9 59q0 35 -22.5 50.5t-72.5 23.5l-65 10l14 60q107 -7 287 -7q48 0 119 3.5t125 3.5q177 0 294 -94t117 -246q0 -84 -28 -154.5t-70 -115t-99 -78.5t-105.5 -51t-98.5 -27q33 -29 52 -64t40 -92l88 -254 q35 -101 101.5 -153t142.5 -52q35 0 80 10l-11 -43q-63 -36 -184 -36q-139 0 -219 56.5t-111 178.5l-69 277q-21 80 -71 119.5t-114 39.5q-20 0 -39 -3.5t-29 -7.5l-9 -3l-101 -438q-8 -40 -8 -60q0 -35 22 -50t72 -23l66 -11l-15 -59q-110 6 -286 6q-77 0 -145 -1.5 t-97 -2.5zM549 696q64 41 143 41q34 0 67.5 -8t50.5 -16l17 -8q113 43 184.5 142.5t71.5 246.5q0 114 -78 192t-198 78q-62 0 -109 -14z" />
<glyph unicode="S" horiz-adv-x="997" d="M35 29l61 333h51v-32q0 -281 283 -281q139 0 226 73t87 185q0 65 -24 124t-63 105t-85.5 91.5t-93 93.5t-85.5 99t-63 119.5t-24 145.5q0 159 118 268t314 109q76 0 190 -21.5t183 -21.5l-96 -319h-60q9 45 9 71q0 93 -68.5 152t-192.5 59q-106 0 -170.5 -62.5 t-64.5 -154.5q0 -61 24 -115t63 -95.5t85.5 -83t93 -88t85.5 -98.5t63 -126t24 -160q0 -82 -31.5 -158.5t-91 -138t-156 -98.5t-216.5 -37q-76 0 -190 31t-185 31z" />
<glyph unicode="T" horiz-adv-x="1394" d="M193 1247q0 44 26 75.5t74.5 48.5t99 25.5t119.5 12.5l754 43q81 4 115 23.5t34 58.5q0 19 -7.5 42t-16.5 32q29 16 73 16q43 0 80 -25t37 -73q0 -169 -301 -172l-279 -4l-266 -1147q-8 -40 -8 -60q0 -35 22 -50t72 -23l66 -11l-15 -59q-110 6 -286 6q-77 0 -145 -1.5 t-97 -2.5l-29 -2l15 59l43 11q85 20 128.5 65.5t63.5 134.5l250 1078h-307q-77 0 -117.5 -25.5t-40.5 -62.5q0 -30 21 -62q-9 -17 -33 -27t-51 -10q-40 0 -67 21t-27 65z" />
<glyph unicode="U" horiz-adv-x="1628" d="M274 395q0 82 25 191l145 645q9 45 9 59q0 35 -22.5 50.5t-72.5 23.5l-65 10l14 60q107 -7 287 -7q75 0 142.5 1.5t97.5 3.5l30 2l-14 -60l-43 -10q-85 -20 -129 -66t-64 -135l-125 -534q-28 -128 -28 -215q0 -344 350 -344q105 0 182.5 32t132.5 100.5t91.5 159.5 t66.5 224l146 645q8 40 8 59q0 35 -22.5 50.5t-72.5 23.5l-65 10l14 60q119 -9 250 -9q58 0 117 2.5t89 4.5l30 2l-15 -60l-43 -10q-85 -20 -128.5 -66t-63.5 -135l-131 -585q-19 -82 -39 -148t-48 -131t-61.5 -113.5t-79.5 -90.5t-101 -69t-126 -42t-156 -15 q-235 0 -373.5 106.5t-138.5 319.5z" />
<glyph unicode="V" horiz-adv-x="1511" d="M229 1374l15 60q109 -9 248 -9q68 0 149 2.5t127 4.5l47 2l-14 -60l-43 -10q-70 -17 -97.5 -48t-27.5 -89q0 -23 4 -51l151 -930l525 942q35 65 35 102q0 35 -21 50.5t-70 23.5l-65 10l14 60q128 -7 267 -7q71 0 127.5 1.5t77.5 3.5l20 2l-15 -60l-43 -10 q-65 -15 -116.5 -60t-106.5 -141l-690 -1188l-63 -8l-228 1221q-19 97 -46.5 131.5t-94.5 44.5z" />
<glyph unicode="W" horiz-adv-x="2230" d="M229 1374l15 60q201 -9 262 -9l309 9l-14 -60l-43 -10q-58 -12 -97.5 -46.5t-39.5 -90.5q0 -15 4 -51l102 -926l471 938q33 68 33 102q0 37 -23 52t-67 22l-66 10l15 60q119 -7 315 -7l76 -1183l540 919q45 83 45 127q0 35 -20 50.5t-70 23.5l-65 10l14 60q137 -7 266 -7 l226 5l-15 -58l-43 -10q-65 -15 -111.5 -58.5t-107.5 -142.5l-735 -1188l-64 -8l-67 1145l-615 -1137l-63 -8l-158 1227q-11 80 -43 120t-100 50z" />
<glyph unicode="X" horiz-adv-x="1507" d="M16 0l21 59l43 11q67 15 127 58t151 142l390 418l-263 574q-23 48 -60 69t-99 33l-50 10l15 60q112 -7 280 -7q88 0 158 1.5t97 3.5l26 2l-14 -60l-39 -10q-53 -13 -84 -33t-31 -59q0 -10 3.5 -23.5t7 -22.5t10 -24t8.5 -20l164 -373l329 369q80 89 80 131q0 43 -82 55 l-65 10l14 60q90 -7 285 -7q64 0 121 1.5t83 3.5l25 2l-20 -60l-43 -10q-67 -15 -127.5 -58.5t-151.5 -142.5l-407 -438l253 -553q23 -48 60 -69t100 -33l49 -11l-14 -59q-113 6 -281 6q-88 0 -158 -1.5t-96 -2.5l-26 -2l14 59l39 11q53 13 84 33t31 59q0 10 -3.5 23.5 t-7 22.5t-10 24t-8.5 20l-156 352l-311 -348q-80 -89 -80 -131q0 -43 82 -55l66 -11l-15 -59q-89 6 -284 6q-64 0 -121.5 -1.5t-82.5 -2.5z" />
<glyph unicode="Y" horiz-adv-x="1423" d="M246 1352q36 46 92.5 78t120.5 32q49 0 90 -14.5t71 -38t54.5 -62t40 -76t29.5 -91.5t21.5 -97.5t16.5 -103.5l39 -268q6 15 24 55.5t55 112t80.5 146.5t102 154.5t118 141.5t130.5 101.5t137 39.5q63 0 101.5 -32t38.5 -91q0 -43 -35.5 -75.5t-71.5 -32.5q-12 0 -18 2 q2 8 2 18q0 26 -19 46t-61 20q-70 0 -164.5 -90t-175 -212t-141 -233t-80.5 -168l-94 -411q-9 -45 -9 -60q0 -35 22.5 -50t72.5 -23l65 -11l-14 -59q-111 6 -287 6q-77 0 -144.5 -1.5t-96.5 -2.5l-29 -2l14 59l43 11q85 20 129 65.5t64 134.5l84 365l-52 285 q-15 80 -25.5 130.5t-25.5 106t-31.5 87t-39 59.5t-51.5 39.5t-66 11.5t-62.5 -11.5t-54.5 -37.5z" />
<glyph unicode="Z" horiz-adv-x="1329" d="M-10 29l1184 1319l-447 -13q-74 -2 -134.5 -17t-100.5 -36.5t-73.5 -56t-53.5 -66t-41 -74.5l-50 7l119 374h58q0 -1 1 -3.5t6.5 -8t14 -9.5t27 -7.5t43.5 -3.5h874l17 -45l-1178 -1305l397 6q73 1 134.5 11.5t107.5 25t88.5 42.5t71 52.5t63 67t55.5 74l57 85.5 q7 11 11 17l49 -12l-170 -453h-1122z" />
<glyph unicode="[" horiz-adv-x="765" d="M88 -260l406 1757q156 0 293.5 28t211.5 79q12 -5 21.5 -20t9.5 -32q0 -33 -22.5 -57.5t-59 -37t-72.5 -18t-71 -5.5q-31 0 -70 3t-63 6l-23 3l-381 -1653q90 12 160 12q41 0 78 -7.5t67.5 -29t30.5 -55.5q0 -27 -18.5 -50t-40.5 -28q-51 51 -175.5 78t-281.5 27z" />
<glyph unicode="\" horiz-adv-x="841" d="M420 1602h135q36 -675 63 -973l95 -973h-135q-37 675 -64 973z" />
<glyph unicode="]" horiz-adv-x="765" d="M23 -313q0 33 22.5 57t59 36.5t72.5 18.5t71 6q31 0 70 -3t62 -6l23 -3l381 1653q-91 -12 -161 -12q-30 0 -58.5 4.5t-56.5 14.5t-45 28.5t-17 44.5t19 48t43 30q51 -51 176 -79t281 -28l-406 -1757q-157 0 -294.5 -27t-211.5 -78q-13 4 -21.5 19t-8.5 33z" />
<glyph unicode="^" horiz-adv-x="1138" d="M137 889l379 745h109l376 -745h-139l-293 596l-293 -596h-139z" />
<glyph unicode="_" horiz-adv-x="1159" d="M-10 -410l30 119h1033l-31 -119h-1032z" />
<glyph unicode="`" horiz-adv-x="714" d="M285 1421q0 32 22.5 58t63.5 26q154 -231 344 -424l-10 -26q-75 19 -173 80t-172.5 142t-74.5 144z" />
<glyph unicode="a" horiz-adv-x="978" d="M70 199q0 122 49 249t128.5 226t188 162t219.5 63q37 0 69.5 -11t49 -22t39.5 -30q12 38 42.5 77t76.5 39q44 0 78 -30q-33 -38 -99.5 -183.5t-125 -322.5t-58.5 -269q0 -45 39 -45q78 0 190 185l31 -21q-20 -47 -48.5 -94.5t-67.5 -96.5t-88.5 -79.5t-100.5 -30.5 q-107 0 -107 117q0 26 4 52.5t13 56t14 45t17.5 47t13.5 34.5h-8q-18 -37 -29 -59.5t-35 -63.5t-44.5 -68t-52 -60.5t-62.5 -53t-72 -33.5t-84 -14q-90 0 -135 64.5t-45 169.5zM229 240q0 -82 21.5 -118t75.5 -36q61 0 130.5 70t126.5 173.5t101.5 209t67.5 190.5 q-39 92 -138 92q-102 0 -192.5 -89.5t-141.5 -223.5t-51 -268z" />
<glyph unicode="b" horiz-adv-x="966" d="M92 207q0 116 55 258l299 807q15 45 15 67q0 32 -31.5 45t-99.5 13v45q22 1 60 4.5t138 27.5t179 62l-359 -946h8q32 61 71 117t93 115.5t120.5 95.5t133.5 36q94 0 144.5 -52.5t50.5 -153.5q0 -99 -34.5 -208.5t-98 -210t-144.5 -182.5t-183.5 -131t-205.5 -49 q-110 0 -160.5 65t-50.5 175zM240 162q0 -62 25.5 -90.5t80.5 -28.5q73 0 145 48.5t126.5 124.5t97 165.5t64.5 176t22 151.5q0 66 -23 97.5t-76 31.5q-82 0 -192.5 -117t-190 -279t-79.5 -280z" />
<glyph unicode="c" horiz-adv-x="808" d="M92 215q0 99 32 204.5t92.5 200t139 170t180 120t207.5 44.5q61 0 105.5 -27.5t44.5 -84.5t-40 -94t-93 -37q-17 0 -29 4q12 35 12 57q0 84 -104 84q-69 0 -130.5 -40.5t-106 -106.5t-77.5 -147.5t-49 -165t-16 -158.5q0 -74 34.5 -114t96.5 -40q89 0 169 57.5t140 139.5 l31 -23q-19 -38 -41.5 -74t-58 -77t-75.5 -70.5t-94 -49.5t-112 -20q-258 0 -258 248z" />
<glyph unicode="d" horiz-adv-x="1077" d="M72 176q0 82 24.5 173t67.5 176.5t105.5 164t134 137t157.5 93t172 34.5q47 0 83.5 -16t53.5 -37l127 371q15 45 15 67q0 32 -31.5 45t-99.5 13v45q22 1 60 4.5t137.5 27.5t178.5 62l-423 -1200q-52 -143 -52 -191q0 -43 41 -43q27 0 58.5 19.5t64.5 58t50 60t44 59.5 l31 -23q-27 -53 -59.5 -101t-77 -98.5t-98 -81t-107.5 -30.5q-51 0 -75.5 25.5t-24.5 93.5q0 15 1.5 31t6.5 35.5t8 32.5t11 36.5t11 32.5t12 35t11 30h-8q-21 -41 -46 -81.5t-66 -91.5t-85 -88t-103 -63t-120 -26q-190 0 -190 209zM231 215q0 -127 105 -127q65 0 144 64 t145.5 161t111.5 222.5t45 236.5q0 46 -22 72t-60 26q-62 0 -124 -33t-112.5 -87.5t-94.5 -124t-74 -142.5t-47 -143t-17 -125z" />
<glyph unicode="e" horiz-adv-x="827" d="M90 215q0 89 27 189t81.5 197.5t127.5 176.5t173 127.5t210 48.5q81 0 119 -41.5t38 -99.5q0 -118 -142 -208.5t-435 -166.5q-31 -109 -31 -200q0 -65 34 -109.5t107 -44.5q87 0 174 64t134 133l30 -23q-15 -26 -31 -51t-55.5 -72.5t-81 -81t-103.5 -60t-126 -26.5 q-122 0 -186 65t-64 183zM305 494q404 119 404 305q0 35 -18.5 54t-51.5 19q-60 0 -117 -40.5t-99.5 -105t-70 -120.5t-47.5 -112z" />
<glyph unicode="f" horiz-adv-x="626" d="M-557 -498q0 55 36 83t83 28l26 -2q-12 -27 -12 -51q0 -38 25 -60t73 -22q122 0 212.5 128.5t168.5 387.5l252 835h-155l14 50l170 34l18 56q58 175 155.5 314t235.5 225.5t291 86.5q115 0 174.5 -38t59.5 -97q0 -50 -38.5 -84.5t-90.5 -34.5q-36 0 -70 17q19 34 19 63 q0 84 -152 84q-122 0 -215.5 -114.5t-167.5 -350.5l-39 -127h279l-43 -102h-269l-170 -508q-29 -88 -59.5 -169t-73 -176.5t-86.5 -175t-100.5 -156.5t-114.5 -130t-128 -85t-142 -32q-85 0 -125.5 35.5t-40.5 87.5z" />
<glyph unicode="g" horiz-adv-x="897" d="M-86 -274q0 77 44.5 124.5t109.5 47.5q34 0 56.5 -16.5t25.5 -39.5q-41 -7 -69 -35.5t-28 -80.5q0 -77 71.5 -133t194.5 -56q77 0 136 18t90.5 47.5t47 61.5t15.5 66q0 65 -44.5 100.5t-153.5 67.5q-33 10 -44.5 13.5t-41.5 13.5t-42 15.5t-36.5 16.5t-35 20t-26.5 23.5 t-23 28.5t-12.5 32.5t-5.5 38.5q0 75 56.5 120.5t130.5 55.5q-66 20 -106 75.5t-40 142.5q0 112 54.5 218t150 174t203.5 68q50 0 84 -12.5t69 -44.5q58 -12 105 -12q84 0 143 41q35 -26 35 -66q0 -36 -24 -59t-68 -23q-39 0 -91 28t-59 30q21 -47 21 -121 q0 -108 -49.5 -208t-136 -165t-187.5 -74q-151 -26 -151 -108q0 -40 47.5 -64.5t154.5 -56.5q147 -42 209 -105.5t62 -162.5q0 -135 -129 -222.5t-334 -87.5q-172 0 -275.5 73t-103.5 192zM332 508q0 -91 28.5 -136.5t79.5 -45.5q56 0 100.5 41.5t69 104t37 125t12.5 116.5 q0 84 -27.5 133t-84.5 49q-45 0 -82.5 -28t-61.5 -71t-40.5 -96.5t-23.5 -102t-7 -89.5z" />
<glyph unicode="h" horiz-adv-x="1040" d="M100 39q0 22 11 59l397 1174q14 42 14 67q0 32 -31.5 45t-99.5 13v45q22 1 60 4.5t138 27.5t179 62q-129 -339 -244.5 -643t-156.5 -411t-43 -113h8q56 112 120.5 212t139 186t156 136.5t155.5 50.5q58 0 83.5 -25.5t25.5 -76.5q0 -73 -39 -180l-123 -348 q-55 -154 -55 -193q0 -29 30 -29q58 0 176 168l31 -22q-28 -51 -59.5 -96t-73 -89t-91 -70t-99.5 -26q-39 0 -58.5 18t-19.5 60q0 81 69 279l123 350q25 73 25 102q0 41 -31 41q-73 0 -174.5 -100.5t-186 -236t-144.5 -277t-60 -219.5q-25 -17 -74 -17q-36 0 -57 19.5 t-21 52.5z" />
<glyph unicode="i" horiz-adv-x="571" d="M100 45q0 84 52 225l149 420q14 37 14 66q0 33 -31 45t-100 12v45q22 1 60 4.5t138 27.5t179 62l-242 -628q-55 -146 -55 -193q0 -29 27 -29q35 0 118.5 73t120.5 126l31 -20q-36 -65 -96.5 -135t-140.5 -124.5t-146 -54.5q-39 0 -58.5 18t-19.5 60zM489 1337q0 47 34 86 t83 39q38 0 62 -25t24 -63q0 -47 -34 -86t-83 -39q-38 0 -62 25t-24 63z" />
<glyph unicode="j" horiz-adv-x="557" d="M-342 -393q51 44 164 90t155 86q50 46 82 105t62 155l209 645q12 48 12 68q0 33 -34 45t-105 12v45q22 1 60 4.5t138 27.5t179 62l-275 -852q-44 -137 -98.5 -228.5t-147.5 -158.5q-50 -36 -119 -54.5t-142 -37t-128 -53.5zM489 1337q0 47 34 86t83 39q38 0 62 -25 t24 -63q0 -47 -34 -86t-83 -39q-38 0 -62 25t-24 63z" />
<glyph unicode="k" horiz-adv-x="1091" d="M90 39q0 26 10 59l400 1174q14 42 14 67q0 32 -31.5 45t-99.5 13v45q22 1 60 4.5t138 27.5t179 62q-447 -1166 -447 -1167h9q58 121 121 220.5t136.5 184.5t157.5 132.5t168 47.5q53 0 92 -16t59 -42t29 -51.5t9 -51.5q0 -256 -449 -365l29 -104q39 -146 96.5 -207.5 t149.5 -61.5q56 0 118 25l15 -21q-3 -4 -8.5 -10t-24.5 -22.5t-40.5 -29t-56 -22.5t-71.5 -10q-133 0 -204 75.5t-107 248.5l-31 147q61 18 128.5 47t137 69t114 91.5t44.5 101.5q0 72 -86 72q-74 0 -161.5 -65.5t-164 -167t-141 -215t-102 -218t-37.5 -167.5 q-25 -17 -74 -17q-36 0 -57 19.5t-21 52.5z" />
<glyph unicode="l" horiz-adv-x="626" d="M127 102q0 59 35 166l340 1004q14 42 14 67q0 32 -31.5 45t-99.5 13v45q22 1 60 4.5t138 27.5t179 62l-414 -1198q-49 -140 -49 -184q0 -43 41 -43q87 0 217 190l31 -22q-28 -53 -60 -100.5t-76.5 -99t-98 -82t-107.5 -30.5q-52 0 -85.5 32t-33.5 103z" />
<glyph unicode="m" horiz-adv-x="1550" d="M90 39q0 26 10 59l187 592q14 42 14 66q0 33 -31 45t-100 12v45q22 1 60 4.5t138 27.5t179 62q-219 -540 -234 -583h9q47 86 95 163t108.5 156.5t118.5 136.5t123.5 93t125.5 36q58 0 83 -25.5t25 -76.5q0 -75 -47 -199q-31 -79 -59 -145t-43.5 -99t-17.5 -40h8 q47 86 95 163t108.5 156.5t118.5 136.5t123.5 93t125.5 36q58 0 83.5 -25.5t25.5 -76.5q0 -73 -39 -180l-123 -348q-55 -154 -55 -193q0 -29 30 -29q58 0 176 168l31 -22q-28 -51 -59.5 -96t-73 -89t-91 -70t-99.5 -26q-39 0 -58.5 18t-19.5 60q0 81 69 279l123 350 q25 73 25 102q0 41 -31 41q-73 0 -174.5 -100.5t-186 -236t-144.5 -277t-60 -219.5q-25 -17 -74 -17q-36 0 -57 19.5t-21 52.5q0 22 11 59q66 235 192 576q25 73 25 102q0 41 -31 41q-73 0 -174.5 -100.5t-186 -236t-144.5 -277t-60 -219.5q-25 -17 -74 -17q-36 0 -57 19.5 t-21 52.5z" />
<glyph unicode="n" horiz-adv-x="1083" d="M90 39q0 26 10 59l187 592q14 47 14 66q0 33 -31 45t-100 12v45q22 1 60 4.5t138 27.5t179 62q-219 -540 -234 -583h9q47 86 95 163t108.5 156.5t118.5 136.5t123.5 93t125.5 36q58 0 83 -25.5t25 -76.5q0 -76 -38 -180l-123 -348q-56 -157 -56 -193q0 -29 31 -29 q58 0 176 168l31 -22q-28 -51 -59.5 -96t-73 -89t-91.5 -70t-100 -26q-39 0 -58 17.5t-19 60.5q0 81 69 279l123 350q25 73 25 102q0 41 -31 41q-73 0 -174.5 -100.5t-186 -236t-144.5 -277t-60 -219.5q-25 -17 -74 -17q-36 0 -57 19.5t-21 52.5z" />
<glyph unicode="o" horiz-adv-x="890" d="M92 252q0 90 27.5 189t79 189.5t119 163.5t155 116.5t178.5 43.5q110 0 175 -75.5t65 -210.5q0 -114 -44 -237.5t-117 -226.5t-179.5 -170t-220.5 -67q-109 0 -173.5 76t-64.5 209zM260 274q0 -231 129 -231q66 0 130 62t107.5 153.5t70 196.5t26.5 192q0 230 -129 230 q-88 0 -167.5 -103.5t-123 -242t-43.5 -257.5z" />
<glyph unicode="p" horiz-adv-x="1048" d="M-270 -600l47 14q91 27 142.5 84t90.5 166l383 1061q-53 -24 -111 -57t-90 -54l-32 -22l-19 49q115 88 279 168l65 201q26 78 69.5 117.5t113.5 39.5q34 0 69 -14q-29 -33 -63.5 -105t-53.5 -128l-20 -56q69 35 182 35q127 0 198 -71t71 -183q0 -83 -31.5 -178 t-89.5 -182.5t-132 -159.5t-167 -115t-187 -43q-51 0 -91 14.5t-54 34.5l-139 -374q-31 -87 -31 -140q0 -38 22.5 -57.5t79.5 -28.5l99 -16v-51h-600v51zM354 143q0 -4 2 -11t10.5 -24t21 -30t38.5 -24t59 -11q75 0 150 59.5t129 147t87.5 189.5t33.5 186q0 29 -3.5 54.5 t-14.5 52.5t-28.5 46t-47 31t-68.5 12q-33 0 -71.5 -10.5t-60.5 -20.5l-22 -10z" />
<glyph unicode="q" horiz-adv-x="1015" d="M90 176q0 124 54.5 261.5t142.5 252t212.5 189.5t252.5 75q102 0 151 -69q10 47 52 79.5t92 32.5q35 0 57 -16q-34 -41 -59 -99t-80 -212l-367 -1028q-31 -87 -31 -140q0 -38 23 -57.5t80 -28.5l98 -16v-51h-600v51l47 14q85 26 137.5 83.5t96.5 166.5l260 653h-9 q-21 -42 -46 -82t-66 -91t-84.5 -88t-102.5 -63t-120 -26q-191 0 -191 209zM250 215q0 -65 25 -96t79 -31q65 0 144 64t145.5 161t112 222.5t45.5 236.5q0 46 -22 72t-60 26q-62 0 -124 -33t-112.5 -87.5t-94.5 -124t-74 -142.5t-47 -143t-17 -125z" />
<glyph unicode="r" horiz-adv-x="843" d="M109 51q0 27 6 47l166 588q14 49 14 70q0 33 -31 45t-100 12v45q22 1 60 4.5t138 27.5t179 62q-219 -540 -234 -583h8q5 12 14.5 33t39.5 81.5t62 115.5t79 122.5t92.5 116t101.5 81.5t107 33q62 0 96.5 -34t34.5 -87q0 -58 -39.5 -89t-87.5 -31l-14 2q4 12 4 26 q0 24 -16.5 44t-57.5 20q-56 0 -124.5 -65t-128.5 -165t-111 -211.5t-81 -214t-30 -163.5q-25 -15 -74 -15q-34 0 -53.5 23.5t-19.5 58.5z" />
<glyph unicode="s" horiz-adv-x="686" d="M8 76q0 52 36.5 83t86.5 31l21 -2q-13 -23 -13 -45q0 -31 31 -51t72 -20q76 0 122 32.5t46 104.5q0 46 -17.5 90.5t-43 82.5t-51 77t-43 90.5t-17.5 107.5q0 82 53.5 152t129 107.5t148.5 37.5q86 0 135.5 -32.5t49.5 -83.5q0 -47 -34 -80t-89 -33q-17 0 -33 4 q10 20 10 41q0 88 -106 88q-73 0 -113.5 -44.5t-40.5 -98.5q0 -42 20.5 -83.5t50 -78.5t59.5 -76.5t50.5 -91.5t20.5 -109q0 -70 -36 -130.5t-91 -98.5t-117 -59t-119 -21q-48 0 -85 8.5t-65 34t-28 66.5z" />
<glyph unicode="t" horiz-adv-x="673" d="M100 94q0 80 33 172l201 576l-111 4l6 59l138 29l53 145q41 117 145 117q21 0 42 -7.5t28 -14.5q-21 -21 -48 -82.5t-44 -112.5l-17 -51h260l-36 -90h-254l-138 -373q-90 -244 -90 -303q0 -39 35 -39q49 0 117.5 69.5t130.5 159.5l35 -20q-26 -51 -65 -108.5t-90 -117.5 t-111 -99.5t-113 -39.5q-52 0 -79.5 32.5t-27.5 94.5z" />
<glyph unicode="u" horiz-adv-x="1015" d="M90 672q28 51 60 96.5t73 89.5t91 70t100 26q39 0 58.5 -18t19.5 -62q0 -75 -70 -276l-123 -352q-25 -70 -25 -103q0 -39 31 -39q73 0 174.5 100.5t186 236.5t144.5 277.5t60 219.5q21 16 70 16q36 0 57 -19t21 -54q0 -25 -10 -58l-193 -592q-14 -47 -14 -65 q0 -33 35 -45t106 -12v-46q-22 -1 -60 -4.5t-138 -27.5t-179 -62q208 511 234 584h-8q-47 -86 -95 -163t-108.5 -156.5t-119 -137t-124 -93.5t-125.5 -36q-58 0 -83 25.5t-25 77.5q0 75 39 178l122 350q56 157 56 193q0 28 -31 28q-58 0 -176 -168z" />
<glyph unicode="v" horiz-adv-x="917" d="M72 629q4 28 15.5 65t35 83.5t53 85t74 65t94.5 26.5q86 0 86 -129q0 -70 -13 -243t-27 -311l-13 -138q76 0 173.5 92t167.5 227.5t70 247.5q0 53 -22.5 90t-67.5 44q9 54 44.5 86t82.5 32q60 0 95.5 -39.5t35.5 -101.5q0 -88 -50 -206t-137.5 -238.5t-225 -229.5 t-293.5 -168l-23 21q37 591 43 788q0 41 -26 41q-71 0 -140 -194z" />
<glyph unicode="w" horiz-adv-x="1411" d="M72 629q4 28 15.5 65t35 83.5t53 85t74 65t94.5 26.5q86 0 86 -129q0 -70 -13 -243t-27 -311l-13 -138q85 2 178.5 99.5t156 249.5t62.5 296q0 41 -26 41q-71 0 -140 -194l-33 4q4 27 16 64.5t35 84t53 85t74.5 65t94.5 26.5q86 0 86 -129q0 -70 -13 -243t-27 -311 l-13 -138q76 0 173.5 92t167.5 227.5t70 247.5q0 53 -22.5 90t-67.5 44q9 54 44.5 86t82.5 32q60 0 95.5 -39.5t35.5 -101.5q0 -88 -50 -206t-137.5 -238.5t-225 -229.5t-293.5 -168l-23 21q11 221 23 416q-81 -149 -212.5 -265t-291.5 -172l-23 21q37 591 43 788 q0 41 -26 41q-71 0 -140 -194z" />
<glyph unicode="x" horiz-adv-x="1122" d="M-2 61q0 46 34 78.5t60 32.5q0 -53 58 -53q42 0 97.5 34t105 82.5t93.5 97t70 82.5l25 34l-13 126q-32 242 -90 242q-22 0 -49.5 -24t-50.5 -58.5t-43 -69.5t-31 -59l-12 -24l-31 24q5 14 13.5 37.5t38 83.5t61.5 106t82 83.5t102 37.5q31 0 57.5 -35t41.5 -85t26 -100 t15 -85l4 -35q7 14 20 36.5t55 81t85.5 103t107.5 81t125 36.5q58 0 91.5 -28t33.5 -74q0 -55 -47.5 -88t-90.5 -33q5 20 5 27q0 25 -16.5 39t-47.5 14q-38 0 -83 -29t-83 -70.5t-70 -82.5t-51 -70l-18 -29l20 -144q45 -275 103 -275q33 0 69.5 39t61.5 83.5t55 108.5 l39 -10q-15 -46 -28.5 -83t-33 -81.5t-40.5 -77.5t-46 -62t-55 -44t-63 -15q-45 0 -82.5 40.5t-58.5 98.5t-35.5 116.5t-19.5 99.5l-5 40q-5 -8 -14.5 -22.5t-40 -55.5t-61 -78t-74.5 -83t-85.5 -78.5t-89 -55t-88.5 -22.5q-47 0 -77.5 22.5t-30.5 71.5z" />
<glyph unicode="y" horiz-adv-x="999" d="M-297 -389q0 44 26.5 73.5t65.5 39.5q19 -66 109 -66q146 0 280.5 79.5t173.5 160.5q13 30 13 176q0 90 -7 212t-14.5 206.5t-17.5 181t-10 98.5q-3 47 -25 47q-26 0 -53 -28t-47 -68.5t-29.5 -63t-13.5 -34.5l-33 4q4 28 15.5 65t35 83.5t53 85t74 65t94.5 26.5 q49 0 65.5 -33t20.5 -94q23 -414 23 -821q137 131 248.5 340t111.5 354q0 51 -22.5 89t-67.5 45q9 54 44.5 86t82.5 32q60 0 95.5 -39.5t35.5 -101.5q0 -91 -56 -225.5t-148 -279t-216.5 -289t-254 -258.5t-268 -185.5t-251.5 -71.5q-61 0 -97 29.5t-36 79.5z" />
<glyph unicode="z" horiz-adv-x="1030" d="M45 45q0 35 16.5 70t40 63t66.5 63.5t77.5 60t92.5 63.5q28 19 109 73t136 91.5t131 95t134 108.5l-6 6q-43 -16 -90 -16q-63 0 -185 50t-176 50q-39 0 -68.5 -22t-29.5 -62q0 -44 30.5 -65t79.5 -21q-7 -47 -40 -74.5t-78 -27.5q-49 0 -76 31.5t-27 74.5q0 78 55.5 146 t129 103.5t137.5 35.5q56 0 111.5 -21.5t92 -48t80.5 -48t80 -21.5q42 0 78 34t52.5 66.5t19.5 50.5q21 0 36 -10.5t15 -30.5q0 -33 -23 -71t-68.5 -80.5t-80.5 -71t-93.5 -72.5t-72.5 -55q-86 -67 -257.5 -178t-235.5 -164l6 -6q23 14 61 14q57 0 123.5 -24t115.5 -53.5 t103 -53.5t90 -24q71 0 113.5 28.5t42.5 83.5q0 36 -23.5 61t-66.5 25q-21 0 -33 -6q0 56 38.5 88.5t80.5 32.5q51 0 80.5 -27.5t29.5 -78.5q0 -49 -27 -105t-72 -104.5t-110.5 -80.5t-134.5 -32q-61 0 -115.5 18.5t-93 44.5t-73.5 52t-71.5 44.5t-72.5 18.5 q-33 0 -55 -23.5t-22 -52.5q0 -37 24 -71q-27 -23 -61 -23q-31 0 -50.5 22t-19.5 56z" />
<glyph unicode="{" horiz-adv-x="659" d="M158 -133q0 71 29 153.5t63 146.5t63 143.5t29 144.5q0 137 -135 137h-43l12 53h43q170 0 217 199q17 76 23.5 228.5t25.5 234.5q17 77 60 137t97 93.5t107 50t101 16.5q56 0 82 -18t26 -44q0 -22 -16.5 -37t-38.5 -20q-10 45 -74 45q-50 0 -94.5 -42t-62.5 -120 q-21 -87 -46 -246.5t-46 -253.5q-14 -59 -45.5 -106.5t-71.5 -76t-79 -45t-77 -22.5q66 -11 116 -60t50 -136q0 -43 -39 -155t-78 -238.5t-39 -206.5q0 -56 26 -85.5t65 -29.5q66 0 96 45q33 -12 33 -41q0 -30 -36.5 -54t-105.5 -24q-40 0 -80 13.5t-76 40t-58.5 73.5 t-22.5 107z" />
<glyph unicode="|" horiz-adv-x="452" d="M41 -512q205 856 252 1057l235 1057h134q-207 -858 -252 -1057l-236 -1057h-133z" />
<glyph unicode="}" horiz-adv-x="659" d="M-12 -305q0 22 16.5 37t38.5 20q10 -45 74 -45q50 0 94.5 42t62.5 120q21 87 46.5 246.5t46.5 253.5q14 59 45.5 106.5t71.5 76t78.5 44.5t76.5 22q-65 11 -115.5 60.5t-50.5 136.5q0 43 39 155t78 238.5t39 206.5q0 56 -25.5 85.5t-64.5 29.5q-67 0 -97 -45 q-32 12 -32 41q0 30 36 54t105 24q40 0 80 -13.5t76 -40t58.5 -73.5t22.5 -107q0 -70 -28.5 -153t-62.5 -147t-62.5 -143.5t-28.5 -144.5q0 -137 133 -137h43l-12 -53h-43q-170 0 -217 -199q-17 -76 -23.5 -228.5t-25.5 -234.5q-17 -77 -60 -137t-97 -93.5t-107 -50 t-101 -16.5q-56 0 -82 18t-26 44z" />
<glyph unicode="~" horiz-adv-x="1136" d="M199 442q43 96 129.5 161t197.5 65q60 0 115 -22t90.5 -48t85.5 -48t101 -22q64 0 125 34t100 95l41 -34q-43 -99 -130.5 -162.5t-209.5 -63.5q-56 0 -108.5 21t-86.5 45.5t-82.5 45.5t-99.5 21q-66 0 -127.5 -31.5t-99.5 -90.5z" />
<glyph unicode="&#xa1;" horiz-adv-x="585" d="M33 -365q0 15 4 35q26 131 133.5 421.5t136.5 424.5l15 96h69q-12 -37 -24 -96q-28 -127 -43 -426t-52 -432q-18 -63 -55.5 -94t-83.5 -31q-45 0 -72.5 28.5t-27.5 73.5zM311 885q0 55 39 99t96 44q46 0 74.5 -29t28.5 -73q0 -55 -39.5 -99.5t-97.5 -44.5q-45 0 -73 29 t-28 74z" />
<glyph unicode="&#xa2;" horiz-adv-x="806" d="M90 215q0 116 45 239.5t121 227t186 177t230 89.5l112 336h76q-64 -160 -119 -330q61 0 105.5 -27.5t44.5 -84.5t-40 -94t-93 -37q-17 0 -29 4q12 35 12 57q0 84 -104 84q-69 0 -130.5 -40.5t-106 -106.5t-77.5 -147.5t-49 -165t-16 -158.5q0 -74 34.5 -114t96.5 -40 q89 0 169 57.5t140 139.5l31 -23q-23 -46 -52.5 -88.5t-72 -88t-101 -76t-122.5 -36.5l-102 -305h-76q55 141 112 305q-225 15 -225 246z" />
<glyph unicode="&#xa3;" horiz-adv-x="1458" d="M82 29q0 32 34 53.5t89 21.5q74 0 170 -36q62 45 114 163.5t68 294.5h-233v37q57 2 118 15.5t93 26.5l32 13l31 232q16 123 68.5 221t127.5 158.5t163.5 92.5t183.5 32q113 0 197.5 -46.5t84.5 -117.5q0 -49 -36 -80t-89 -31q-62 0 -114 39q26 43 26 84q0 72 -102 72 q-43 0 -81.5 -16.5t-77 -54t-70 -109t-52.5 -170.5l-61 -301h397v-93h-415q-60 -314 -304 -487q98 -39 201.5 -100t169.5 -106t143 -79t144 -34q51 0 78.5 28.5t27.5 81.5q0 72 -73 133q34 43 90 43q51 0 82.5 -35.5t31.5 -78.5q0 -108 -92 -190.5t-246 -82.5 q-67 0 -129.5 16t-118.5 44t-122 78.5t-126 105.5t-145 139q-116 -41 -167 -41q-111 0 -111 64z" />
<glyph unicode="&#xa5;" horiz-adv-x="1286" d="M293 317l20 86q9 0 123 -3t223 -3l29 127q-133 -2 -348 -2l20 86q17 0 121 -3.5t199 -4.5l-176 567q-12 40 -34.5 58.5t-70.5 25.5l-59 9l12 55q132 -6 238 -6l241 6l-12 -55l-35 -9q-75 -16 -75 -88q0 -23 6 -47l139 -481l352 481q45 56 45 86q0 40 -53 49l-55 9l12 55 q117 -6 207 -6q48 0 92 1.5t64 3.5l20 1l-12 -55l-39 -9q-60 -13 -97 -37t-73 -71l-412 -543l348 8l-20 -86q-168 2 -373 2l-29 -127l375 6l-20 -86q-168 2 -373 2l-31 -133q-14 -62 5.5 -88.5t74.5 -34.5l62 -8l-13 -55q-117 6 -264 6l-250 -6l13 55l51 8q126 21 164 185 l16 71q-133 -2 -348 -2z" />
<glyph unicode="&#xa6;" horiz-adv-x="450" d="M-2 -510q123 556 195 877h110l-184 -877h-121zM272 727l187 877h127q-129 -559 -201 -877h-113z" />
<glyph unicode="&#xa7;" horiz-adv-x="1157" d="M61 -233q0 54 40.5 90.5t97.5 36.5q49 0 73 -21q-26 -33 -26 -70q0 -31 24.5 -52t77.5 -21q100 0 177 75t77 179q0 62 -33.5 139t-81.5 153t-96 157t-81.5 178.5t-33.5 189.5q0 137 62.5 261t164.5 211t236 138t273 51q104 0 155.5 -37.5t51.5 -93.5q0 -55 -41 -97 t-99 -42q-50 0 -73 20q26 33 26 70q0 31 -24 52.5t-76 21.5q-100 0 -178 -74t-78 -178q0 -62 33.5 -138t81 -151.5t95.5 -156t81.5 -178t33.5 -191.5q0 -133 -62 -257.5t-163.5 -213t-236 -142t-273.5 -53.5q-101 0 -153 43t-52 101zM424 881q0 -85 32 -173.5t78 -164.5 t92.5 -151t78.5 -157.5t32 -158.5q0 -91 -47 -170.5t-129 -138.5q133 50 214 177.5t81 276.5q0 76 -23 152.5t-58 137t-75.5 127t-75.5 122.5t-58 123t-23 129q0 186 174 307q-127 -47 -210 -171t-83 -267z" />
<glyph unicode="&#xa8;" horiz-adv-x="571" d="M330 1229q0 47 34.5 86t86.5 39q39 0 63.5 -25.5t24.5 -64.5q0 -46 -35 -85.5t-84 -39.5q-41 0 -65.5 25.5t-24.5 64.5zM711 1229q0 47 34.5 86t85.5 39q39 0 64 -25.5t25 -64.5q0 -46 -35.5 -85.5t-83.5 -39.5q-41 0 -65.5 25.5t-24.5 64.5z" />
<glyph unicode="&#xa9;" horiz-adv-x="1746" d="M184 715q0 152 59 290t159 237.5t238 158.5t290 59t290 -59t237.5 -158.5t158.5 -237.5t59 -290t-59 -290t-158.5 -238t-237.5 -159t-290 -59q-203 0 -374.5 100t-271.5 271.5t-100 374.5zM305 715q0 -176 83.5 -325.5t227.5 -236.5t314 -87q169 0 313 87t227.5 236.5 t83.5 325.5t-83.5 325.5t-227.5 236.5t-313 87q-170 0 -314 -87t-227.5 -236.5t-83.5 -325.5zM514 694q0 117 50 216.5t152.5 163t239.5 63.5q55 0 152.5 -26t126.5 -26v-196h-39q-9 80 -80 133t-182 53q-123 0 -200 -96t-77 -248q0 -184 89 -276.5t233 -92.5q97 0 157.5 61 t82.5 161l36 -2l-26 -246q-37 0 -127 -21.5t-158 -21.5q-89 0 -165 23t-136 70t-94.5 126t-34.5 182z" />
<glyph unicode="&#xaa;" horiz-adv-x="681" d="M141 485l23 105q170 -6 330 -6q76 0 160.5 2t130.5 4l46 2l-22 -105q-160 5 -338 5zM285 877q0 85 36 171.5t93.5 153t136 108.5t158.5 42q65 0 108 -37q31 78 88 78q35 0 60 -29q-41 -49 -120 -239t-79 -283q0 -31 18 -31q25 0 52 23t44 46.5t40 61.5l30 -18 q-14 -33 -35 -68.5t-50 -70.5t-66 -57.5t-74 -22.5q-36 0 -58 21.5t-22 66.5q0 34 19 98h-11q-100 -186 -231 -186q-68 0 -102.5 47.5t-34.5 124.5zM410 903q0 -56 13.5 -80t49.5 -24q55 0 119.5 78t109.5 172t70 178q-29 63 -94 63q-71 0 -134 -59t-98.5 -148t-35.5 -180z " />
<glyph unicode="&#xab;" horiz-adv-x="899" d="M131 485l426 451l57 -105l-378 -342q36 -29 72 -64.5t75.5 -82t63.5 -99t24 -98.5q0 -53 -37 -87.5t-72 -34.5q-35 96 -92.5 211.5t-97.5 183.5zM530 485l381 404l54 -94l-340 -308q45 -35 88.5 -79t83 -109t39.5 -119q0 -48 -32.5 -79t-64.5 -31q-16 51 -68.5 155 t-96.5 182z" />
<glyph unicode="&#xac;" horiz-adv-x="933" d="M0 590v121h936v-555h-131v434h-805z" />
<glyph unicode="&#xad;" horiz-adv-x="796" d="M127 475q94 71 235.5 136t270.5 65q49 0 76.5 -22t27.5 -56q0 -23 -12 -39q-280 -15 -584 -113z" />
<glyph unicode="&#xae;" horiz-adv-x="798" d="M182 1274q0 145 99.5 244.5t244.5 99.5q142 0 243 -100t101 -244q0 -141 -101.5 -242.5t-242.5 -101.5q-149 0 -246.5 100.5t-97.5 243.5zM242 1274q0 -122 81.5 -207.5t202.5 -85.5q120 0 201.5 86t81.5 207q0 123 -81.5 209t-201.5 86q-122 0 -203 -86t-81 -209z M371 1092v20l16 2q31 6 31 57v224q0 23 -6 32.5t-21 14.5l-20 4v20q40 -4 73 -4q18 0 43 2t37 2q56 0 90.5 -25.5t34.5 -68.5q0 -22 -8 -40t-19.5 -28.5t-23 -17.5t-19.5 -10l-8 -2q13 -9 25 -27l61 -100q18 -33 62 -33l18 2v-18q-18 -11 -43 -11q-36 0 -58 12t-46 48 l-60 90q-12 23 -32 23l-17 -3v-110q0 -30 29 -33l20 -2v-20q-44 2 -79 2zM481 1282q18 12 35 12l25 -6q34 23 34 84q0 35 -19 52.5t-44 17.5q-7 0 -31 -6v-154z" />
<glyph unicode="&#xaf;" horiz-adv-x="657" d="M342 1204l25 113q145 -6 278 -6l279 6l-25 -113q-128 6 -278 6z" />
<glyph unicode="&#xb0;" horiz-adv-x="669" d="M246 1202q0 110 74.5 185t183.5 75t183.5 -75t74.5 -185q0 -107 -74.5 -181.5t-183.5 -74.5t-183.5 74.5t-74.5 181.5zM336 1202q0 -69 49.5 -119.5t118.5 -50.5t117.5 50.5t48.5 119.5q0 73 -48.5 124.5t-117.5 51.5t-118.5 -51.5t-49.5 -124.5z" />
<glyph unicode="&#xb1;" horiz-adv-x="933" d="M0 0v121h934v-121h-934zM0 524v121h408v289h120v-289h406v-121h-406v-293h-120v293h-408z" />
<glyph unicode="&#xb2;" horiz-adv-x="731" d="M199 694l241 191q51 40 90 73.5t91.5 84.5t86.5 95t58.5 95.5t24.5 95.5q0 55 -30.5 92t-92.5 37q-63 0 -103.5 -37t-40.5 -88q0 -16 2 -20q-43 -13 -61 -13q-33 0 -51.5 16t-18.5 44q0 62 89 119t225 57q114 0 174.5 -51t60.5 -135q0 -42 -16.5 -86t-42.5 -83t-66 -82 t-78.5 -76.5t-88.5 -72.5t-87.5 -65.5t-83.5 -58.5q-11 -7 -16 -11l-62 -43l314 10q82 2 137 97l37 -5l-100 -215h-588z" />
<glyph unicode="&#xb3;" horiz-adv-x="675" d="M233 735q0 36 30.5 60t70.5 24q26 0 45 -8q-17 -24 -17 -47q0 -28 19.5 -43.5t56.5 -15.5q94 0 162 68t68 157q0 76 -63 116.5t-167 40.5v52q293 75 293 237q0 34 -21.5 58t-62.5 24q-54 0 -88.5 -36.5t-34.5 -80.5q0 -12 4 -28q-23 -13 -63 -13q-34 0 -54 16t-20 44 q0 62 84.5 119t220.5 57q88 0 138.5 -41.5t50.5 -103.5q0 -83 -70.5 -143.5t-179.5 -90.5v-10q85 -12 137.5 -64t52.5 -127q0 -139 -116.5 -228t-298.5 -89q-77 0 -127 27t-50 69z" />
<glyph unicode="&#xb4;" horiz-adv-x="509" d="M469 1081q190 193 344 424q41 0 63.5 -26t22.5 -58q0 -63 -74.5 -144t-172.5 -142t-173 -80z" />
<glyph unicode="&#xb5;" horiz-adv-x="1015" d="M-76 -408q0 26 17 82q34 115 115.5 328t93.5 246l122 350q56 157 56 193q0 28 -31 28q-58 0 -176 -168l-31 21q28 51 60 96.5t73 89.5t91 70t100 26q39 0 58.5 -18t19.5 -62q0 -75 -70 -276l-123 -352q-25 -70 -25 -103q0 -39 31 -39q73 0 174.5 100.5t186 236.5 t144.5 277.5t60 219.5q21 16 70 16q36 0 57 -19t21 -54q0 -25 -10 -58l-193 -592q-14 -47 -14 -65q0 -33 35 -45t106 -12v-46q-22 -1 -60 -4.5t-138 -27.5t-179 -62q208 511 234 584h-8q-47 -86 -95 -163t-108.5 -156.5t-119 -137t-124 -93.5t-125.5 -36q-56 0 -72 33 q-31 -68 -53 -161t-22 -158q0 -61 32 -82q-12 -30 -44.5 -54t-65.5 -24q-31 0 -50.5 18t-19.5 53z" />
<glyph unicode="&#xb6;" horiz-adv-x="1181" d="M61 -199q0 63 40 106.5t106 43.5q57 0 82 -31q-30 -22 -49 -60t-19 -79q0 -76 98 -76q210 0 316 475l90 404q-21 -2 -68 -2q-368 0 -368 290q0 258 160 410t419 152q86 0 183 -3.5t141 -3.5q60 0 116 1.5t82 3.5l27 2l-16 -60l-41 -10q-142 -35 -180 -201l-183 -817 q-42 -186 -113.5 -327t-163.5 -227t-198 -128.5t-225 -42.5q-98 0 -167 48t-69 132zM518 -252q240 95 324 494l243 1108h-92l-248 -1129q-40 -181 -90 -289t-137 -184z" />
<glyph unicode="&#xb7;" horiz-adv-x="423" d="M113 575q0 55 39.5 99.5t97.5 44.5q45 0 72.5 -29t27.5 -74q0 -55 -39 -99t-96 -44q-45 0 -73.5 28.5t-28.5 73.5z" />
<glyph unicode="&#xb8;" horiz-adv-x="452" d="M76 -395q0 39 28.5 63.5t63.5 24.5q25 0 35 -10q-35 -23 -35 -58q0 -22 18 -37.5t58 -15.5q43 0 79.5 29t36.5 69q0 25 -14 47.5t-30 37.5t-30 41.5t-14 58.5q0 54 52 101t100 56h35q-33 -16 -58.5 -45t-25.5 -65q0 -23 17 -44.5t38 -36.5t38 -39.5t17 -53.5 q0 -64 -49.5 -114.5t-111.5 -73.5t-117 -23q-59 0 -95 24t-36 64z" />
<glyph unicode="&#xb9;" horiz-adv-x="565" d="M260 659l12 54l60 10q97 17 119 119l133 573q-79 -45 -152 -45q-24 0 -36.5 10.5t-12.5 26.5q0 21 20 33q67 10 163.5 40.5t156.5 59.5l22 -4l-174 -752q-7 -31 4.5 -43.5t45.5 -17.5l63 -10l-12 -54q-103 5 -201 5z" />
<glyph unicode="&#xba;" horiz-adv-x="659" d="M141 485l23 105q125 -6 285 -6q76 0 155.5 2t120.5 4l41 2l-23 -105q-139 5 -317 5q-69 0 -140.5 -2t-107.5 -4zM315 897q0 76 30 158.5t80 151t122 113t149 44.5q78 0 123 -51.5t45 -141.5q0 -104 -50 -211t-141 -181t-194 -74q-73 0 -118.5 51.5t-45.5 140.5zM440 909 q0 -145 80 -145q59 0 112 67t82 158.5t29 171.5q0 142 -84 142q-59 0 -111 -67t-80 -157.5t-28 -169.5z" />
<glyph unicode="&#xbb;" horiz-adv-x="899" d="M41 164l340 307q-45 35 -88.5 79t-83 109t-39.5 119q0 50 28.5 80.5t67.5 30.5q16 -75 68 -179t96 -170l45 -67l-383 -403zM391 127l377 342q-36 30 -71 64.5t-74.5 81.5t-63.5 99.5t-24 98.5q0 55 34 89t74 34q26 -93 84 -208.5t103 -185.5l44 -69l-425 -450z" />
<glyph unicode="&#xbc;" horiz-adv-x="1583" d="M244 586l12 53l59 10q97 17 119 119l133 573q-79 -45 -151 -45q-24 0 -36.5 10.5t-12.5 26.5q0 21 20 33q67 10 163.5 40.5t156.5 59.5l22 -4l-174 -751q-7 -31 4 -44t45 -18l64 -10l-13 -53q-102 4 -200 4zM324 -139q175 243 583 829.5t631 923.5l90 -45 q-282 -388 -669.5 -951.5t-542.5 -803.5zM913 266l283 289q129 132 129 248q0 37 -10 57q27 17 59 17q44 0 70 -28t26 -65q0 -31 -14 -62.5t-48 -71t-64 -69t-89 -83.5l-194 -183h239l39 177l150 67l-55 -244h174l-21 -86h-174l-29 -120q-5 -23 6 -32.5t33 -13.5l50 -10 l-13 -53h-330l13 51l49 12q27 6 42.5 21t22.5 45l23 100h-356z" />
<glyph unicode="&#xbd;" horiz-adv-x="1648" d="M244 586l12 53l59 10q97 17 119 119l133 573q-79 -45 -151 -45q-24 0 -36.5 10.5t-12.5 26.5q0 21 20 33q67 10 163.5 40.5t156.5 59.5l22 -4l-174 -751q-7 -31 4 -44t45 -18l64 -10l-13 -53q-102 4 -200 4zM311 -139q178 248 585 833t630 920l90 -45 q-283 -389 -671.5 -953.5t-541.5 -801.5zM965 35l241 190q350 278 350 445q0 55 -30 92t-92 37q-64 0 -104 -37t-40 -88q0 -13 2 -21q-40 -12 -61 -12q-34 0 -53 15.5t-19 43.5q0 62 89.5 119.5t226.5 57.5q114 0 174.5 -51t60.5 -136q0 -57 -31 -119t-77.5 -114 t-112 -107.5t-121.5 -96.5t-119 -85l-18 -12l-62 -43l314 10q82 2 137 96l37 -4l-101 -215h-587z" />
<glyph unicode="&#xbe;" horiz-adv-x="1585" d="M217 662q0 36 30 59.5t70 23.5q26 0 45 -8q-16 -22 -16 -47q0 -28 19.5 -43.5t56.5 -15.5q94 0 161.5 68t67.5 157q0 76 -62.5 117t-166.5 41v51q293 75 293 238q0 34 -21.5 57.5t-62.5 23.5q-54 0 -88.5 -36t-34.5 -80q0 -13 4 -29q-21 -12 -63 -12q-34 0 -54 15.5 t-20 43.5q0 62 84.5 119t220.5 57q88 0 138 -41.5t50 -103.5q0 -83 -70.5 -143.5t-179.5 -90.5v-10q85 -12 138 -63.5t53 -126.5q0 -139 -117 -228.5t-299 -89.5q-77 0 -126.5 27t-49.5 70zM324 -139q175 243 583 829.5t631 923.5l90 -45q-280 -384 -666 -945.5t-546 -809.5 zM911 266l283 289q129 132 129 248q0 37 -10 57q27 17 59 17q44 0 70 -28t26 -65q0 -31 -14 -62.5t-48 -71t-64 -69t-89 -83.5l-194 -183h239l39 177l150 67l-55 -244h174l-21 -86h-174l-29 -120q-5 -23 6 -32.5t33 -13.5l49 -10l-12 -53h-330l13 51l49 12q27 6 42.5 21 t22.5 45l23 100h-356z" />
<glyph unicode="&#xbf;" horiz-adv-x="808" d="M102 -168q0 71 18 130.5t48.5 102.5t70.5 79.5t84 66t87.5 57.5t83.5 58t70.5 63t48.5 78t18 98q0 25 -8 45h39q47 -73 47 -180q0 -65 -28.5 -121.5t-73.5 -97.5t-100 -79t-110 -74.5t-100 -75t-73.5 -89t-28.5 -108.5q0 -57 51 -107.5t137 -50.5q65 0 103 25t38 69 q0 16 -3.5 30.5t-6.5 20.5l-4 7q35 14 78 14q42 0 72 -26t30 -68q0 -58 -37 -97t-86.5 -54t-107.5 -15q-137 0 -247 88t-110 211zM625 885q0 55 39 99t96 44q45 0 73.5 -28.5t28.5 -73.5q0 -55 -39.5 -99.5t-97.5 -44.5q-45 0 -72.5 29t-27.5 74z" />
<glyph unicode="&#xc0;" d="M-76 0l15 59l43 11q47 11 83.5 30.5t65.5 51t48 60t46 77.5l652 1155l137 22l116 -1276q4 -57 31 -84t86 -36l66 -11l-15 -59q-111 6 -256 6l-317 -6l14 59l43 11q163 32 152 184l-21 283h-436l-147 -281q-2 -4 -10 -18.5t-10.5 -18.5t-8.5 -16t-8 -17t-5.5 -14.5t-5 -16 t-2.5 -14.5t-1 -16q0 -24 20 -36.5t63 -18.5l66 -11l-14 -59q-148 6 -244 6zM516 621h387l-53 602zM766 1837q0 29 17 47.5t42 18.5q10 0 25 -5q79 -158 225 -311l-14 -18q-55 17 -121 56.5t-120 99t-54 112.5z" />
<glyph unicode="&#xc1;" d="M-76 0l15 59l43 11q47 11 83.5 30.5t65.5 51t48 60t46 77.5l652 1155l137 22l116 -1276q4 -57 31 -84t86 -36l66 -11l-15 -59q-111 6 -256 6l-317 -6l14 59l43 11q163 32 152 184l-21 283h-436l-147 -281q-2 -4 -10 -18.5t-10.5 -18.5t-8.5 -16t-8 -17t-5.5 -14.5t-5 -16 t-2.5 -14.5t-1 -16q0 -24 20 -36.5t63 -18.5l66 -11l-14 -59q-148 6 -244 6zM516 621h387l-53 602zM918 1587q146 153 225 311q15 5 24 5q25 0 42.5 -18.5t17.5 -47.5q0 -53 -54 -112.5t-120 -99t-121 -56.5z" />
<glyph unicode="&#xc2;" d="M-76 0l15 59l43 11q47 11 83.5 30.5t65.5 51t48 60t46 77.5l652 1155l137 22l116 -1276q4 -57 31 -84t86 -36l66 -11l-15 -59q-111 6 -256 6l-317 -6l14 59l43 11q163 32 152 184l-21 283h-436l-147 -281q-2 -4 -10 -18.5t-10.5 -18.5t-8.5 -16t-8 -17t-5.5 -14.5t-5 -16 t-2.5 -14.5t-1 -16q0 -24 20 -36.5t63 -18.5l66 -11l-14 -59q-148 6 -244 6zM516 621h387l-53 602zM627 1597l393 281q139 -166 266 -285q-1 -23 -18.5 -36t-40.5 -13q-64 0 -128 71t-100 169l-272 -246z" />
<glyph unicode="&#xc3;" d="M-76 0l15 59l43 11q47 11 83.5 30.5t65.5 51t48 60t46 77.5l652 1155l137 22l116 -1276q4 -57 31 -84t86 -36l66 -11l-15 -59q-111 6 -256 6l-317 -6l14 59l43 11q163 32 152 184l-21 283h-436l-147 -281q-2 -4 -10 -18.5t-10.5 -18.5t-8.5 -16t-8 -17t-5.5 -14.5t-5 -16 t-2.5 -14.5t-1 -16q0 -24 20 -36.5t63 -18.5l66 -11l-14 -59q-148 6 -244 6zM516 621h387l-53 602zM682 1626q35 88 99 141.5t145 53.5q42 0 78 -15.5t58 -34t55 -34t69 -15.5q107 0 166 105l22 -33q-35 -90 -99 -142.5t-153 -52.5q-40 0 -75 15.5t-55.5 34t-53 34 t-68.5 15.5q-106 0 -163 -105z" />
<glyph unicode="&#xc4;" d="M-76 0l15 59l43 11q47 11 83.5 30.5t65.5 51t48 60t46 77.5l652 1155l137 22l116 -1276q4 -57 31 -84t86 -36l66 -11l-15 -59q-111 6 -256 6l-317 -6l14 59l43 11q163 32 152 184l-21 283h-436l-147 -281q-2 -4 -10 -18.5t-10.5 -18.5t-8.5 -16t-8 -17t-5.5 -14.5t-5 -16 t-2.5 -14.5t-1 -16q0 -24 20 -36.5t63 -18.5l66 -11l-14 -59q-148 6 -244 6zM516 621h387l-53 602zM696 1712q0 47 34.5 86t86.5 39q39 0 63.5 -25.5t24.5 -64.5q0 -46 -35 -85.5t-84 -39.5q-41 0 -65.5 25.5t-24.5 64.5zM1102 1712q0 47 34.5 86t86.5 39q39 0 63.5 -25.5 t24.5 -64.5q0 -46 -35.5 -85.5t-83.5 -39.5q-41 0 -65.5 25.5t-24.5 64.5z" />
<glyph unicode="&#xc5;" d="M-76 0l15 59l43 11q47 11 83.5 30.5t65.5 51t48 60t46 77.5l652 1155l137 22l116 -1276q4 -57 31 -84t86 -36l66 -11l-15 -59q-111 6 -256 6l-317 -6l14 59l43 11q163 32 152 184l-21 283h-436l-147 -281q-2 -4 -10 -18.5t-10.5 -18.5t-8.5 -16t-8 -17t-5.5 -14.5t-5 -16 t-2.5 -14.5t-1 -16q0 -24 20 -36.5t63 -18.5l66 -11l-14 -59q-148 6 -244 6zM516 621h387l-53 602zM778 1694q0 99 83.5 179.5t201.5 80.5q72 0 118 -43t46 -115q0 -99 -84 -179.5t-203 -80.5q-72 0 -117 42t-45 116zM872 1718q0 -52 31 -82t76 -30q53 0 88.5 26.5t49 62 t13.5 77.5q0 52 -30 82t-76 30q-74 0 -113 -49.5t-39 -116.5z" />
<glyph unicode="&#xc6;" horiz-adv-x="1847" d="M-94 0l14 59l45 11q51 11 92 29.5t79.5 50t65.5 59.5t72 80l902 1036q-16 26 -86 39l-66 10l14 60q107 -7 287 -7l653 7l-88 -336h-41q0 125 -72 195.5t-221 70.5q-98 0 -159 -14l-137 -576h157q83 0 133 38.5t90 119.5l39 80h54q-51 -145 -78 -262q-13 -56 -22 -112.5 t-12 -85.5l-3 -28h-51l-2 51q-3 119 -123 119h-203l-104 -438q-13 -52 -13 -82q0 -55 34.5 -79.5t111.5 -24.5q80 0 150.5 22t118.5 52.5t92 77.5t68 82.5t50 80.5l43 -6l-127 -379q-510 6 -686 6l-270 -6l14 59l43 11q85 20 128.5 65.5t63.5 134.5l60 267h-414l-233 -281 q-5 -5 -20 -22t-21.5 -25t-18 -22.5t-16.5 -24t-9.5 -21.5t-4.5 -22q0 -15 12 -25t26.5 -14.5t38.5 -9.5l52 -11l-15 -59q-162 6 -258 6zM668 621h368l133 581z" />
<glyph unicode="&#xc7;" horiz-adv-x="1390" d="M119 518q0 152 44.5 294.5t129.5 259.5t201 205t266.5 136.5t318.5 48.5q176 0 283.5 -70.5t107.5 -170.5q0 -70 -46 -119t-109 -49q-23 0 -43.5 4.5t-29.5 8.5l-9 5q24 60 24 119q0 77 -68 133.5t-208 56.5q-128 0 -236.5 -45.5t-185 -124t-130.5 -183.5t-79.5 -223.5 t-25.5 -244.5q0 -235 101 -372.5t267 -137.5q371 0 543 311l53 -14l-133 -301q-50 0 -116 -19.5t-160.5 -39t-212.5 -19.5q-54 -40 -54 -94q0 -23 17.5 -44.5t38 -36.5t38 -39.5t17.5 -53.5q0 -64 -49.5 -114.5t-112 -73.5t-117.5 -23q-59 0 -95 24t-36 64q0 39 29 63.5 t64 24.5q24 0 34 -10q-34 -23 -34 -57q0 -22 17.5 -38t57.5 -16q43 0 80 29.5t37 69.5q0 25 -14 47.5t-30 37t-30 41t-14 58.5q0 43 32 82t76 61q-235 13 -367 161t-132 388z" />
<glyph unicode="&#xc8;" horiz-adv-x="1157" d="M16 0l15 59l43 11q85 20 128.5 65.5t63.5 134.5l219 961q9 45 9 59q0 35 -22.5 50.5t-72.5 23.5l-65 10l14 60q107 -7 287 -7l653 7l-88 -336h-41q0 125 -72 195.5t-221 70.5q-98 0 -159 -14l-138 -576h158q83 0 133 38.5t90 119.5l39 80h53q-50 -145 -77 -262 q-13 -56 -22 -112.5t-12 -85.5l-3 -28h-51l-3 51q-3 119 -122 119h-203l-105 -438q-12 -48 -12 -82q0 -55 34.5 -79.5t111.5 -24.5q80 0 150.5 22t118.5 52.5t92 77.5t68 82.5t50 80.5l43 -6l-127 -379q-510 6 -686 6zM731 1837q0 29 17.5 47.5t42.5 18.5q9 0 24 -5 q79 -158 225 -311l-14 -18q-55 17 -121 56.5t-120 99t-54 112.5z" />
<glyph unicode="&#xc9;" horiz-adv-x="1157" d="M16 0l15 59l43 11q85 20 128.5 65.5t63.5 134.5l219 961q9 45 9 59q0 35 -22.5 50.5t-72.5 23.5l-65 10l14 60q107 -7 287 -7l653 7l-88 -336h-41q0 125 -72 195.5t-221 70.5q-98 0 -159 -14l-138 -576h158q83 0 133 38.5t90 119.5l39 80h53q-50 -145 -77 -262 q-13 -56 -22 -112.5t-12 -85.5l-3 -28h-51l-3 51q-3 119 -122 119h-203l-105 -438q-12 -48 -12 -82q0 -55 34.5 -79.5t111.5 -24.5q80 0 150.5 22t118.5 52.5t92 77.5t68 82.5t50 80.5l43 -6l-127 -379q-510 6 -686 6zM827 1587q148 156 226 311q15 5 24 5q25 0 42.5 -18.5 t17.5 -47.5q0 -53 -54 -112.5t-120 -99t-121 -56.5z" />
<glyph unicode="&#xca;" horiz-adv-x="1157" d="M16 0l15 59l43 11q85 20 128.5 65.5t63.5 134.5l219 961q9 45 9 59q0 35 -22.5 50.5t-72.5 23.5l-65 10l14 60q107 -7 287 -7l653 7l-88 -336h-41q0 125 -72 195.5t-221 70.5q-98 0 -159 -14l-138 -576h158q83 0 133 38.5t90 119.5l39 80h53q-50 -145 -77 -262 q-13 -56 -22 -112.5t-12 -85.5l-3 -28h-51l-3 51q-3 119 -122 119h-203l-105 -438q-12 -48 -12 -82q0 -55 34.5 -79.5t111.5 -24.5q80 0 150.5 22t118.5 52.5t92 77.5t68 82.5t50 80.5l43 -6l-127 -379q-510 6 -686 6zM586 1597l393 281q139 -166 266 -285q-1 -23 -18.5 -36 t-40.5 -13q-64 0 -128 71t-100 169l-272 -246z" />
<glyph unicode="&#xcb;" horiz-adv-x="1157" d="M16 0l15 59l43 11q85 20 128.5 65.5t63.5 134.5l219 961q9 45 9 59q0 35 -22.5 50.5t-72.5 23.5l-65 10l14 60q107 -7 287 -7l653 7l-88 -336h-41q0 125 -72 195.5t-221 70.5q-98 0 -159 -14l-138 -576h158q83 0 133 38.5t90 119.5l39 80h53q-50 -145 -77 -262 q-13 -56 -22 -112.5t-12 -85.5l-3 -28h-51l-3 51q-3 119 -122 119h-203l-105 -438q-12 -48 -12 -82q0 -55 34.5 -79.5t111.5 -24.5q80 0 150.5 22t118.5 52.5t92 77.5t68 82.5t50 80.5l43 -6l-127 -379q-510 6 -686 6zM618 1712q0 47 34.5 86t86.5 39q39 0 63.5 -25.5 t24.5 -64.5q0 -47 -34.5 -86t-83.5 -39q-41 0 -66 25.5t-25 64.5zM1024 1712q0 47 34.5 86t86.5 39q39 0 63.5 -25.5t24.5 -64.5q0 -46 -35.5 -85.5t-83.5 -39.5q-41 0 -65.5 25.5t-24.5 64.5z" />
<glyph unicode="&#xcc;" horiz-adv-x="763" d="M16 0l15 59l43 11q85 20 128.5 65.5t63.5 134.5l219 961q9 45 9 59q0 35 -22.5 50.5t-72.5 23.5l-65 10l14 60q107 -7 287 -7q75 0 142.5 1.5t97.5 3.5l30 2l-14 -60l-43 -10q-85 -20 -129 -66t-64 -135l-219 -960q-8 -40 -8 -60q0 -35 22 -50t72 -23l66 -11l-15 -59 q-110 6 -286 6q-77 0 -145 -1.5t-97 -2.5zM393 1837q0 29 17.5 47.5t42.5 18.5q9 0 24 -5q79 -158 225 -311l-14 -18q-55 17 -121 56.5t-120 99t-54 112.5z" />
<glyph unicode="&#xcd;" horiz-adv-x="763" d="M16 0l15 59l43 11q85 20 128.5 65.5t63.5 134.5l219 961q9 45 9 59q0 35 -22.5 50.5t-72.5 23.5l-65 10l14 60q107 -7 287 -7q75 0 142.5 1.5t97.5 3.5l30 2l-14 -60l-43 -10q-85 -20 -129 -66t-64 -135l-219 -960q-8 -40 -8 -60q0 -35 22 -50t72 -23l66 -11l-15 -59 q-110 6 -286 6q-77 0 -145 -1.5t-97 -2.5zM614 1587q148 156 226 311q15 5 24 5q25 0 42.5 -18.5t17.5 -47.5q0 -53 -54 -112.5t-120 -99t-121 -56.5z" />
<glyph unicode="&#xce;" horiz-adv-x="763" d="M16 0l15 59l43 11q85 20 128.5 65.5t63.5 134.5l219 961q9 45 9 59q0 35 -22.5 50.5t-72.5 23.5l-65 10l14 60q107 -7 287 -7q75 0 142.5 1.5t97.5 3.5l30 2l-14 -60l-43 -10q-85 -20 -129 -66t-64 -135l-219 -960q-8 -40 -8 -60q0 -35 22 -50t72 -23l66 -11l-15 -59 q-110 6 -286 6q-77 0 -145 -1.5t-97 -2.5zM334 1597l393 281q139 -166 266 -285q-1 -23 -18.5 -36t-40.5 -13q-64 0 -127.5 71t-99.5 169l-273 -246z" />
<glyph unicode="&#xcf;" horiz-adv-x="763" d="M16 0l15 59l43 11q85 20 128.5 65.5t63.5 134.5l219 961q9 45 9 59q0 35 -22.5 50.5t-72.5 23.5l-65 10l14 60q107 -7 287 -7q75 0 142.5 1.5t97.5 3.5l30 2l-14 -60l-43 -10q-85 -20 -129 -66t-64 -135l-219 -960q-8 -40 -8 -60q0 -35 22 -50t72 -23l66 -11l-15 -59 q-110 6 -286 6q-77 0 -145 -1.5t-97 -2.5zM406 1712q0 47 34.5 86t85.5 39q39 0 63.5 -25.5t24.5 -64.5q0 -47 -34.5 -86t-83.5 -39q-41 0 -65.5 25.5t-24.5 64.5zM811 1712q0 47 34.5 86t86.5 39q39 0 63.5 -25.5t24.5 -64.5q0 -46 -35.5 -85.5t-83.5 -39.5 q-41 0 -65.5 25.5t-24.5 64.5z" />
<glyph unicode="&#xd0;" horiz-adv-x="1646" d="M16 0l15 59l43 11q85 20 128.5 65.5t63.5 134.5l88 389l-219 -4l25 115q115 -2 219 -4l106 465q9 45 9 59q0 35 -22.5 50.5t-72.5 23.5l-65 10l14 60q60 -7 240 -7q51 0 162 3.5t149 3.5q171 0 310.5 -46t229.5 -125.5t138.5 -185t48.5 -225.5q0 -258 -123 -451.5 t-348.5 -297t-525.5 -103.5q-58 0 -169.5 3t-172.5 3q-77 0 -145 -1.5t-97 -2.5zM436 174q0 -55 40 -79.5t126 -24.5q172 0 320.5 49.5t259.5 141.5t175 233.5t64 316.5q0 254 -143.5 403.5t-421.5 149.5q-86 0 -158 -14l-135 -586q1 0 156 3t199 3l-27 -115q-29 0 -113.5 1 t-159 2t-77.5 1l-92 -403q-13 -52 -13 -82z" />
<glyph unicode="&#xd1;" horiz-adv-x="1669" d="M16 0l15 59l43 11q85 20 128.5 65t63.5 135l219 961q9 36 9 59q0 35 -22.5 50.5t-72.5 23.5l-65 10l14 60q116 -7 330 -7q0 -57 43 -131l602 -1024l184 916q11 50 11 67q0 53 -31.5 77t-95.5 32l-88 10l14 60q149 -7 315 -7q57 0 113 1.5t83 3.5l27 2l-14 -60l-43 -10 q-85 -20 -128.5 -66t-63.5 -135l-258 -1173l-64 -8l-704 1189l-199 -856q-29 -136 -29 -155q0 -79 111 -90l92 -11l-14 -59q-172 6 -299 6zM823 1626q35 88 99 141.5t145 53.5q42 0 78 -15.5t58 -34t55 -34t69 -15.5q107 0 166 105l23 -33q-35 -90 -99 -142.5t-153 -52.5 q-40 0 -75 15.5t-55.5 34t-53 34t-68.5 15.5q-107 0 -164 -105z" />
<glyph unicode="&#xd2;" horiz-adv-x="1556" d="M117 518q0 148 45 290t128.5 259t193 206.5t247 139t283.5 49.5q240 0 389 -147.5t149 -403.5q0 -148 -45 -290t-128.5 -259t-193 -206.5t-247 -139t-283.5 -49.5q-240 0 -389 147.5t-149 403.5zM322 559q0 -239 123 -375.5t309 -136.5q117 0 217 54.5t168 141.5 t116.5 196.5t70.5 219.5t22 211q0 239 -123.5 375.5t-309.5 136.5q-117 0 -217 -54.5t-167.5 -141.5t-116 -196.5t-70.5 -219.5t-22 -211zM809 1837q0 29 17 47.5t42 18.5q10 0 25 -5q79 -158 225 -311l-14 -18q-55 17 -121 56.5t-120 99t-54 112.5z" />
<glyph unicode="&#xd3;" horiz-adv-x="1556" d="M117 518q0 148 45 290t128.5 259t193 206.5t247 139t283.5 49.5q240 0 389 -147.5t149 -403.5q0 -148 -45 -290t-128.5 -259t-193 -206.5t-247 -139t-283.5 -49.5q-240 0 -389 147.5t-149 403.5zM322 559q0 -239 123 -375.5t309 -136.5q117 0 217 54.5t168 141.5 t116.5 196.5t70.5 219.5t22 211q0 239 -123.5 375.5t-309.5 136.5q-117 0 -217 -54.5t-167.5 -141.5t-116 -196.5t-70.5 -219.5t-22 -211zM956 1587q148 156 226 311q15 5 24 5q25 0 42.5 -18.5t17.5 -47.5q0 -53 -54 -112.5t-120 -99t-121 -56.5z" />
<glyph unicode="&#xd4;" horiz-adv-x="1556" d="M117 518q0 148 45 290t128.5 259t193 206.5t247 139t283.5 49.5q240 0 389 -147.5t149 -403.5q0 -148 -45 -290t-128.5 -259t-193 -206.5t-247 -139t-283.5 -49.5q-240 0 -389 147.5t-149 403.5zM322 559q0 -239 123 -375.5t309 -136.5q117 0 217 54.5t168 141.5 t116.5 196.5t70.5 219.5t22 211q0 239 -123.5 375.5t-309.5 136.5q-117 0 -217 -54.5t-167.5 -141.5t-116 -196.5t-70.5 -219.5t-22 -211zM719 1597l393 281q139 -166 266 -285q-1 -23 -18.5 -36t-40.5 -13q-64 0 -127.5 71t-99.5 169l-273 -246z" />
<glyph unicode="&#xd5;" horiz-adv-x="1556" d="M117 518q0 148 45 290t128.5 259t193 206.5t247 139t283.5 49.5q240 0 389 -147.5t149 -403.5q0 -148 -45 -290t-128.5 -259t-193 -206.5t-247 -139t-283.5 -49.5q-240 0 -389 147.5t-149 403.5zM322 559q0 -239 123 -375.5t309 -136.5q117 0 217 54.5t168 141.5 t116.5 196.5t70.5 219.5t22 211q0 239 -123.5 375.5t-309.5 136.5q-117 0 -217 -54.5t-167.5 -141.5t-116 -196.5t-70.5 -219.5t-22 -211zM741 1626q35 88 99 141.5t145 53.5q42 0 78 -15.5t58 -34t55 -34t69 -15.5q107 0 166 105l23 -33q-35 -90 -99 -142.5t-153 -52.5 q-40 0 -75 15.5t-55.5 34t-53 34t-68.5 15.5q-107 0 -164 -105z" />
<glyph unicode="&#xd6;" horiz-adv-x="1556" d="M117 518q0 148 45 290t128.5 259t193 206.5t247 139t283.5 49.5q240 0 389 -147.5t149 -403.5q0 -148 -45 -290t-128.5 -259t-193 -206.5t-247 -139t-283.5 -49.5q-240 0 -389 147.5t-149 403.5zM322 559q0 -239 123 -375.5t309 -136.5q117 0 217 54.5t168 141.5 t116.5 196.5t70.5 219.5t22 211q0 239 -123.5 375.5t-309.5 136.5q-117 0 -217 -54.5t-167.5 -141.5t-116 -196.5t-70.5 -219.5t-22 -211zM778 1712q0 47 34.5 86t86.5 39q39 0 63.5 -25.5t24.5 -64.5q0 -46 -35 -85.5t-84 -39.5q-41 0 -65.5 25.5t-24.5 64.5zM1184 1712 q0 47 34.5 86t86.5 39q39 0 63.5 -25.5t24.5 -64.5q0 -46 -35.5 -85.5t-83.5 -39.5q-41 0 -65.5 25.5t-24.5 64.5z" />
<glyph unicode="&#xd7;" horiz-adv-x="1138" d="M141 100l340 353l-340 358l92 92l336 -356l336 356l94 -92l-342 -358l342 -353l-92 -94l-338 356l-338 -356z" />
<glyph unicode="&#xd8;" horiz-adv-x="1556" d="M82 -33q68 70 162 170q-127 146 -127 381q0 148 45 290t128.5 259t193 206.5t247 139t283.5 49.5q214 0 352 -114l104 114h129q-162 -169 -169 -176q122 -144 122 -375q0 -148 -45 -290t-128.5 -259t-193 -206.5t-247 -139t-283.5 -49.5q-210 0 -346 109l-98 -109h-129z M322 559q0 -161 57 -278q207 216 434 462l434 474q-59 81 -145 123t-187 42q-117 0 -217 -54.5t-167.5 -141.5t-116 -196.5t-70.5 -219.5t-22 -211zM426 205q60 -76 145 -117t183 -41q117 0 217 54.5t168 141.5t116.5 196.5t70.5 219.5t22 211q0 153 -56 271l-430 -457 q-55 -59 -436 -479z" />
<glyph unicode="&#xd9;" horiz-adv-x="1628" d="M274 395q0 82 25 191l145 645q9 45 9 59q0 35 -22.5 50.5t-72.5 23.5l-65 10l14 60q107 -7 287 -7q75 0 142.5 1.5t97.5 3.5l30 2l-14 -60l-43 -10q-85 -20 -129 -66t-64 -135l-125 -534q-28 -128 -28 -215q0 -344 350 -344q105 0 182.5 32t132.5 100.5t91.5 159.5 t66.5 224l146 645q8 40 8 59q0 35 -22.5 50.5t-72.5 23.5l-65 10l14 60q119 -9 250 -9q58 0 117 2.5t89 4.5l30 2l-15 -60l-43 -10q-85 -20 -128.5 -66t-63.5 -135l-131 -585q-19 -82 -39 -148t-48 -131t-61.5 -113.5t-79.5 -90.5t-101 -69t-126 -42t-156 -15 q-235 0 -373.5 106.5t-138.5 319.5zM821 1837q0 29 17.5 47.5t42.5 18.5q9 0 24 -5q79 -158 225 -311l-14 -18q-55 17 -121 56.5t-120 99t-54 112.5z" />
<glyph unicode="&#xda;" horiz-adv-x="1628" d="M274 395q0 82 25 191l145 645q9 45 9 59q0 35 -22.5 50.5t-72.5 23.5l-65 10l14 60q107 -7 287 -7q75 0 142.5 1.5t97.5 3.5l30 2l-14 -60l-43 -10q-85 -20 -129 -66t-64 -135l-125 -534q-28 -128 -28 -215q0 -344 350 -344q105 0 182.5 32t132.5 100.5t91.5 159.5 t66.5 224l146 645q8 40 8 59q0 35 -22.5 50.5t-72.5 23.5l-65 10l14 60q119 -9 250 -9q58 0 117 2.5t89 4.5l30 2l-15 -60l-43 -10q-85 -20 -128.5 -66t-63.5 -135l-131 -585q-19 -82 -39 -148t-48 -131t-61.5 -113.5t-79.5 -90.5t-101 -69t-126 -42t-156 -15 q-235 0 -373.5 106.5t-138.5 319.5zM1051 1587q146 153 225 311q15 5 24 5q25 0 42.5 -18.5t17.5 -47.5q0 -53 -54 -112.5t-120 -99t-121 -56.5z" />
<glyph unicode="&#xdb;" horiz-adv-x="1628" d="M274 395q0 82 25 191l145 645q9 45 9 59q0 35 -22.5 50.5t-72.5 23.5l-65 10l14 60q107 -7 287 -7q75 0 142.5 1.5t97.5 3.5l30 2l-14 -60l-43 -10q-85 -20 -129 -66t-64 -135l-125 -534q-28 -128 -28 -215q0 -344 350 -344q105 0 182.5 32t132.5 100.5t91.5 159.5 t66.5 224l146 645q8 40 8 59q0 35 -22.5 50.5t-72.5 23.5l-65 10l14 60q119 -9 250 -9q58 0 117 2.5t89 4.5l30 2l-15 -60l-43 -10q-85 -20 -128.5 -66t-63.5 -135l-131 -585q-19 -82 -39 -148t-48 -131t-61.5 -113.5t-79.5 -90.5t-101 -69t-126 -42t-156 -15 q-235 0 -373.5 106.5t-138.5 319.5zM782 1597l394 281q139 -166 266 -285q-1 -23 -18.5 -36t-41.5 -13q-64 0 -127.5 71t-99.5 169l-272 -246z" />
<glyph unicode="&#xdc;" horiz-adv-x="1628" d="M274 395q0 82 25 191l145 645q9 45 9 59q0 35 -22.5 50.5t-72.5 23.5l-65 10l14 60q107 -7 287 -7q75 0 142.5 1.5t97.5 3.5l30 2l-14 -60l-43 -10q-85 -20 -129 -66t-64 -135l-125 -534q-28 -128 -28 -215q0 -344 350 -344q105 0 182.5 32t132.5 100.5t91.5 159.5 t66.5 224l146 645q8 40 8 59q0 35 -22.5 50.5t-72.5 23.5l-65 10l14 60q119 -9 250 -9q58 0 117 2.5t89 4.5l30 2l-15 -60l-43 -10q-85 -20 -128.5 -66t-63.5 -135l-131 -585q-19 -82 -39 -148t-48 -131t-61.5 -113.5t-79.5 -90.5t-101 -69t-126 -42t-156 -15 q-235 0 -373.5 106.5t-138.5 319.5zM817 1712q0 47 34.5 86t86.5 39q39 0 63.5 -25.5t24.5 -64.5q0 -46 -35 -85.5t-84 -39.5q-41 0 -65.5 25.5t-24.5 64.5zM1223 1712q0 47 34.5 86t85.5 39q39 0 64 -25.5t25 -64.5q0 -46 -35.5 -85.5t-83.5 -39.5q-41 0 -65.5 25.5 t-24.5 64.5z" />
<glyph unicode="&#xdd;" horiz-adv-x="1423" d="M246 1352q36 46 92.5 78t120.5 32q49 0 90 -14.5t71 -38t54.5 -62t40 -76t29.5 -91.5t21.5 -97.5t16.5 -103.5l39 -268q6 15 24 55.5t55 112t80.5 146.5t102 154.5t118 141.5t130.5 101.5t137 39.5q63 0 101.5 -32t38.5 -91q0 -43 -35.5 -75.5t-71.5 -32.5q-12 0 -18 2 q2 8 2 18q0 26 -19 46t-61 20q-70 0 -164.5 -90t-175 -212t-141 -233t-80.5 -168l-94 -411q-9 -45 -9 -60q0 -35 22.5 -50t72.5 -23l65 -11l-14 -59q-111 6 -287 6q-77 0 -144.5 -1.5t-96.5 -2.5l-29 -2l14 59l43 11q85 20 129 65.5t64 134.5l84 365l-52 285 q-15 80 -25.5 130.5t-25.5 106t-31.5 87t-39 59.5t-51.5 39.5t-66 11.5t-62.5 -11.5t-54.5 -37.5zM979 1587q146 153 225 311q15 5 25 5q25 0 42 -18.5t17 -47.5q0 -53 -54 -112.5t-120 -99t-121 -56.5z" />
<glyph unicode="&#xde;" horiz-adv-x="1159" d="M16 0l15 59l43 11q85 20 128.5 65.5t63.5 134.5l219 961q9 45 9 59q0 35 -22.5 50.5t-72.5 23.5l-65 10l14 60q107 -7 287 -7q75 0 142.5 1.5t97.5 3.5l30 2l-14 -60l-43 -10q-85 -20 -129 -66t-64 -135l-20 -96q10 3 47 20.5t74.5 28t81.5 10.5q157 0 265.5 -106.5 t108.5 -274.5q0 -95 -39 -178t-103 -140t-146 -89.5t-168 -32.5q-73 0 -128 14.5t-91.5 29.5t-63.5 16l-37 -162q-8 -33 -8 -60q0 -35 22 -50t72 -23l66 -11l-15 -59q-110 6 -286 6q-77 0 -145 -1.5t-97 -2.5zM487 426q24 0 92 -16.5t115 -16.5q138 0 230 105t92 247 q0 134 -65.5 213.5t-180.5 79.5q-39 0 -93 -15.5t-61 -16.5z" />
<glyph unicode="&#xdf;" horiz-adv-x="1122" d="M-557 -498q0 55 36 83t83 28l26 -2q-12 -27 -12 -51q0 -38 25 -60t73 -22q122 0 212.5 128.5t168.5 387.5l252 835h-155l14 50l170 34l18 56q58 175 155.5 314t235.5 225.5t291 86.5q131 0 202 -64.5t71 -168.5q0 -84 -29 -153t-76 -114.5t-103.5 -83.5t-112.5 -69.5 t-103 -63t-76 -73t-29 -90.5q0 -42 20.5 -83.5t50 -78.5t59.5 -76.5t50.5 -91.5t20.5 -109q0 -70 -36 -130.5t-91 -98.5t-117 -59t-119 -21q-48 0 -85 8.5t-65 34t-28 66.5q0 52 36.5 83t86.5 31l21 -2q-13 -23 -13 -45q0 -31 31 -51t72 -20q76 0 122 32.5t46 104.5 q0 46 -17.5 90.5t-43 82.5t-51 77t-43 90.5t-17.5 107.5q0 60 26 111t67.5 90t92 76t100.5 77t91.5 85t67.5 108t26 137q0 84 -45 124t-142 40q-70 0 -131 -35t-109.5 -100.5t-86.5 -145.5t-72 -184l-242 -737q-29 -88 -59.5 -169t-73 -176.5t-86.5 -175t-100.5 -156.5 t-114.5 -130t-128 -85t-142 -32q-85 0 -125.5 35.5t-40.5 87.5z" />
<glyph unicode="&#xe0;" horiz-adv-x="978" d="M70 199q0 122 49 249t128.5 226t188 162t219.5 63q37 0 69.5 -11t49 -22t39.5 -30q12 38 42.5 77t76.5 39q44 0 78 -30q-33 -38 -99.5 -183.5t-125 -322.5t-58.5 -269q0 -45 39 -45q78 0 190 185l31 -21q-20 -47 -48.5 -94.5t-67.5 -96.5t-88.5 -79.5t-100.5 -30.5 q-107 0 -107 117q0 26 4 52.5t13 56t14 45t17.5 47t13.5 34.5h-8q-18 -37 -29 -59.5t-35 -63.5t-44.5 -68t-52 -60.5t-62.5 -53t-72 -33.5t-84 -14q-90 0 -135 64.5t-45 169.5zM229 240q0 -82 21.5 -118t75.5 -36q61 0 130.5 70t126.5 173.5t101.5 209t67.5 190.5 q-39 92 -138 92q-102 0 -192.5 -89.5t-141.5 -223.5t-51 -268zM487 1421q0 32 22.5 58t63.5 26q152 -228 345 -424l-11 -26q-75 19 -173 80t-172.5 142t-74.5 144z" />
<glyph unicode="&#xe1;" horiz-adv-x="978" d="M70 199q0 122 49 249t128.5 226t188 162t219.5 63q37 0 69.5 -11t49 -22t39.5 -30q12 38 42.5 77t76.5 39q44 0 78 -30q-33 -38 -99.5 -183.5t-125 -322.5t-58.5 -269q0 -45 39 -45q78 0 190 185l31 -21q-20 -47 -48.5 -94.5t-67.5 -96.5t-88.5 -79.5t-100.5 -30.5 q-107 0 -107 117q0 26 4 52.5t13 56t14 45t17.5 47t13.5 34.5h-8q-18 -37 -29 -59.5t-35 -63.5t-44.5 -68t-52 -60.5t-62.5 -53t-72 -33.5t-84 -14q-90 0 -135 64.5t-45 169.5zM229 240q0 -82 21.5 -118t75.5 -36q61 0 130.5 70t126.5 173.5t101.5 209t67.5 190.5 q-39 92 -138 92q-102 0 -192.5 -89.5t-141.5 -223.5t-51 -268zM657 1081q190 193 344 424q41 0 63.5 -26t22.5 -58q0 -63 -74.5 -144t-172 -142t-172.5 -80z" />
<glyph unicode="&#xe2;" horiz-adv-x="978" d="M70 199q0 122 49 249t128.5 226t188 162t219.5 63q37 0 69.5 -11t49 -22t39.5 -30q12 38 42.5 77t76.5 39q44 0 78 -30q-33 -38 -99.5 -183.5t-125 -322.5t-58.5 -269q0 -45 39 -45q78 0 190 185l31 -21q-20 -47 -48.5 -94.5t-67.5 -96.5t-88.5 -79.5t-100.5 -30.5 q-107 0 -107 117q0 26 4 52.5t13 56t14 45t17.5 47t13.5 34.5h-8q-18 -37 -29 -59.5t-35 -63.5t-44.5 -68t-52 -60.5t-62.5 -53t-72 -33.5t-84 -14q-90 0 -135 64.5t-45 169.5zM229 240q0 -82 21.5 -118t75.5 -36q61 0 130.5 70t126.5 173.5t101.5 209t67.5 190.5 q-39 92 -138 92q-102 0 -192.5 -89.5t-141.5 -223.5t-51 -268zM420 1130l414 369q13 -26 35.5 -68t85 -139t118.5 -153q0 -19 -19 -38.5t-55 -19.5q-56 0 -101 55t-67.5 127t-25.5 142l-270 -324z" />
<glyph unicode="&#xe3;" horiz-adv-x="978" d="M70 199q0 122 49 249t128.5 226t188 162t219.5 63q37 0 69.5 -11t49 -22t39.5 -30q12 38 42.5 77t76.5 39q44 0 78 -30q-33 -38 -99.5 -183.5t-125 -322.5t-58.5 -269q0 -45 39 -45q78 0 190 185l31 -21q-20 -47 -48.5 -94.5t-67.5 -96.5t-88.5 -79.5t-100.5 -30.5 q-107 0 -107 117q0 26 4 52.5t13 56t14 45t17.5 47t13.5 34.5h-8q-18 -37 -29 -59.5t-35 -63.5t-44.5 -68t-52 -60.5t-62.5 -53t-72 -33.5t-84 -14q-90 0 -135 64.5t-45 169.5zM229 240q0 -82 21.5 -118t75.5 -36q61 0 130.5 70t126.5 173.5t101.5 209t67.5 190.5 q-39 92 -138 92q-102 0 -192.5 -89.5t-141.5 -223.5t-51 -268zM436 1192q35 87 98.5 140.5t145.5 53.5q42 0 78 -15.5t58 -33.5t55 -33.5t69 -15.5q107 0 166 105l22 -33q-35 -91 -98.5 -143t-152.5 -52q-40 0 -75 15.5t-55.5 34t-53 34t-68.5 15.5q-107 0 -164 -105z" />
<glyph unicode="&#xe4;" horiz-adv-x="978" d="M70 199q0 122 49 249t128.5 226t188 162t219.5 63q37 0 69.5 -11t49 -22t39.5 -30q12 38 42.5 77t76.5 39q44 0 78 -30q-33 -38 -99.5 -183.5t-125 -322.5t-58.5 -269q0 -45 39 -45q78 0 190 185l31 -21q-20 -47 -48.5 -94.5t-67.5 -96.5t-88.5 -79.5t-100.5 -30.5 q-107 0 -107 117q0 26 4 52.5t13 56t14 45t17.5 47t13.5 34.5h-8q-18 -37 -29 -59.5t-35 -63.5t-44.5 -68t-52 -60.5t-62.5 -53t-72 -33.5t-84 -14q-90 0 -135 64.5t-45 169.5zM229 240q0 -82 21.5 -118t75.5 -36q61 0 130.5 70t126.5 173.5t101.5 209t67.5 190.5 q-39 92 -138 92q-102 0 -192.5 -89.5t-141.5 -223.5t-51 -268zM479 1229q0 47 34.5 86t86.5 39q39 0 63.5 -25.5t24.5 -64.5q0 -46 -35 -85.5t-84 -39.5q-41 0 -65.5 25.5t-24.5 64.5zM860 1229q0 47 34.5 86t86.5 39q39 0 63.5 -25.5t24.5 -64.5q0 -46 -35.5 -85.5 t-83.5 -39.5q-41 0 -65.5 25.5t-24.5 64.5z" />
<glyph unicode="&#xe5;" horiz-adv-x="978" d="M70 199q0 122 49 249t128.5 226t188 162t219.5 63q37 0 69.5 -11t49 -22t39.5 -30q12 38 42.5 77t76.5 39q44 0 78 -30q-33 -38 -99.5 -183.5t-125 -322.5t-58.5 -269q0 -45 39 -45q78 0 190 185l31 -21q-20 -47 -48.5 -94.5t-67.5 -96.5t-88.5 -79.5t-100.5 -30.5 q-107 0 -107 117q0 26 4 52.5t13 56t14 45t17.5 47t13.5 34.5h-8q-18 -37 -29 -59.5t-35 -63.5t-44.5 -68t-52 -60.5t-62.5 -53t-72 -33.5t-84 -14q-90 0 -135 64.5t-45 169.5zM229 240q0 -82 21.5 -118t75.5 -36q61 0 130.5 70t126.5 173.5t101.5 209t67.5 190.5 q-39 92 -138 92q-102 0 -192.5 -89.5t-141.5 -223.5t-51 -268zM539 1260q0 99 83 179.5t201 80.5q72 0 118 -43t46 -115q0 -99 -84 -179.5t-203 -80.5q-72 0 -116.5 42t-44.5 116zM633 1284q0 -52 30.5 -82.5t75.5 -30.5q78 0 115 50t37 116q0 52 -30.5 82.5t-76.5 30.5 q-74 0 -112.5 -49.5t-38.5 -116.5z" />
<glyph unicode="&#xe6;" horiz-adv-x="1345" d="M82 199q0 122 49.5 249t129 226t188 162t219.5 63q67 0 118.5 -27t81.5 -67q159 149 359 149q81 0 119 -41.5t38 -99.5q0 -118 -142 -208.5t-435 -166.5q-31 -108 -31 -200q0 -65 34 -109.5t108 -44.5q87 0 173.5 64t133.5 133l30 -23q-15 -26 -31 -51t-55.5 -72.5 t-81 -81t-103.5 -60t-126 -26.5q-122 0 -186 65t-64 183q0 25 2 39q-30 -56 -59 -99.5t-72.5 -90.5t-99 -73t-117.5 -26q-90 0 -135 64.5t-45 169.5zM242 240q0 -82 21 -118t75 -36q61 0 130.5 70t126.5 173.5t101.5 209t67.5 190.5q-39 92 -137 92q-102 0 -192.5 -89.5 t-141.5 -223.5t-51 -268zM819 494q56 17 98 31.5t105 44t103.5 59.5t71 75t30.5 95q0 35 -18.5 54t-51.5 19q-60 0 -119.5 -40t-103 -100t-73.5 -123t-42 -115z" />
<glyph unicode="&#xe7;" horiz-adv-x="808" d="M-10 -418q0 39 28.5 63.5t63.5 24.5q25 0 35 -10q-35 -23 -35 -57q0 -22 18 -38t58 -16q43 0 79.5 29.5t36.5 69.5q0 25 -14 47.5t-30 37t-30 41t-14 58.5q0 41 30.5 78.5t72.5 60.5q-91 1 -144 68t-53 176q0 99 32 204.5t92.5 200t139 170t180 120t207.5 44.5 q61 0 105.5 -27.5t44.5 -84.5t-40 -94t-93 -37q-17 0 -29 4q12 35 12 57q0 84 -104 84q-69 0 -130.5 -40.5t-106 -106.5t-77.5 -147.5t-49 -165t-16 -158.5q0 -74 34.5 -114t96.5 -40q89 0 169 57.5t140 139.5l31 -23q-24 -50 -55.5 -94.5t-79.5 -92t-115.5 -76 t-144.5 -28.5q-47 -38 -47 -88q0 -23 17 -44.5t38 -36.5t38 -39.5t17 -53.5q0 -64 -49.5 -114.5t-111.5 -73.5t-117 -23q-59 0 -95 24t-36 64z" />
<glyph unicode="&#xe8;" horiz-adv-x="827" d="M90 215q0 89 27 189t81.5 197.5t127.5 176.5t173 127.5t210 48.5q81 0 119 -41.5t38 -99.5q0 -118 -142 -208.5t-435 -166.5q-31 -109 -31 -200q0 -65 34 -109.5t107 -44.5q87 0 174 64t134 133l30 -23q-15 -26 -31 -51t-55.5 -72.5t-81 -81t-103.5 -60t-126 -26.5 q-122 0 -186 65t-64 183zM305 494q404 119 404 305q0 35 -18.5 54t-51.5 19q-60 0 -117 -40.5t-99.5 -105t-70 -120.5t-47.5 -112zM408 1421q0 32 22.5 58t63.5 26q154 -231 344 -424l-11 -26q-75 19 -172.5 80t-172 142t-74.5 144z" />
<glyph unicode="&#xe9;" horiz-adv-x="827" d="M90 215q0 89 27 189t81.5 197.5t127.5 176.5t173 127.5t210 48.5q81 0 119 -41.5t38 -99.5q0 -118 -142 -208.5t-435 -166.5q-31 -109 -31 -200q0 -65 34 -109.5t107 -44.5q87 0 174 64t134 133l30 -23q-15 -26 -31 -51t-55.5 -72.5t-81 -81t-103.5 -60t-126 -26.5 q-122 0 -186 65t-64 183zM305 494q404 119 404 305q0 35 -18.5 54t-51.5 19q-60 0 -117 -40.5t-99.5 -105t-70 -120.5t-47.5 -112zM633 1081q190 193 344 424q41 0 63.5 -26t22.5 -58q0 -63 -74.5 -144t-172.5 -142t-173 -80z" />
<glyph unicode="&#xea;" horiz-adv-x="827" d="M90 215q0 89 27 189t81.5 197.5t127.5 176.5t173 127.5t210 48.5q81 0 119 -41.5t38 -99.5q0 -118 -142 -208.5t-435 -166.5q-31 -109 -31 -200q0 -65 34 -109.5t107 -44.5q87 0 174 64t134 133l30 -23q-15 -26 -31 -51t-55.5 -72.5t-81 -81t-103.5 -60t-126 -26.5 q-122 0 -186 65t-64 183zM305 494q404 119 404 305q0 35 -18.5 54t-51.5 19q-60 0 -117 -40.5t-99.5 -105t-70 -120.5t-47.5 -112zM379 1130l414 369q13 -26 35.5 -68t85 -139t118.5 -153q0 -19 -19 -38.5t-55 -19.5q-56 0 -101 55t-67.5 127t-25.5 142l-270 -324z" />
<glyph unicode="&#xeb;" horiz-adv-x="827" d="M90 215q0 89 27 189t81.5 197.5t127.5 176.5t173 127.5t210 48.5q81 0 119 -41.5t38 -99.5q0 -118 -142 -208.5t-435 -166.5q-31 -109 -31 -200q0 -65 34 -109.5t107 -44.5q87 0 174 64t134 133l30 -23q-15 -26 -31 -51t-55.5 -72.5t-81 -81t-103.5 -60t-126 -26.5 q-122 0 -186 65t-64 183zM305 494q404 119 404 305q0 35 -18.5 54t-51.5 19q-60 0 -117 -40.5t-99.5 -105t-70 -120.5t-47.5 -112zM465 1229q0 47 34.5 86t86.5 39q39 0 63.5 -25.5t24.5 -64.5q0 -46 -35 -85.5t-84 -39.5q-41 0 -65.5 25.5t-24.5 64.5zM846 1229 q0 47 34.5 86t86.5 39q39 0 63.5 -25.5t24.5 -64.5q0 -46 -35.5 -85.5t-83.5 -39.5q-41 0 -65.5 25.5t-24.5 64.5z" />
<glyph unicode="&#xec;" horiz-adv-x="571" d="M100 45q0 84 52 225l149 420q14 37 14 66q0 33 -31 45t-100 12v45q22 1 60 4.5t138 27.5t179 62l-242 -628q-55 -146 -55 -193q0 -29 27 -29q35 0 118.5 73t120.5 126l31 -20q-36 -65 -96.5 -135t-140.5 -124.5t-146 -54.5q-39 0 -58.5 18t-19.5 60zM131 1421 q0 32 22.5 58t63.5 26q154 -231 344 -424l-10 -26q-75 19 -173 80t-172.5 142t-74.5 144z" />
<glyph unicode="&#xed;" horiz-adv-x="571" d="M100 45q0 84 52 225l149 420q14 37 14 66q0 33 -31 45t-100 12v45q22 1 60 4.5t138 27.5t179 62l-242 -628q-55 -146 -55 -193q0 -29 27 -29q35 0 118.5 73t120.5 126l31 -20q-36 -65 -96.5 -135t-140.5 -124.5t-146 -54.5q-39 0 -58.5 18t-19.5 60zM385 1081 q190 193 344 424q41 0 63.5 -26t22.5 -58q0 -63 -74.5 -144t-172.5 -142t-173 -80z" />
<glyph unicode="&#xee;" horiz-adv-x="571" d="M100 45q0 84 52 225l149 420q14 37 14 66q0 33 -31 45t-100 12v45q22 1 60 4.5t138 27.5t179 62l-242 -628q-55 -146 -55 -193q0 -29 27 -29q35 0 118.5 73t120.5 126l31 -20q-36 -65 -96.5 -135t-140.5 -124.5t-146 -54.5q-39 0 -58.5 18t-19.5 60zM188 1130l414 369 q13 -26 35.5 -68t85.5 -139t119 -153q0 -19 -19 -38.5t-55 -19.5q-56 0 -101.5 55t-68 127t-25.5 142l-270 -324z" />
<glyph unicode="&#xef;" horiz-adv-x="571" d="M100 45q0 84 52 225l149 420q14 37 14 66q0 33 -31 45t-100 12v45q22 1 60 4.5t138 27.5t179 62l-242 -628q-55 -146 -55 -193q0 -29 27 -29q35 0 118.5 73t120.5 126l31 -20q-36 -65 -96.5 -135t-140.5 -124.5t-146 -54.5q-39 0 -58.5 18t-19.5 60zM254 1229 q0 47 34.5 86t86.5 39q39 0 63.5 -25.5t24.5 -64.5q0 -46 -35 -85.5t-84 -39.5q-41 0 -65.5 25.5t-24.5 64.5zM635 1229q0 47 34.5 86t86.5 39q39 0 63.5 -25.5t24.5 -64.5q0 -46 -35.5 -85.5t-83.5 -39.5q-41 0 -65.5 25.5t-24.5 64.5z" />
<glyph unicode="&#xf0;" horiz-adv-x="911" d="M92 252q0 90 27.5 189t79 189.5t119 163.5t155 116.5t178.5 43.5q87 0 146 -47q4 32 4 60q0 87 -33 178l-223 -94l-10 75l200 86q-34 79 -125 131t-180 52l55 61q102 0 207 -54t156 -142l244 102l10 -76l-223 -94q51 -122 51 -293q0 -187 -62 -405q-27 -101 -78.5 -194 t-120 -168t-157.5 -120t-182 -45q-109 0 -173.5 76t-64.5 209zM260 274q0 -231 129 -231q66 0 130 62t107.5 153.5t70 196.5t26.5 192q0 230 -129 230q-88 0 -167.5 -103.5t-123 -242t-43.5 -257.5z" />
<glyph unicode="&#xf1;" horiz-adv-x="1083" d="M90 39q0 26 10 59l187 592q14 47 14 66q0 33 -31 45t-100 12v45q22 1 60 4.5t138 27.5t179 62q-219 -540 -234 -583h9q47 86 95 163t108.5 156.5t118.5 136.5t123.5 93t125.5 36q58 0 83 -25.5t25 -76.5q0 -76 -38 -180l-123 -348q-56 -157 -56 -193q0 -29 31 -29 q58 0 176 168l31 -22q-28 -51 -59.5 -96t-73 -89t-91.5 -70t-100 -26q-39 0 -58 17.5t-19 60.5q0 81 69 279l123 350q25 73 25 102q0 41 -31 41q-73 0 -174.5 -100.5t-186 -236t-144.5 -277t-60 -219.5q-25 -17 -74 -17q-36 0 -57 19.5t-21 52.5zM508 1192q35 87 98.5 140.5 t145.5 53.5q42 0 78 -15.5t58 -33.5t55 -33.5t69 -15.5q107 0 166 105l22 -33q-35 -90 -99 -142.5t-153 -52.5q-40 0 -75 15.5t-55.5 34t-53 34t-68.5 15.5q-107 0 -164 -105z" />
<glyph unicode="&#xf2;" horiz-adv-x="890" d="M92 252q0 90 27.5 189t79 189.5t119 163.5t155 116.5t178.5 43.5q110 0 175 -75.5t65 -210.5q0 -114 -44 -237.5t-117 -226.5t-179.5 -170t-220.5 -67q-109 0 -173.5 76t-64.5 209zM260 274q0 -231 129 -231q66 0 130 62t107.5 153.5t70 196.5t26.5 192q0 230 -129 230 q-88 0 -167.5 -103.5t-123 -242t-43.5 -257.5zM301 1421q0 32 22.5 58t63.5 26q154 -231 344 -424l-10 -26q-75 19 -173 80t-172.5 142t-74.5 144z" />
<glyph unicode="&#xf3;" horiz-adv-x="890" d="M92 252q0 90 27.5 189t79 189.5t119 163.5t155 116.5t178.5 43.5q110 0 175 -75.5t65 -210.5q0 -114 -44 -237.5t-117 -226.5t-179.5 -170t-220.5 -67q-109 0 -173.5 76t-64.5 209zM260 274q0 -231 129 -231q66 0 130 62t107.5 153.5t70 196.5t26.5 192q0 230 -129 230 q-88 0 -167.5 -103.5t-123 -242t-43.5 -257.5zM594 1081q190 193 344 424q41 0 63.5 -26t22.5 -58q0 -63 -74.5 -144t-172.5 -142t-173 -80z" />
<glyph unicode="&#xf4;" horiz-adv-x="890" d="M92 252q0 90 27.5 189t79 189.5t119 163.5t155 116.5t178.5 43.5q110 0 175 -75.5t65 -210.5q0 -114 -44 -237.5t-117 -226.5t-179.5 -170t-220.5 -67q-109 0 -173.5 76t-64.5 209zM260 274q0 -231 129 -231q66 0 130 62t107.5 153.5t70 196.5t26.5 192q0 230 -129 230 q-88 0 -167.5 -103.5t-123 -242t-43.5 -257.5zM379 1130l414 369q13 -26 35.5 -68t85 -139t118.5 -153q0 -19 -19 -38.5t-55 -19.5q-56 0 -101 55t-67.5 127t-25.5 142l-270 -324z" />
<glyph unicode="&#xf5;" horiz-adv-x="890" d="M92 252q0 90 27.5 189t79 189.5t119 163.5t155 116.5t178.5 43.5q110 0 175 -75.5t65 -210.5q0 -114 -44 -237.5t-117 -226.5t-179.5 -170t-220.5 -67q-109 0 -173.5 76t-64.5 209zM260 274q0 -231 129 -231q66 0 130 62t107.5 153.5t70 196.5t26.5 192q0 230 -129 230 q-88 0 -167.5 -103.5t-123 -242t-43.5 -257.5zM399 1192q35 87 98.5 140.5t145.5 53.5q42 0 78 -15.5t58 -33.5t55 -33.5t69 -15.5q107 0 166 105l23 -33q-35 -90 -99 -142.5t-153 -52.5q-40 0 -75 15.5t-55.5 34t-53 34t-68.5 15.5q-107 0 -164 -105z" />
<glyph unicode="&#xf6;" horiz-adv-x="890" d="M92 252q0 90 27.5 189t79 189.5t119 163.5t155 116.5t178.5 43.5q110 0 175 -75.5t65 -210.5q0 -114 -44 -237.5t-117 -226.5t-179.5 -170t-220.5 -67q-109 0 -173.5 76t-64.5 209zM260 274q0 -231 129 -231q66 0 130 62t107.5 153.5t70 196.5t26.5 192q0 230 -129 230 q-88 0 -167.5 -103.5t-123 -242t-43.5 -257.5zM442 1229q0 47 34.5 86t86.5 39q39 0 63.5 -25.5t24.5 -64.5q0 -46 -35 -85.5t-84 -39.5q-41 0 -65.5 25.5t-24.5 64.5zM823 1229q0 47 34.5 86t86.5 39q39 0 63.5 -25.5t24.5 -64.5q0 -46 -35.5 -85.5t-83.5 -39.5 q-41 0 -65.5 25.5t-24.5 64.5z" />
<glyph unicode="&#xf7;" horiz-adv-x="933" d="M0 391v121h934v-121h-934zM332 104q0 56 39 95t96 39q56 0 95.5 -39.5t39.5 -94.5q0 -58 -39.5 -97.5t-95.5 -39.5q-57 0 -96 39.5t-39 97.5zM332 803q0 56 39 94.5t96 38.5q56 0 95.5 -39t39.5 -94q0 -58 -39.5 -97.5t-95.5 -39.5q-57 0 -96 39.5t-39 97.5z" />
<glyph unicode="&#xf8;" horiz-adv-x="890" d="M-55 -33l164 166q-17 59 -17 119q0 90 27.5 189t79 189.5t119 163.5t155 116.5t178.5 43.5q115 0 178 -82l78 80h129q-107 -100 -164 -157q19 -59 19 -127q0 -114 -44 -237.5t-117 -226.5t-179.5 -170t-220.5 -67q-118 0 -183 84q-48 -48 -79 -84h-123zM260 289l453 463 q-12 61 -42.5 93t-76.5 32q-65 0 -127.5 -59.5t-106 -148t-71 -191t-29.5 -189.5zM266 180q25 -137 123 -137q66 0 130 62t107.5 153.5t70 196.5t26.5 192l-223 -223z" />
<glyph unicode="&#xf9;" horiz-adv-x="1015" d="M90 672q28 51 60 96.5t73 89.5t91 70t100 26q39 0 58.5 -18t19.5 -62q0 -75 -70 -276l-123 -352q-25 -70 -25 -103q0 -39 31 -39q73 0 174.5 100.5t186 236.5t144.5 277.5t60 219.5q21 16 70 16q36 0 57 -19t21 -54q0 -25 -10 -58l-193 -592q-14 -47 -14 -65 q0 -33 35 -45t106 -12v-46q-22 -1 -60 -4.5t-138 -27.5t-179 -62q208 511 234 584h-8q-47 -86 -95 -163t-108.5 -156.5t-119 -137t-124 -93.5t-125.5 -36q-58 0 -83 25.5t-25 77.5q0 75 39 178l122 350q56 157 56 193q0 28 -31 28q-58 0 -176 -168zM342 1421q0 32 22.5 58 t63.5 26q154 -231 344 -424l-10 -26q-75 19 -173 80t-172.5 142t-74.5 144z" />
<glyph unicode="&#xfa;" horiz-adv-x="1015" d="M90 672q28 51 60 96.5t73 89.5t91 70t100 26q39 0 58.5 -18t19.5 -62q0 -75 -70 -276l-123 -352q-25 -70 -25 -103q0 -39 31 -39q73 0 174.5 100.5t186 236.5t144.5 277.5t60 219.5q21 16 70 16q36 0 57 -19t21 -54q0 -25 -10 -58l-193 -592q-14 -47 -14 -65 q0 -33 35 -45t106 -12v-46q-22 -1 -60 -4.5t-138 -27.5t-179 -62q208 511 234 584h-8q-47 -86 -95 -163t-108.5 -156.5t-119 -137t-124 -93.5t-125.5 -36q-58 0 -83 25.5t-25 77.5q0 75 39 178l122 350q56 157 56 193q0 28 -31 28q-58 0 -176 -168zM657 1081 q190 193 344 424q41 0 63.5 -26t22.5 -58q0 -63 -74.5 -144t-172 -142t-172.5 -80z" />
<glyph unicode="&#xfb;" horiz-adv-x="1015" d="M90 672q28 51 60 96.5t73 89.5t91 70t100 26q39 0 58.5 -18t19.5 -62q0 -75 -70 -276l-123 -352q-25 -70 -25 -103q0 -39 31 -39q73 0 174.5 100.5t186 236.5t144.5 277.5t60 219.5q21 16 70 16q36 0 57 -19t21 -54q0 -25 -10 -58l-193 -592q-14 -47 -14 -65 q0 -33 35 -45t106 -12v-46q-22 -1 -60 -4.5t-138 -27.5t-179 -62q208 511 234 584h-8q-47 -86 -95 -163t-108.5 -156.5t-119 -137t-124 -93.5t-125.5 -36q-58 0 -83 25.5t-25 77.5q0 75 39 178l122 350q56 157 56 193q0 28 -31 28q-58 0 -176 -168zM424 1130l414 369 q13 -26 35.5 -68t85 -139t118.5 -153q0 -19 -18.5 -38.5t-54.5 -19.5q-56 0 -101.5 55t-68 127t-25.5 142l-270 -324z" />
<glyph unicode="&#xfc;" horiz-adv-x="1015" d="M90 672q28 51 60 96.5t73 89.5t91 70t100 26q39 0 58.5 -18t19.5 -62q0 -75 -70 -276l-123 -352q-25 -70 -25 -103q0 -39 31 -39q73 0 174.5 100.5t186 236.5t144.5 277.5t60 219.5q21 16 70 16q36 0 57 -19t21 -54q0 -25 -10 -58l-193 -592q-14 -47 -14 -65 q0 -33 35 -45t106 -12v-46q-22 -1 -60 -4.5t-138 -27.5t-179 -62q208 511 234 584h-8q-47 -86 -95 -163t-108.5 -156.5t-119 -137t-124 -93.5t-125.5 -36q-58 0 -83 25.5t-25 77.5q0 75 39 178l122 350q56 157 56 193q0 28 -31 28q-58 0 -176 -168zM459 1229q0 47 34.5 86 t86.5 39q39 0 63.5 -25.5t24.5 -64.5q0 -46 -35 -85.5t-84 -39.5q-41 0 -65.5 25.5t-24.5 64.5zM840 1229q0 47 34.5 86t86.5 39q39 0 63.5 -25.5t24.5 -64.5q0 -46 -35.5 -85.5t-83.5 -39.5q-41 0 -65.5 25.5t-24.5 64.5z" />
<glyph unicode="&#xfd;" horiz-adv-x="999" d="M-297 -389q0 44 26.5 73.5t65.5 39.5q19 -66 109 -66q146 0 280.5 79.5t173.5 160.5q13 30 13 176q0 90 -7 212t-14.5 206.5t-17.5 181t-10 98.5q-3 47 -25 47q-26 0 -53 -28t-47 -68.5t-29.5 -63t-13.5 -34.5l-33 4q4 28 15.5 65t35 83.5t53 85t74 65t94.5 26.5 q49 0 65.5 -33t20.5 -94q23 -414 23 -821q137 131 248.5 340t111.5 354q0 51 -22.5 89t-67.5 45q9 54 44.5 86t82.5 32q60 0 95.5 -39.5t35.5 -101.5q0 -91 -56 -225.5t-148 -279t-216.5 -289t-254 -258.5t-268 -185.5t-251.5 -71.5q-61 0 -97 29.5t-36 79.5zM618 1081 q193 196 345 424q41 0 63.5 -26t22.5 -58q0 -63 -74.5 -144t-172.5 -142t-173 -80z" />
<glyph unicode="&#xfe;" horiz-adv-x="1048" d="M-262 -600l47 14q87 26 140.5 84t92.5 166l375 1061q-53 -24 -111 -57t-90 -54l-32 -22l-19 49q115 88 279 168l158 463q14 42 14 67q0 32 -31.5 45t-99.5 13v45q22 1 60 4.5t138 27.5t179 62l-238 -672q69 35 182 35q127 0 198 -71t71 -183q0 -83 -31.5 -178 t-89.5 -182.5t-132 -159.5t-167 -115t-187 -43q-51 0 -91 14.5t-54 34.5l-131 -374q-31 -87 -31 -140q0 -38 23 -57.5t80 -28.5l98 -16v-51h-600v51zM354 143q0 -4 2 -11t10.5 -24t21 -30t38.5 -24t59 -11q75 0 150 59.5t129 147t87.5 189.5t33.5 186q0 29 -3.5 54.5 t-14.5 52.5t-28.5 46t-47 31t-68.5 12q-33 0 -71.5 -10.5t-60.5 -20.5l-22 -10z" />
<glyph unicode="&#xff;" horiz-adv-x="999" d="M-297 -389q0 44 26.5 73.5t65.5 39.5q19 -66 109 -66q146 0 280.5 79.5t173.5 160.5q13 30 13 176q0 90 -7 212t-14.5 206.5t-17.5 181t-10 98.5q-3 47 -25 47q-26 0 -53 -28t-47 -68.5t-29.5 -63t-13.5 -34.5l-33 4q4 28 15.5 65t35 83.5t53 85t74 65t94.5 26.5 q49 0 65.5 -33t20.5 -94q23 -414 23 -821q137 131 248.5 340t111.5 354q0 51 -22.5 89t-67.5 45q9 54 44.5 86t82.5 32q60 0 95.5 -39.5t35.5 -101.5q0 -91 -56 -225.5t-148 -279t-216.5 -289t-254 -258.5t-268 -185.5t-251.5 -71.5q-61 0 -97 29.5t-36 79.5zM469 1229 q0 47 34.5 86t86.5 39q39 0 63.5 -25.5t24.5 -64.5q0 -46 -35 -85.5t-84 -39.5q-41 0 -65.5 25.5t-24.5 64.5zM850 1229q0 47 34.5 86t86.5 39q39 0 63.5 -25.5t24.5 -64.5q0 -46 -35.5 -85.5t-83.5 -39.5q-41 0 -65.5 25.5t-24.5 64.5z" />
<glyph unicode="&#x100;" d="M-76 0l15 59l43 11q47 11 83.5 30.5t65.5 51t48 60t46 77.5l652 1155l137 22l116 -1276q4 -57 31 -84t86 -36l66 -11l-15 -59q-111 6 -256 6l-317 -6l14 59l43 11q163 32 152 184l-21 283h-436l-147 -281q-2 -4 -10 -18.5t-10.5 -18.5t-8.5 -16t-8 -17t-5.5 -14.5t-5 -16 t-2.5 -14.5t-1 -16q0 -24 20 -36.5t63 -18.5l66 -11l-14 -59q-148 6 -244 6zM516 621h387l-53 602zM711 1663l26 113q150 -7 283 -7q64 0 136 1.5t112 3.5l39 2l-27 -113q-133 6 -283 6z" />
<glyph unicode="&#x101;" horiz-adv-x="976" d="M70 199q0 122 49 249t128.5 226t188 162t219.5 63q37 0 69.5 -11t49 -22t39.5 -30q12 38 42.5 77t76.5 39q44 0 78 -30q-33 -38 -99.5 -183.5t-125 -322.5t-58.5 -269q0 -45 39 -45q78 0 190 185l31 -21q-20 -47 -48.5 -94.5t-67.5 -96.5t-88.5 -79.5t-100.5 -30.5 q-107 0 -107 117q0 26 4 52.5t13 56t14 45t17.5 47t13.5 34.5h-8q-18 -37 -29 -59.5t-35 -63.5t-44.5 -68t-52 -60.5t-62.5 -53t-72 -33.5t-84 -14q-90 0 -135 64.5t-45 169.5zM229 240q0 -82 21.5 -118t75.5 -36q61 0 130.5 70t126.5 173.5t101.5 209t67.5 190.5 q-39 92 -138 92q-102 0 -192.5 -89.5t-141.5 -223.5t-51 -268zM500 1204l24 113q146 -6 279 -6l278 6l-24 -113q-129 6 -279 6z" />
<glyph unicode="&#x102;" d="M-76 0l15 59l43 11q47 11 83.5 30.5t65.5 51t48 60t46 77.5l652 1155l137 22l116 -1276q4 -57 31 -84t86 -36l66 -11l-15 -59q-111 6 -256 6l-317 -6l14 59l43 11q163 32 152 184l-21 283h-436l-147 -281q-2 -4 -10 -18.5t-10.5 -18.5t-8.5 -16t-8 -17t-5.5 -14.5t-5 -16 t-2.5 -14.5t-1 -16q0 -24 20 -36.5t63 -18.5l66 -11l-14 -59q-148 6 -244 6zM516 621h387l-53 602zM733 1769q0 43 12 99h140q-8 -33 -8 -68q0 -64 36 -99.5t107 -35.5q94 0 162 54.5t90 148.5h57q-34 -149 -129 -233.5t-231 -84.5q-111 0 -173.5 57t-62.5 162z" />
<glyph unicode="&#x103;" horiz-adv-x="980" d="M70 199q0 122 49 249t128.5 226t188 162t219.5 63q37 0 69.5 -11t49 -22t39.5 -30q12 38 42.5 77t76.5 39q44 0 78 -30q-33 -38 -99.5 -183.5t-125 -322.5t-58.5 -269q0 -45 39 -45q78 0 190 185l31 -21q-20 -47 -48.5 -94.5t-67.5 -96.5t-88.5 -79.5t-100.5 -30.5 q-107 0 -107 117q0 26 4 52.5t13 56t14 45t17.5 47t13.5 34.5h-8q-18 -37 -29 -59.5t-35 -63.5t-44.5 -68t-52 -60.5t-62.5 -53t-72 -33.5t-84 -14q-90 0 -135 64.5t-45 169.5zM229 240q0 -82 21.5 -118t75.5 -36q61 0 130.5 70t126.5 173.5t101.5 209t67.5 190.5 q-39 92 -138 92q-102 0 -192.5 -89.5t-141.5 -223.5t-51 -268zM522 1331q0 39 13 99h139q-8 -33 -8 -68q0 -64 36 -99.5t107 -35.5q94 0 162 54.5t90 148.5h57q-34 -149 -129 -233.5t-231 -84.5q-111 0 -173.5 57t-62.5 162z" />
<glyph unicode="&#x104;" d="M-76 0l15 59l43 11q47 11 83.5 30.5t65.5 51t48 60t46 77.5l652 1155l137 22l116 -1276q4 -57 31 -84t86 -36l66 -11l-15 -59q-241 -175 -241 -309q0 -44 27.5 -68t80.5 -24q34 0 63.5 12.5t41.5 26.5q20 -9 20 -35q0 -35 -56.5 -73t-158.5 -38q-78 0 -124 38.5 t-46 107.5q0 53 26 105.5t62 91t85 74t86 56t73 37.5q-90 4 -195 4l-317 -6l14 59l43 11q163 32 152 184l-21 283h-436l-147 -281q-2 -4 -10 -18.5t-10.5 -18.5t-8.5 -16t-8 -17t-5.5 -14.5t-5 -16t-2.5 -14.5t-1 -16q0 -24 20 -36.5t63 -18.5l66 -11l-14 -59q-148 6 -244 6 zM516 621h387l-53 602z" />
<glyph unicode="&#x105;" horiz-adv-x="978" d="M70 199q0 122 49 249t128.5 226t188 162t219.5 63q37 0 69.5 -11t49 -22t39.5 -30q12 38 42.5 77t76.5 39q44 0 78 -30q-33 -38 -99.5 -183.5t-125 -322.5t-58.5 -269q0 -45 39 -45q78 0 190 185l31 -21q-26 -68 -80 -142.5t-125 -127.5q-126 -94 -182.5 -167t-56.5 -138 q0 -42 30 -67t78 -25q34 0 63.5 12.5t41.5 26.5q20 -9 20 -35q0 -35 -56.5 -73t-158.5 -38q-78 0 -124 38.5t-46 107.5q0 54 24.5 105.5t67 93.5t83.5 72.5t89 57.5q-80 13 -80 115q0 26 4 52.5t13 56t14 45t17.5 47t13.5 34.5h-8q-18 -37 -29 -59.5t-35 -63.5t-44.5 -68 t-52 -60.5t-62.5 -53t-72 -33.5t-84 -14q-90 0 -135 64.5t-45 169.5zM229 240q0 -82 21.5 -118t75.5 -36q61 0 130.5 70t126.5 173.5t101.5 209t67.5 190.5q-39 92 -138 92q-102 0 -192.5 -89.5t-141.5 -223.5t-51 -268z" />
<glyph unicode="&#x106;" horiz-adv-x="1390" d="M119 518q0 152 44.5 294.5t129.5 259.5t201 205t266.5 136.5t318.5 48.5q176 0 283.5 -70.5t107.5 -170.5q0 -70 -46 -119t-109 -49q-23 0 -43.5 4.5t-29.5 8.5l-9 5q24 60 24 119q0 77 -68 133.5t-208 56.5q-128 0 -236.5 -45.5t-185 -124t-130.5 -183.5t-79.5 -223.5 t-25.5 -244.5q0 -235 101 -372.5t267 -137.5q371 0 543 311l53 -14l-133 -301q-50 0 -116 -19.5t-160.5 -39t-212.5 -19.5q-257 0 -402 149.5t-145 401.5zM1006 1587q146 153 225 311q15 5 24 5q25 0 42.5 -18.5t17.5 -47.5q0 -53 -54 -112.5t-120 -99t-121 -56.5z" />
<glyph unicode="&#x107;" horiz-adv-x="808" d="M92 215q0 99 32 204.5t92.5 200t139 170t180 120t207.5 44.5q61 0 105.5 -27.5t44.5 -84.5t-40 -94t-93 -37q-17 0 -29 4q12 35 12 57q0 84 -104 84q-69 0 -130.5 -40.5t-106 -106.5t-77.5 -147.5t-49 -165t-16 -158.5q0 -74 34.5 -114t96.5 -40q89 0 169 57.5t140 139.5 l31 -23q-19 -38 -41.5 -74t-58 -77t-75.5 -70.5t-94 -49.5t-112 -20q-258 0 -258 248zM682 1081q190 193 344 424q41 0 63.5 -26t22.5 -58q0 -63 -74.5 -144t-172.5 -142t-173 -80z" />
<glyph unicode="&#x108;" horiz-adv-x="1390" d="M119 518q0 152 44.5 294.5t129.5 259.5t201 205t266.5 136.5t318.5 48.5q176 0 283.5 -70.5t107.5 -170.5q0 -70 -46 -119t-109 -49q-23 0 -43.5 4.5t-29.5 8.5l-9 5q24 60 24 119q0 77 -68 133.5t-208 56.5q-128 0 -236.5 -45.5t-185 -124t-130.5 -183.5t-79.5 -223.5 t-25.5 -244.5q0 -235 101 -372.5t267 -137.5q371 0 543 311l53 -14l-133 -301q-50 0 -116 -19.5t-160.5 -39t-212.5 -19.5q-257 0 -402 149.5t-145 401.5zM754 1597l393 281q139 -166 266 -285q-1 -23 -18.5 -36t-40.5 -13q-64 0 -128 71t-100 169l-272 -246z" />
<glyph unicode="&#x109;" horiz-adv-x="808" d="M92 215q0 99 32 204.5t92.5 200t139 170t180 120t207.5 44.5q61 0 105.5 -27.5t44.5 -84.5t-40 -94t-93 -37q-17 0 -29 4q12 35 12 57q0 84 -104 84q-69 0 -130.5 -40.5t-106 -106.5t-77.5 -147.5t-49 -165t-16 -158.5q0 -74 34.5 -114t96.5 -40q89 0 169 57.5t140 139.5 l31 -23q-19 -38 -41.5 -74t-58 -77t-75.5 -70.5t-94 -49.5t-112 -20q-258 0 -258 248zM426 1130l414 369q13 -26 35.5 -68t85 -139t118.5 -153q0 -19 -18.5 -38.5t-54.5 -19.5q-56 0 -101.5 55t-68 127t-25.5 142l-270 -324z" />
<glyph unicode="&#x10a;" horiz-adv-x="1390" d="M119 518q0 152 44.5 294.5t129.5 259.5t201 205t266.5 136.5t318.5 48.5q176 0 283.5 -70.5t107.5 -170.5q0 -70 -46 -119t-109 -49q-23 0 -43.5 4.5t-29.5 8.5l-9 5q24 60 24 119q0 77 -68 133.5t-208 56.5q-128 0 -236.5 -45.5t-185 -124t-130.5 -183.5t-79.5 -223.5 t-25.5 -244.5q0 -235 101 -372.5t267 -137.5q371 0 543 311l53 -14l-133 -301q-50 0 -116 -19.5t-160.5 -39t-212.5 -19.5q-257 0 -402 149.5t-145 401.5zM961 1714q0 58 41.5 105t103.5 47q47 0 75.5 -30.5t28.5 -78.5q0 -56 -42 -102.5t-101 -46.5q-47 0 -76.5 30 t-29.5 76z" />
<glyph unicode="&#x10b;" horiz-adv-x="808" d="M92 215q0 99 32 204.5t92.5 200t139 170t180 120t207.5 44.5q61 0 105.5 -27.5t44.5 -84.5t-40 -94t-93 -37q-17 0 -29 4q12 35 12 57q0 84 -104 84q-69 0 -130.5 -40.5t-106 -106.5t-77.5 -147.5t-49 -165t-16 -158.5q0 -74 34.5 -114t96.5 -40q89 0 169 57.5t140 139.5 l31 -23q-19 -38 -41.5 -74t-58 -77t-75.5 -70.5t-94 -49.5t-112 -20q-258 0 -258 248zM723 1337q0 47 34 86t83 39q38 0 62 -25t24 -63q0 -47 -34 -86t-83 -39q-38 0 -62 25t-24 63z" />
<glyph unicode="&#x10c;" horiz-adv-x="1390" d="M119 518q0 152 44.5 294.5t129.5 259.5t201 205t266.5 136.5t318.5 48.5q176 0 283.5 -70.5t107.5 -170.5q0 -70 -46 -119t-109 -49q-23 0 -43.5 4.5t-29.5 8.5l-9 5q24 60 24 119q0 77 -68 133.5t-208 56.5q-128 0 -236.5 -45.5t-185 -124t-130.5 -183.5t-79.5 -223.5 t-25.5 -244.5q0 -235 101 -372.5t267 -137.5q371 0 543 311l53 -14l-133 -301q-50 0 -116 -19.5t-160.5 -39t-212.5 -19.5q-257 0 -402 149.5t-145 401.5zM827 1806l129 72l158 -246q50 85 136.5 163.5t162.5 78.5q37 0 55.5 -16.5t18.5 -40.5l-393 -279z" />
<glyph unicode="&#x10d;" horiz-adv-x="808" d="M92 215q0 99 32 204.5t92.5 200t139 170t180 120t207.5 44.5q61 0 105.5 -27.5t44.5 -84.5t-40 -94t-93 -37q-17 0 -29 4q12 35 12 57q0 84 -104 84q-69 0 -130.5 -40.5t-106 -106.5t-77.5 -147.5t-49 -165t-16 -158.5q0 -74 34.5 -114t96.5 -40q89 0 169 57.5t140 139.5 l31 -23q-19 -38 -41.5 -74t-58 -77t-75.5 -70.5t-94 -49.5t-112 -20q-258 0 -258 248zM543 1452l135 47l125 -313q23 48 57 99.5t76.5 101t91.5 81t92 31.5q37 0 57.5 -16.5t20.5 -36.5q-86 -59 -190 -147.5t-165 -147.5l-61 -59z" />
<glyph unicode="&#x10e;" horiz-adv-x="1646" d="M16 0l15 59l43 11q85 20 128.5 65.5t63.5 134.5l219 961q9 45 9 59q0 35 -22.5 50.5t-72.5 23.5l-65 10l14 60q60 -7 240 -7q51 0 162 3.5t149 3.5q171 0 310.5 -46t229.5 -125.5t138.5 -185t48.5 -225.5q0 -258 -123 -451.5t-348.5 -297t-525.5 -103.5q-58 0 -169.5 3 t-172.5 3q-77 0 -145 -1.5t-97 -2.5zM436 174q0 -55 40 -79.5t126 -24.5q172 0 320.5 49.5t259.5 141.5t175 233.5t64 316.5q0 254 -143.5 403.5t-421.5 149.5q-86 0 -158 -14l-249 -1094q-13 -52 -13 -82zM784 1806l129 72l158 -246q50 85 136.5 163.5t162.5 78.5 q37 0 55.5 -16.5t18.5 -40.5l-393 -279z" />
<glyph unicode="&#x10f;" horiz-adv-x="1167" d="M72 176q0 82 24.5 173t67.5 176.5t105.5 164t134 137t157.5 93t172 34.5q47 0 83.5 -16t53.5 -37l127 371q15 45 15 67q0 32 -31.5 45t-99.5 13v45q22 1 60 4.5t137.5 27.5t178.5 62l-423 -1200q-52 -143 -52 -191q0 -43 41 -43q27 0 58.5 19.5t64.5 58t50 60t44 59.5 l31 -23q-27 -53 -59.5 -101t-77 -98.5t-98 -81t-107.5 -30.5q-51 0 -75.5 25.5t-24.5 93.5q0 15 1.5 31t6.5 35.5t8 32.5t11 36.5t11 32.5t12 35t11 30h-8q-21 -41 -46 -81.5t-66 -91.5t-85 -88t-103 -63t-120 -26q-190 0 -190 209zM231 215q0 -127 105 -127q65 0 144 64 t145.5 161t111.5 222.5t45 236.5q0 46 -22 72t-60 26q-62 0 -124 -33t-112.5 -87.5t-94.5 -124t-74 -142.5t-47 -143t-17 -125zM1249 1110q76 132 76 223q0 49 -22 107q10 45 39 70.5t65 25.5q37 0 56.5 -24.5t19.5 -67.5q0 -47 -18.5 -96t-53.5 -96.5t-66 -82t-75 -77.5z " />
<glyph unicode="&#x110;" horiz-adv-x="1646" d="M16 0l15 59l43 11q85 20 128.5 65.5t63.5 134.5l88 389l-219 -4l25 115q115 -2 219 -4l106 465q9 45 9 59q0 35 -22.5 50.5t-72.5 23.5l-65 10l14 60q60 -7 240 -7q51 0 162 3.5t149 3.5q171 0 310.5 -46t229.5 -125.5t138.5 -185t48.5 -225.5q0 -258 -123 -451.5 t-348.5 -297t-525.5 -103.5q-58 0 -169.5 3t-172.5 3q-77 0 -145 -1.5t-97 -2.5zM436 174q0 -55 40 -79.5t126 -24.5q172 0 320.5 49.5t259.5 141.5t175 233.5t64 316.5q0 254 -143.5 403.5t-421.5 149.5q-86 0 -158 -14l-135 -586q1 0 156 3t199 3l-27 -115q-29 0 -113.5 1 t-159 2t-77.5 1l-92 -403q-13 -52 -13 -82z" />
<glyph unicode="&#x111;" horiz-adv-x="1077" d="M72 176q0 82 24.5 173t67.5 176.5t105.5 164t134 137t157.5 93t172 34.5q47 0 83.5 -16t53.5 -37l80 236l-391 -7l27 93q221 -4 393 -4l18 53q15 45 15 67q0 32 -31.5 45t-99.5 13v45q22 1 60 4.5t137.5 27.5t178.5 62l-112 -317l170 4l-33 -93q-86 3 -166 5l-282 -799 q-52 -143 -52 -191q0 -43 41 -43q27 0 58.5 19.5t64.5 58t50 60t44 59.5l31 -23q-27 -53 -59.5 -101t-77 -98.5t-98 -81t-107.5 -30.5q-51 0 -75.5 25.5t-24.5 93.5q0 15 1.5 31t6.5 35.5t8 32.5t11 36.5t11 32.5t12 35t11 30h-8q-21 -41 -46 -81.5t-66 -91.5t-85 -88 t-103 -63t-120 -26q-190 0 -190 209zM231 215q0 -127 105 -127q65 0 144 64t145.5 161t111.5 222.5t45 236.5q0 46 -22 72t-60 26q-62 0 -124 -33t-112.5 -87.5t-94.5 -124t-74 -142.5t-47 -143t-17 -125z" />
<glyph unicode="&#x112;" horiz-adv-x="1157" d="M16 0l15 59l43 11q85 20 128.5 65.5t63.5 134.5l219 961q9 45 9 59q0 35 -22.5 50.5t-72.5 23.5l-65 10l14 60q107 -7 287 -7l653 7l-88 -336h-41q0 125 -72 195.5t-221 70.5q-98 0 -159 -14l-138 -576h158q83 0 133 38.5t90 119.5l39 80h53q-50 -145 -77 -262 q-13 -56 -22 -112.5t-12 -85.5l-3 -28h-51l-3 51q-3 119 -122 119h-203l-105 -438q-12 -48 -12 -82q0 -55 34.5 -79.5t111.5 -24.5q80 0 150.5 22t118.5 52.5t92 77.5t68 82.5t50 80.5l43 -6l-127 -379q-510 6 -686 6zM635 1663l27 113q149 -7 282 -7q64 0 136 1.5t112 3.5 l39 2l-27 -113q-132 6 -282 6z" />
<glyph unicode="&#x113;" horiz-adv-x="827" d="M90 215q0 89 27 189t81.5 197.5t127.5 176.5t173 127.5t210 48.5q81 0 119 -41.5t38 -99.5q0 -118 -142 -208.5t-435 -166.5q-31 -109 -31 -200q0 -65 34 -109.5t107 -44.5q87 0 174 64t134 133l30 -23q-15 -26 -31 -51t-55.5 -72.5t-81 -81t-103.5 -60t-126 -26.5 q-122 0 -186 65t-64 183zM305 494q404 119 404 305q0 35 -18.5 54t-51.5 19q-60 0 -117 -40.5t-99.5 -105t-70 -120.5t-47.5 -112zM459 1204l24 113q146 -6 279 -6l278 6l-24 -113q-129 6 -279 6z" />
<glyph unicode="&#x114;" horiz-adv-x="1157" d="M16 0l15 59l43 11q85 20 128.5 65.5t63.5 134.5l219 961q9 45 9 59q0 35 -22.5 50.5t-72.5 23.5l-65 10l14 60q107 -7 287 -7l653 7l-88 -336h-41q0 125 -72 195.5t-221 70.5q-98 0 -159 -14l-138 -576h158q83 0 133 38.5t90 119.5l39 80h53q-50 -145 -77 -262 q-13 -56 -22 -112.5t-12 -85.5l-3 -28h-51l-3 51q-3 119 -122 119h-203l-105 -438q-12 -48 -12 -82q0 -55 34.5 -79.5t111.5 -24.5q80 0 150.5 22t118.5 52.5t92 77.5t68 82.5t50 80.5l43 -6l-127 -379q-510 6 -686 6zM668 1769q0 43 12 99h139q-8 -33 -8 -68 q0 -64 36 -99.5t107 -35.5q94 0 162 54.5t90 148.5h58q-34 -148 -129.5 -233t-231.5 -85q-111 0 -173 57t-62 162z" />
<glyph unicode="&#x115;" horiz-adv-x="827" d="M90 215q0 89 27 189t81.5 197.5t127.5 176.5t173 127.5t210 48.5q81 0 119 -41.5t38 -99.5q0 -118 -142 -208.5t-435 -166.5q-31 -109 -31 -200q0 -65 34 -109.5t107 -44.5q87 0 174 64t134 133l30 -23q-15 -26 -31 -51t-55.5 -72.5t-81 -81t-103.5 -60t-126 -26.5 q-122 0 -186 65t-64 183zM305 494q404 119 404 305q0 35 -18.5 54t-51.5 19q-60 0 -117 -40.5t-99.5 -105t-70 -120.5t-47.5 -112zM494 1331q0 43 12 99h139q-8 -33 -8 -68q0 -64 36 -99.5t107 -35.5q94 0 162 54.5t90 148.5h58q-34 -148 -129.5 -233t-231.5 -85 q-111 0 -173 57t-62 162z" />
<glyph unicode="&#x116;" horiz-adv-x="1157" d="M16 0l15 59l43 11q85 20 128.5 65.5t63.5 134.5l219 961q9 45 9 59q0 35 -22.5 50.5t-72.5 23.5l-65 10l14 60q107 -7 287 -7l653 7l-88 -336h-41q0 125 -72 195.5t-221 70.5q-98 0 -159 -14l-138 -576h158q83 0 133 38.5t90 119.5l39 80h53q-50 -145 -77 -262 q-13 -56 -22 -112.5t-12 -85.5l-3 -28h-51l-3 51q-3 119 -122 119h-203l-105 -438q-12 -48 -12 -82q0 -55 34.5 -79.5t111.5 -24.5q80 0 150.5 22t118.5 52.5t92 77.5t68 82.5t50 80.5l43 -6l-127 -379q-510 6 -686 6zM807 1714q0 58 41.5 105t103.5 47q47 0 76 -30.5 t29 -78.5q0 -56 -42.5 -102.5t-101.5 -46.5q-47 0 -76.5 30t-29.5 76z" />
<glyph unicode="&#x117;" horiz-adv-x="827" d="M90 215q0 89 27 189t81.5 197.5t127.5 176.5t173 127.5t210 48.5q81 0 119 -41.5t38 -99.5q0 -118 -142 -208.5t-435 -166.5q-31 -109 -31 -200q0 -65 34 -109.5t107 -44.5q87 0 174 64t134 133l30 -23q-15 -26 -31 -51t-55.5 -72.5t-81 -81t-103.5 -60t-126 -26.5 q-122 0 -186 65t-64 183zM305 494q404 119 404 305q0 35 -18.5 54t-51.5 19q-60 0 -117 -40.5t-99.5 -105t-70 -120.5t-47.5 -112zM698 1337q0 47 34 86t83 39q38 0 62 -25t24 -63q0 -47 -34 -86t-83 -39q-38 0 -62 25t-24 63z" />
<glyph unicode="&#x118;" horiz-adv-x="1157" d="M16 0l15 59l43 11q85 20 128.5 65.5t63.5 134.5l219 961q9 45 9 59q0 35 -22.5 50.5t-72.5 23.5l-65 10l14 60q107 -7 287 -7l653 7l-88 -336h-41q0 125 -72 195.5t-221 70.5q-98 0 -159 -14l-138 -576h158q83 0 133 38.5t90 119.5l39 80h53q-50 -145 -77 -262 q-13 -56 -22 -112.5t-12 -85.5l-3 -28h-51l-3 51q-3 119 -122 119h-203l-105 -438q-12 -48 -12 -82q0 -55 34.5 -79.5t111.5 -24.5q80 0 150.5 22t118.5 52.5t92 77.5t68 82.5t50 80.5l43 -6l-127 -379q-238 -173 -238 -305q0 -44 27 -68t80 -24q33 0 62.5 12.5t43.5 26.5 q19 -10 19 -35q0 -35 -56.5 -73t-158.5 -38q-78 0 -124 38.5t-46 107.5q0 51 24 101t59 88t82 73t84 57t74 39q-429 6 -618 6z" />
<glyph unicode="&#x119;" horiz-adv-x="827" d="M82 -362q0 179 264 329q-126 0 -191 64.5t-65 183.5q0 89 27 189t81.5 197.5t127.5 176.5t173 127.5t210 48.5q81 0 119 -41.5t38 -99.5q0 -118 -142 -208.5t-435 -166.5q-31 -109 -31 -200q0 -65 34 -109.5t107 -44.5q87 0 174 64t134 133l30 -23q-35 -73 -101 -141.5 t-133 -118.5t-129 -98.5t-101.5 -101t-39.5 -107.5q0 -43 28 -67.5t81 -24.5q34 0 63 12.5t41 26.5q21 -9 21 -35q0 -35 -56.5 -73t-158.5 -38q-78 0 -124 38.5t-46 107.5zM305 494q404 119 404 305q0 35 -18.5 54t-51.5 19q-60 0 -117 -40.5t-99.5 -105t-70 -120.5 t-47.5 -112z" />
<glyph unicode="&#x11a;" horiz-adv-x="1157" d="M16 0l15 59l43 11q85 20 128.5 65.5t63.5 134.5l219 961q9 45 9 59q0 35 -22.5 50.5t-72.5 23.5l-65 10l14 60q107 -7 287 -7l653 7l-88 -336h-41q0 125 -72 195.5t-221 70.5q-98 0 -159 -14l-138 -576h158q83 0 133 38.5t90 119.5l39 80h53q-50 -145 -77 -262 q-13 -56 -22 -112.5t-12 -85.5l-3 -28h-51l-3 51q-3 119 -122 119h-203l-105 -438q-12 -48 -12 -82q0 -55 34.5 -79.5t111.5 -24.5q80 0 150.5 22t118.5 52.5t92 77.5t68 82.5t50 80.5l43 -6l-127 -379q-510 6 -686 6zM629 1806l129 72l157 -246q50 85 136.5 163.5 t162.5 78.5q37 0 55.5 -16.5t18.5 -40.5l-393 -279z" />
<glyph unicode="&#x11b;" horiz-adv-x="829" d="M90 215q0 89 27 189t81.5 197.5t127.5 176.5t173 127.5t210 48.5q81 0 119 -41.5t38 -99.5q0 -118 -142 -208.5t-435 -166.5q-31 -109 -31 -200q0 -65 34 -109.5t107 -44.5q87 0 174 64t134 133l30 -23q-15 -26 -31 -51t-55.5 -72.5t-81 -81t-103.5 -60t-126 -26.5 q-122 0 -186 65t-64 183zM305 494q404 119 404 305q0 35 -18.5 54t-51.5 19q-60 0 -117 -40.5t-99.5 -105t-70 -120.5t-47.5 -112zM494 1452l135 47l125 -313q23 48 57 99.5t76.5 101t91.5 81t92 31.5q37 0 57.5 -16.5t20.5 -36.5q-86 -59 -190 -147.5t-165 -147.5l-61 -59z " />
<glyph unicode="&#x11c;" horiz-adv-x="1511" d="M117 559q0 184 73.5 350.5t199.5 288t303.5 193t377.5 71.5q91 0 218 -28.5t177 -28.5l-102 -334l-33 4q0 47 -5.5 84t-25.5 81t-54 73t-97.5 49t-149.5 20q-122 0 -230.5 -44t-189 -122t-139 -181t-88.5 -224.5t-30 -249.5q0 -228 114.5 -371t298.5 -143q140 0 234.5 52 t122.5 163l43 170q6 18 6 35q0 37 -24 56t-81 26l-80 10l15 59h528l-12 -59l-31 -10q-116 -39 -164 -197l-75 -262q-39 0 -96.5 -19t-111.5 -42.5t-140.5 -42.5t-178.5 -19q-274 0 -423.5 149t-149.5 443zM754 1597l393 281q139 -166 266 -285q-1 -23 -18.5 -36t-40.5 -13 q-64 0 -128 71t-100 169l-272 -246z" />
<glyph unicode="&#x11d;" horiz-adv-x="897" d="M-86 -274q0 77 44.5 124.5t109.5 47.5q34 0 56.5 -16.5t25.5 -39.5q-41 -7 -69 -35.5t-28 -80.5q0 -77 71.5 -133t194.5 -56q77 0 136 18t90.5 47.5t47 61.5t15.5 66q0 65 -44.5 100.5t-153.5 67.5q-33 10 -44.5 13.5t-41.5 13.5t-42 15.5t-36.5 16.5t-35 20t-26.5 23.5 t-23 28.5t-12.5 32.5t-5.5 38.5q0 75 56.5 120.5t130.5 55.5q-66 20 -106 75.5t-40 142.5q0 112 54.5 218t150 174t203.5 68q50 0 84 -12.5t69 -44.5q58 -12 105 -12q84 0 143 41q35 -26 35 -66q0 -36 -24 -59t-68 -23q-39 0 -91 28t-59 30q21 -47 21 -121 q0 -108 -49.5 -208t-136 -165t-187.5 -74q-151 -26 -151 -108q0 -40 47.5 -64.5t154.5 -56.5q147 -42 209 -105.5t62 -162.5q0 -135 -129 -222.5t-334 -87.5q-172 0 -275.5 73t-103.5 192zM332 508q0 -91 28.5 -136.5t79.5 -45.5q56 0 100.5 41.5t69 104t37 125t12.5 116.5 q0 84 -27.5 133t-84.5 49q-45 0 -82.5 -28t-61.5 -71t-40.5 -96.5t-23.5 -102t-7 -89.5zM346 1130l414 369q13 -26 35.5 -68t85 -139t118.5 -153q0 -19 -18.5 -38.5t-54.5 -19.5q-56 0 -101.5 55t-68 127t-25.5 142l-270 -324z" />
<glyph unicode="&#x11e;" horiz-adv-x="1509" d="M117 559q0 184 73.5 350.5t199.5 288t303.5 193t377.5 71.5q91 0 218 -28.5t177 -28.5l-102 -334l-33 4q0 47 -5.5 84t-25.5 81t-54 73t-97.5 49t-149.5 20q-122 0 -230.5 -44t-189 -122t-139 -181t-88.5 -224.5t-30 -249.5q0 -228 114.5 -371t298.5 -143q140 0 234.5 52 t122.5 163l43 170q6 18 6 35q0 37 -24 56t-81 26l-80 10l15 59h528l-12 -59l-31 -10q-116 -39 -164 -197l-75 -262q-39 0 -96.5 -19t-111.5 -42.5t-140.5 -42.5t-178.5 -19q-274 0 -423.5 149t-149.5 443zM866 1769q0 39 13 99h139q-8 -33 -8 -68q0 -64 36 -99.5t107 -35.5 q94 0 162 54.5t90 148.5h57q-34 -149 -129 -233.5t-231 -84.5q-111 0 -173.5 57t-62.5 162z" />
<glyph unicode="&#x11f;" horiz-adv-x="897" d="M-86 -274q0 77 44.5 124.5t109.5 47.5q34 0 56.5 -16.5t25.5 -39.5q-41 -7 -69 -35.5t-28 -80.5q0 -77 71.5 -133t194.5 -56q77 0 136 18t90.5 47.5t47 61.5t15.5 66q0 65 -44.5 100.5t-153.5 67.5q-33 10 -44.5 13.5t-41.5 13.5t-42 15.5t-36.5 16.5t-35 20t-26.5 23.5 t-23 28.5t-12.5 32.5t-5.5 38.5q0 75 56.5 120.5t130.5 55.5q-66 20 -106 75.5t-40 142.5q0 112 54.5 218t150 174t203.5 68q50 0 84 -12.5t69 -44.5q58 -12 105 -12q84 0 143 41q35 -26 35 -66q0 -36 -24 -59t-68 -23q-39 0 -91 28t-59 30q21 -47 21 -121 q0 -108 -49.5 -208t-136 -165t-187.5 -74q-151 -26 -151 -108q0 -40 47.5 -64.5t154.5 -56.5q147 -42 209 -105.5t62 -162.5q0 -135 -129 -222.5t-334 -87.5q-172 0 -275.5 73t-103.5 192zM332 508q0 -91 28.5 -136.5t79.5 -45.5q56 0 100.5 41.5t69 104t37 125t12.5 116.5 q0 84 -27.5 133t-84.5 49q-45 0 -82.5 -28t-61.5 -71t-40.5 -96.5t-23.5 -102t-7 -89.5zM489 1331q0 39 13 99h139q-8 -33 -8 -68q0 -64 36 -99.5t107 -35.5q94 0 162 54.5t90 148.5h57q-34 -149 -129 -233.5t-231 -84.5q-111 0 -173.5 57t-62.5 162z" />
<glyph unicode="&#x120;" horiz-adv-x="1509" d="M117 559q0 184 73.5 350.5t199.5 288t303.5 193t377.5 71.5q91 0 218 -28.5t177 -28.5l-102 -334l-33 4q0 47 -5.5 84t-25.5 81t-54 73t-97.5 49t-149.5 20q-122 0 -230.5 -44t-189 -122t-139 -181t-88.5 -224.5t-30 -249.5q0 -228 114.5 -371t298.5 -143q140 0 234.5 52 t122.5 163l43 170q6 18 6 35q0 37 -24 56t-81 26l-80 10l15 59h528l-12 -59l-31 -10q-116 -39 -164 -197l-75 -262q-39 0 -96.5 -19t-111.5 -42.5t-140.5 -42.5t-178.5 -19q-274 0 -423.5 149t-149.5 443zM1034 1714q0 58 42 105t104 47q47 0 75.5 -30.5t28.5 -78.5 q0 -56 -42 -102.5t-101 -46.5q-47 0 -77 30t-30 76z" />
<glyph unicode="&#x121;" horiz-adv-x="894" d="M-86 -274q0 77 44.5 124.5t109.5 47.5q34 0 56.5 -16.5t25.5 -39.5q-41 -7 -69 -35.5t-28 -80.5q0 -77 71.5 -133t194.5 -56q77 0 136 18t90.5 47.5t47 61.5t15.5 66q0 65 -44.5 100.5t-153.5 67.5q-33 10 -44.5 13.5t-41.5 13.5t-42 15.5t-36.5 16.5t-35 20t-26.5 23.5 t-23 28.5t-12.5 32.5t-5.5 38.5q0 75 56.5 120.5t130.5 55.5q-66 20 -106 75.5t-40 142.5q0 112 54.5 218t150 174t203.5 68q50 0 84 -12.5t69 -44.5q58 -12 105 -12q84 0 143 41q35 -26 35 -66q0 -36 -24 -59t-68 -23q-39 0 -91 28t-59 30q21 -47 21 -121 q0 -108 -49.5 -208t-136 -165t-187.5 -74q-151 -26 -151 -108q0 -40 47.5 -64.5t154.5 -56.5q147 -42 209 -105.5t62 -162.5q0 -135 -129 -222.5t-334 -87.5q-172 0 -275.5 73t-103.5 192zM332 508q0 -91 28.5 -136.5t79.5 -45.5q56 0 100.5 41.5t69 104t37 125t12.5 116.5 q0 84 -27.5 133t-84.5 49q-45 0 -82.5 -28t-61.5 -71t-40.5 -96.5t-23.5 -102t-7 -89.5zM639 1337q0 47 34 86t83 39q38 0 62 -25t24 -63q0 -47 -34 -86t-83 -39q-38 0 -62 25t-24 63z" />
<glyph unicode="&#x122;" horiz-adv-x="1509" d="M117 559q0 184 73.5 350.5t199.5 288t303.5 193t377.5 71.5q91 0 218 -28.5t177 -28.5l-102 -334l-33 4q0 47 -5.5 84t-25.5 81t-54 73t-97.5 49t-149.5 20q-122 0 -230.5 -44t-189 -122t-139 -181t-88.5 -224.5t-30 -249.5q0 -228 114.5 -371t298.5 -143q140 0 234.5 52 t122.5 163l43 170q6 18 6 35q0 37 -24 56t-81 26l-80 10l15 59h528l-12 -59l-31 -10q-116 -39 -164 -197l-75 -262q-39 0 -96.5 -19t-111.5 -42.5t-140.5 -42.5t-178.5 -19q-274 0 -423.5 149t-149.5 443zM328 -537q91 24 143.5 77t52.5 110q0 69 -71 98q12 55 54.5 90 t100.5 35q50 0 81.5 -30.5t31.5 -82.5q0 -55 -24.5 -105.5t-64.5 -88.5t-91 -68t-104.5 -47.5t-104.5 -23.5z" />
<glyph unicode="&#x123;" horiz-adv-x="897" d="M-86 -274q0 77 44.5 124.5t109.5 47.5q34 0 56.5 -16.5t25.5 -39.5q-41 -7 -69 -35.5t-28 -80.5q0 -77 71.5 -133t194.5 -56q77 0 136 18t90.5 47.5t47 61.5t15.5 66q0 65 -44.5 100.5t-153.5 67.5q-33 10 -44.5 13.5t-41.5 13.5t-42 15.5t-36.5 16.5t-35 20t-26.5 23.5 t-23 28.5t-12.5 32.5t-5.5 38.5q0 75 56.5 120.5t130.5 55.5q-66 20 -106 75.5t-40 142.5q0 112 54.5 218t150 174t203.5 68q50 0 84 -12.5t69 -44.5q58 -12 105 -12q84 0 143 41q35 -26 35 -66q0 -36 -24 -59t-68 -23q-39 0 -91 28t-59 30q21 -47 21 -121 q0 -108 -49.5 -208t-136 -165t-187.5 -74q-151 -26 -151 -108q0 -40 47.5 -64.5t154.5 -56.5q147 -42 209 -105.5t62 -162.5q0 -135 -129 -222.5t-334 -87.5q-172 0 -275.5 73t-103.5 192zM332 508q0 -91 28.5 -136.5t79.5 -45.5q56 0 100.5 41.5t69 104t37 125t12.5 116.5 q0 84 -27.5 133t-84.5 49q-45 0 -82.5 -28t-61.5 -71t-40.5 -96.5t-23.5 -102t-7 -89.5zM600 1190q0 68 37 129t95.5 102.5t125.5 68t131 34.5l4 -37q-91 -24 -143.5 -77t-52.5 -110q0 -69 71 -98q-12 -55 -54.5 -90t-100.5 -35q-50 0 -81.5 30.5t-31.5 82.5z" />
<glyph unicode="&#x124;" horiz-adv-x="1689" d="M16 0l15 59l43 11q85 20 128.5 65.5t63.5 134.5l219 961q9 45 9 59q0 35 -22.5 50.5t-72.5 23.5l-65 10l14 60q107 -7 287 -7q75 0 142.5 1.5t97.5 3.5l30 2l-14 -60l-43 -10q-85 -20 -129 -66t-64 -135l-86 -379h740l102 447q8 40 8 59q0 35 -22 50.5t-72 23.5l-65 10 l14 60q107 -7 287 -7q75 0 142.5 1.5t97.5 3.5l30 2l-14 -60l-43 -10q-85 -20 -129 -66t-64 -135l-219 -960q-8 -40 -8 -60q0 -35 22 -50t72 -23l65 -11l-14 -59q-111 6 -287 6q-77 0 -144.5 -1.5t-96.5 -2.5l-29 -2l14 59l43 11q85 20 129 65.5t64 134.5l98 430h-741 l-113 -497q-8 -40 -8 -60q0 -35 22 -50t72 -23l66 -11l-15 -59q-110 6 -286 6q-77 0 -145 -1.5t-97 -2.5zM803 1597l393 281q139 -166 266 -285q-1 -23 -18.5 -36t-40.5 -13q-64 0 -127.5 71t-99.5 169l-273 -246z" />
<glyph unicode="&#x125;" horiz-adv-x="1040" d="M100 39q0 22 11 59l397 1174q14 42 14 67q0 32 -31.5 45t-99.5 13v45q22 1 60 4.5t138 27.5t179 62q-129 -339 -244.5 -643t-156.5 -411t-43 -113h8q56 112 120.5 212t139 186t156 136.5t155.5 50.5q58 0 83.5 -25.5t25.5 -76.5q0 -73 -39 -180l-123 -348 q-55 -154 -55 -193q0 -29 30 -29q58 0 176 168l31 -22q-28 -51 -59.5 -96t-73 -89t-91 -70t-99.5 -26q-39 0 -58.5 18t-19.5 60q0 81 69 279l123 350q25 73 25 102q0 41 -31 41q-73 0 -174.5 -100.5t-186 -236t-144.5 -277t-60 -219.5q-25 -17 -74 -17q-36 0 -57 19.5 t-21 52.5zM696 1679l394 281q139 -166 266 -285q-1 -23 -18.5 -36t-41.5 -13q-64 0 -127.5 71t-99.5 169l-272 -246z" />
<glyph unicode="&#x126;" horiz-adv-x="1742" d="M16 0l15 59l55 11q138 24 178 200l168 725l-184 -2l22 94q76 -2 185 -2l32 146q17 68 -3.5 96t-84.5 37l-65 10l14 60q127 -7 287 -7q64 0 137 1.5t114 3.5l42 2l-15 -60l-53 -10q-70 -12 -121 -63.5t-71 -137.5l-19 -80q154 -2 371 -2q235 0 401 2l35 148q17 68 -3.5 96 t-84.5 37l-65 10l14 60q127 -7 287 -7q64 0 137 1.5t114 3.5l41 2l-14 -60l-53 -10q-70 -12 -121 -63t-72 -138l-18 -78l197 2l-23 -94q-82 0 -195 2l-182 -792q-17 -68 4 -96.5t84 -36.5l76 -11l-14 -59q-137 6 -297 6l-283 -6l14 59l56 11q138 24 178 200l98 428h-770 l-115 -495q-17 -68 4.5 -96.5t84.5 -36.5l75 -11l-14 -59q-137 6 -297 6zM580 782h772l49 215q-95 0 -236.5 1t-163.5 1q-17 0 -149.5 -1t-222.5 -1z" />
<glyph unicode="&#x127;" horiz-adv-x="1040" d="M100 39q0 22 11 59l350 1035l-191 -3l23 93q104 -4 196 -6l19 55q14 42 14 67q0 32 -31.5 45t-99.5 13v45q22 1 60 4.5t138 27.5t179 62l-121 -319l420 6l-23 -93l-428 7q-289 -754 -292 -768h8q56 112 120.5 212t139 186t156 136.5t155.5 50.5q58 0 83.5 -25.5 t25.5 -76.5q0 -73 -39 -180l-123 -348q-55 -154 -55 -193q0 -29 30 -29q58 0 176 168l31 -22q-28 -51 -59.5 -96t-73 -89t-91 -70t-99.5 -26q-39 0 -58.5 18t-19.5 60q0 81 69 279l123 350q25 73 25 102q0 41 -31 41q-73 0 -174.5 -100.5t-186 -236t-144.5 -277t-60 -219.5 q-25 -17 -74 -17q-36 0 -57 19.5t-21 52.5z" />
<glyph unicode="&#x128;" horiz-adv-x="763" d="M16 0l15 59l43 11q85 20 128.5 65.5t63.5 134.5l219 961q9 45 9 59q0 35 -22.5 50.5t-72.5 23.5l-65 10l14 60q107 -7 287 -7q75 0 142.5 1.5t97.5 3.5l30 2l-14 -60l-43 -10q-85 -20 -129 -66t-64 -135l-219 -960q-8 -40 -8 -60q0 -35 22 -50t72 -23l66 -11l-15 -59 q-110 6 -286 6q-77 0 -145 -1.5t-97 -2.5zM346 1626q35 88 99 141.5t145 53.5q42 0 78 -15.5t58 -34t55 -34t69 -15.5q107 0 166 105l22 -33q-35 -90 -99 -142.5t-153 -52.5q-40 0 -74.5 15.5t-55.5 34t-53 34t-68 15.5q-107 0 -164 -105z" />
<glyph unicode="&#x129;" horiz-adv-x="571" d="M100 45q0 84 52 225l149 420q14 37 14 66q0 33 -31 45t-100 12v45q22 1 60 4.5t138 27.5t179 62l-242 -628q-55 -146 -55 -193q0 -29 27 -29q35 0 118.5 73t120.5 126l31 -20q-36 -65 -96.5 -135t-140.5 -124.5t-146 -54.5q-39 0 -58.5 18t-19.5 60zM225 1192 q35 87 98.5 140.5t145.5 53.5q42 0 78 -15.5t58 -33.5t55 -33.5t69 -15.5q107 0 166 105l23 -33q-35 -90 -99 -142.5t-153 -52.5q-40 0 -75 15.5t-55.5 34t-53 34t-68.5 15.5q-107 0 -164 -105z" />
<glyph unicode="&#x12a;" horiz-adv-x="763" d="M16 0l15 59l43 11q85 20 128.5 65.5t63.5 134.5l219 961q9 45 9 59q0 35 -22.5 50.5t-72.5 23.5l-65 10l14 60q107 -7 287 -7q75 0 142.5 1.5t97.5 3.5l30 2l-14 -60l-43 -10q-85 -20 -129 -66t-64 -135l-219 -960q-8 -40 -8 -60q0 -35 22 -50t72 -23l66 -11l-15 -59 q-110 6 -286 6q-77 0 -145 -1.5t-97 -2.5zM401 1663l27 113q150 -7 283 -7q64 0 135.5 1.5t111.5 3.5l39 2l-26 -113q-133 6 -283 6z" />
<glyph unicode="&#x12b;" horiz-adv-x="571" d="M100 45q0 84 52 225l149 420q14 37 14 66q0 33 -31 45t-100 12v45q22 1 60 4.5t138 27.5t179 62l-242 -628q-55 -146 -55 -193q0 -29 27 -29q35 0 118.5 73t120.5 126l31 -20q-36 -65 -96.5 -135t-140.5 -124.5t-146 -54.5q-39 0 -58.5 18t-19.5 60zM256 1204l25 113 q145 -6 278 -6l279 6l-25 -113q-128 6 -278 6z" />
<glyph unicode="&#x12c;" horiz-adv-x="763" d="M16 0l15 59l43 11q85 20 128.5 65.5t63.5 134.5l219 961q9 45 9 59q0 35 -22.5 50.5t-72.5 23.5l-65 10l14 60q107 -7 287 -7q75 0 142.5 1.5t97.5 3.5l30 2l-14 -60l-43 -10q-85 -20 -129 -66t-64 -135l-219 -960q-8 -40 -8 -60q0 -35 22 -50t72 -23l66 -11l-15 -59 q-110 6 -286 6q-77 0 -145 -1.5t-97 -2.5zM420 1769q0 43 12 99h139q-8 -33 -8 -68q0 -64 36.5 -99.5t107.5 -35.5q94 0 161.5 54.5t89.5 148.5h58q-34 -148 -129.5 -233t-231.5 -85q-111 0 -173 57t-62 162z" />
<glyph unicode="&#x12d;" horiz-adv-x="573" d="M100 45q0 84 52 225l149 420q14 37 14 66q0 33 -31 45t-100 12v45q22 1 60 4.5t138 27.5t179 62l-242 -628q-55 -146 -55 -193q0 -29 27 -29q35 0 118.5 73t120.5 126l31 -20q-36 -65 -96.5 -135t-140.5 -124.5t-146 -54.5q-39 0 -58.5 18t-19.5 60zM326 1331q0 43 12 99 h139q-8 -33 -8 -68q0 -64 36 -99.5t107 -35.5q94 0 162 54.5t90 148.5h58q-34 -148 -129.5 -233t-231.5 -85q-111 0 -173 57t-62 162z" />
<glyph unicode="&#x12e;" horiz-adv-x="774" d="M16 0l15 59l55 11q137 24 180 200l221 961q17 68 -3.5 96t-84.5 37l-65 10l14 60q127 -7 287 -7q64 0 134.5 1.5t109.5 3.5l39 2l-15 -60l-43 -10q-70 -16 -121.5 -66t-70.5 -135l-222 -960q-17 -68 4.5 -96t84.5 -37l65 -11l-14 -59q-238 -173 -238 -305q0 -44 27 -68 t80 -24q33 0 62.5 12.5t43.5 26.5q19 -10 19 -35q0 -35 -56 -73t-159 -38q-78 0 -124 38.5t-46 107.5q0 52 24.5 103t59.5 88.5t83 73t84.5 56.5t73.5 39q-106 4 -221 4z" />
<glyph unicode="&#x12f;" horiz-adv-x="571" d="M-111 -362q0 179 267 331q-56 6 -56 76q0 84 52 225l149 420q14 37 14 66q0 33 -31 45t-100 12v45q22 1 60 4.5t138 27.5t179 62l-242 -628q-55 -146 -55 -193q0 -29 27 -29q35 0 118.5 73t120.5 126l31 -20q-43 -76 -114.5 -148t-138.5 -124t-129 -102.5t-100 -105 t-38 -110.5q0 -43 28 -67.5t81 -24.5q34 0 63 12.5t41 26.5q20 -9 20 -35q0 -35 -56.5 -73t-158.5 -38q-78 0 -124 38.5t-46 107.5zM489 1337q0 47 34 86t83 39q38 0 62 -25t24 -63q0 -47 -34 -86t-83 -39q-38 0 -62 25t-24 63z" />
<glyph unicode="&#x130;" horiz-adv-x="763" d="M16 0l15 59l43 11q85 20 128.5 65.5t63.5 134.5l219 961q9 45 9 59q0 35 -22.5 50.5t-72.5 23.5l-65 10l14 60q107 -7 287 -7q75 0 142.5 1.5t97.5 3.5l30 2l-14 -60l-43 -10q-85 -20 -129 -66t-64 -135l-219 -960q-8 -40 -8 -60q0 -35 22 -50t72 -23l66 -11l-15 -59 q-110 6 -286 6q-77 0 -145 -1.5t-97 -2.5zM586 1714q0 58 41.5 105t103.5 47q47 0 76 -30.5t29 -78.5q0 -56 -42.5 -102.5t-101.5 -46.5q-47 0 -76.5 30t-29.5 76z" />
<glyph unicode="&#x131;" horiz-adv-x="571" d="M100 45q0 84 52 225l149 420q14 37 14 66q0 33 -31 45t-100 12v45q22 1 60 4.5t138 27.5t179 62l-242 -628q-55 -146 -55 -193q0 -29 27 -29q35 0 118.5 73t120.5 126l31 -20q-36 -65 -96.5 -135t-140.5 -124.5t-146 -54.5q-39 0 -58.5 18t-19.5 60z" />
<glyph unicode="&#x132;" horiz-adv-x="1884" d="M16 0l15 59l43 11q85 20 128.5 65.5t63.5 134.5l219 961q9 45 9 59q0 35 -22.5 50.5t-72.5 23.5l-65 10l14 60q107 -7 287 -7q75 0 142.5 1.5t97.5 3.5l30 2l-14 -60l-43 -10q-85 -20 -129 -66t-64 -135l-219 -960q-8 -40 -8 -60q0 -35 22 -50t72 -23l66 -11l-15 -59 q-110 6 -286 6q-77 0 -145 -1.5t-97 -2.5zM768 -307q0 45 32.5 70.5t69.5 25.5q19 0 27 -4q-10 -27 -10 -51q0 -43 30 -72t89 -29q42 0 82.5 19.5t84 63.5t84 129t70.5 204l121 477l-277 -53l-12 94l309 54l168 686h-8q-67 -76 -174 -76q-48 0 -100 24.5t-103.5 49 t-99.5 24.5q-58 0 -98.5 -37t-40.5 -96q0 -90 84 -90q21 0 39.5 6.5t30 15t19.5 17.5t11 15l4 7q60 -29 60 -98q0 -43 -36.5 -74.5t-107.5 -31.5q-72 0 -121 54.5t-49 131.5q0 115 96.5 203t221.5 88q48 0 89 -16t64.5 -35.5t56 -35.5t66.5 -16q35 0 70.5 23t65.5 55.5 l60 65t66 55.5t72 23q30 0 56.5 -9t43 -22.5t28.5 -26.5t18 -22l5 -9l-12 -53q-49 37 -110 37q-53 0 -66 -53l-180 -750l160 31v-90l-179 -35l-116 -444q-31 -117 -80.5 -214.5t-118.5 -174t-163.5 -119.5t-205.5 -43q-87 0 -136.5 35t-49.5 96z" />
<glyph unicode="&#x133;" horiz-adv-x="1130" d="M100 45q0 84 52 225l149 420q14 37 14 66q0 33 -31 45t-100 12v45q22 1 60 4.5t138 27.5t179 62l-242 -628q-55 -146 -55 -193q0 -29 27 -29q35 0 118.5 73t120.5 126l31 -20q-36 -65 -96.5 -135t-140.5 -124.5t-146 -54.5q-39 0 -58.5 18t-19.5 60zM229 -393 q51 44 164.5 90t155.5 86q50 46 81.5 104.5t61.5 155.5l209 645q12 48 12 68q0 33 -34 45t-105 12v45q22 1 60 4.5t138 27.5t179 62l-274 -852q-44 -137 -98.5 -228.5t-147.5 -158.5q-50 -36 -119 -54.5t-142 -37t-128 -53.5zM489 1337q0 47 34 86t83 39q38 0 62 -25t24 -63 q0 -47 -34 -86t-83 -39q-38 0 -62 25t-24 63zM1061 1337q0 47 34 86t83 39q38 0 62 -25t24 -63q0 -47 -34 -86t-83 -39q-38 0 -62 25t-24 63z" />
<glyph unicode="&#x134;" horiz-adv-x="1114" d="M-2 -307q0 45 32.5 70.5t69.5 25.5q19 0 27 -4q-10 -27 -10 -51q0 -43 30 -72t89 -29q42 0 82.5 19.5t84 63.5t84 129t70.5 204l121 477l-277 -53l-12 94l309 54l168 686h-8q-67 -76 -174 -76q-48 0 -100 24.5t-103.5 49t-99.5 24.5q-58 0 -98.5 -37t-40.5 -96 q0 -90 84 -90q21 0 39.5 6.5t30 15t19.5 17.5t11 15l4 7q59 -29 59 -98q0 -43 -36 -74.5t-107 -31.5q-72 0 -121 54.5t-49 131.5q0 115 96.5 203t221.5 88q48 0 89 -16t64.5 -35.5t56 -35.5t66.5 -16q35 0 70.5 23t65.5 55.5l60 65t66 55.5t72 23q30 0 56.5 -9t43 -22.5 t28.5 -26.5t18 -22l5 -9l-12 -53q-49 37 -110 37q-53 0 -66 -53l-180 -750l160 31v-90l-179 -35l-116 -444q-31 -117 -80.5 -214.5t-118.5 -174t-163.5 -119.5t-205.5 -43q-87 0 -136.5 35t-49.5 96zM541 1655l393 280q139 -165 266 -284q-1 -23 -18.5 -36t-40.5 -13 q-65 0 -128.5 70.5t-99.5 168.5l-272 -246z" />
<glyph unicode="&#x135;" horiz-adv-x="557" d="M-342 -393q51 44 164 90t155 86q50 46 82 105t62 155l209 645q12 48 12 68q0 33 -34 45t-105 12v45q22 1 60 4.5t138 27.5t179 62l-275 -852q-44 -137 -98.5 -228.5t-147.5 -158.5q-50 -36 -119 -54.5t-142 -37t-128 -53.5zM217 1130l414 369q13 -26 35.5 -68t85 -139 t118.5 -153q0 -19 -18.5 -38.5t-54.5 -19.5q-56 0 -101.5 55t-68 127t-25.5 142l-270 -324z" />
<glyph unicode="&#x136;" horiz-adv-x="1519" d="M16 0l15 59l43 11q85 20 128.5 65.5t63.5 134.5l219 961q9 45 9 59q0 35 -22.5 50.5t-72.5 23.5l-65 10l14 60q107 -7 287 -7q75 0 142.5 1.5t97.5 3.5l30 2l-14 -60l-43 -10q-85 -20 -129 -66t-64 -135l-100 -436h162l512 543q22 22 22 47q0 39 -55 47l-59 10l14 60 q164 -7 281 -7l256 7l-15 -60l-69 -10q-161 -23 -285 -150l-463 -475l287 -526q40 -73 103.5 -114.5t139.5 -41.5l74 4l-8 -43q-68 -34 -172 -34q-117 0 -194.5 41t-127.5 137l-188 377q-53 104 -158 104q-52 0 -80 -16l-96 -424q-8 -40 -8 -60q0 -35 22 -50t72 -23l66 -11 l-15 -59q-110 6 -286 6q-77 0 -145 -1.5t-97 -2.5zM467 -537q91 24 144 77t53 110q0 69 -72 98q12 55 55 90t101 35q50 0 81 -30.5t31 -82.5q0 -55 -24.5 -105.5t-64.5 -88.5t-91 -68t-104.5 -47.5t-104.5 -23.5z" />
<glyph unicode="&#x137;" horiz-adv-x="1091" d="M90 39q0 26 10 59l400 1174q14 42 14 67q0 32 -31.5 45t-99.5 13v45q22 1 60 4.5t138 27.5t179 62q-447 -1166 -447 -1167h9q58 121 121 220.5t136.5 184.5t157.5 132.5t168 47.5q53 0 92 -16t59 -42t29 -51.5t9 -51.5q0 -256 -449 -365l29 -104q39 -146 96.5 -207.5 t149.5 -61.5q56 0 118 25l15 -21q-3 -4 -8.5 -10t-24.5 -22.5t-40.5 -29t-56 -22.5t-71.5 -10q-133 0 -204 75.5t-107 248.5l-31 147q61 18 128.5 47t137 69t114 91.5t44.5 101.5q0 72 -86 72q-74 0 -161.5 -65.5t-164 -167t-141 -215t-102 -218t-37.5 -167.5 q-25 -17 -74 -17q-36 0 -57 19.5t-21 52.5zM184 -537q91 24 144 77t53 110q0 69 -72 98q12 55 55 90t101 35q50 0 81.5 -30.5t31.5 -82.5q0 -55 -24.5 -105.5t-65 -88.5t-91.5 -68t-104.5 -47.5t-104.5 -23.5z" />
<glyph unicode="&#x138;" horiz-adv-x="1091" d="M90 39q0 26 10 59l187 590q14 42 14 68q0 32 -31.5 44.5t-99.5 12.5v45q22 1 60 4.5t138 27.5t179 62q-232 -574 -234 -583h9q65 126 126.5 222t135.5 183t155.5 133.5t165.5 46.5q51 0 89.5 -16t59 -42t30.5 -52t10 -51q0 -256 -449 -365l29 -104q39 -146 96.5 -207.5 t149.5 -61.5q56 0 118 25l15 -21q-3 -4 -8.5 -10t-24.5 -22.5t-40.5 -29t-56 -22.5t-71.5 -10q-133 0 -204 75.5t-107 248.5l-31 147q61 18 128.5 47t137 69t114 91.5t44.5 101.5q0 72 -86 72q-74 0 -161.5 -65.5t-164 -167t-141 -215t-102 -218t-37.5 -167.5 q-25 -17 -74 -17q-36 0 -57 19.5t-21 52.5z" />
<glyph unicode="&#x139;" horiz-adv-x="1142" d="M16 0l15 59l43 11q85 20 128.5 65.5t63.5 134.5l219 961q9 45 9 59q0 35 -22.5 50.5t-72.5 23.5l-65 10l14 60q107 -7 287 -7q75 0 142.5 1.5t97.5 3.5l30 2l-14 -60l-43 -10q-85 -20 -129 -66t-64 -135l-219 -960q-8 -40 -8 -60q0 -73 94 -73q113 0 204.5 28t157 80 t110.5 110t85 134l43 -6l-125 -416q-501 4 -710 6q-77 0 -145 -1.5t-97 -2.5zM625 1587q146 153 225 311q15 5 24 5q25 0 42.5 -18.5t17.5 -47.5q0 -53 -54 -112.5t-120 -99t-121 -56.5z" />
<glyph unicode="&#x13a;" horiz-adv-x="626" d="M127 102q0 59 35 166l340 1004q14 42 14 67q0 32 -31.5 45t-99.5 13v45q22 1 60 4.5t138 27.5t179 62l-414 -1198q-49 -140 -49 -184q0 -43 41 -43q87 0 217 190l31 -22q-28 -53 -60 -100.5t-76.5 -99t-98 -82t-107.5 -30.5q-52 0 -85.5 32t-33.5 103zM563 1587 q146 153 225 311q15 5 25 5q25 0 42 -18.5t17 -47.5q0 -53 -54 -112.5t-119.5 -99t-120.5 -56.5z" />
<glyph unicode="&#x13b;" horiz-adv-x="1142" d="M16 0l15 59l43 11q85 20 128.5 65.5t63.5 134.5l219 961q9 45 9 59q0 35 -22.5 50.5t-72.5 23.5l-65 10l14 60q107 -7 287 -7q75 0 142.5 1.5t97.5 3.5l30 2l-14 -60l-43 -10q-85 -20 -129 -66t-64 -135l-219 -960q-8 -40 -8 -60q0 -73 94 -73q113 0 204.5 28t157 80 t110.5 110t85 134l43 -6l-125 -416q-501 4 -710 6q-77 0 -145 -1.5t-97 -2.5zM231 -537q91 24 144 77t53 110q0 69 -72 98q12 55 55 90t101 35q50 0 81.5 -30.5t31.5 -82.5q0 -55 -24.5 -105.5t-64.5 -88.5t-91 -68t-104.5 -47.5t-104.5 -23.5z" />
<glyph unicode="&#x13c;" horiz-adv-x="626" d="M-80 -537q91 24 144 77t53 110q0 69 -72 98q12 55 55 90t101 35q50 0 81 -30.5t31 -82.5q0 -55 -24.5 -105.5t-64.5 -88.5t-91 -68t-104.5 -47.5t-104.5 -23.5zM127 102q0 59 35 166l340 1004q14 42 14 67q0 32 -31.5 45t-99.5 13v45q22 1 60 4.5t138 27.5t179 62 l-414 -1198q-49 -140 -49 -184q0 -43 41 -43q87 0 217 190l31 -22q-28 -53 -60 -100.5t-76.5 -99t-98 -82t-107.5 -30.5q-52 0 -85.5 32t-33.5 103z" />
<glyph unicode="&#x13d;" horiz-adv-x="1142" d="M16 0l15 59l43 11q85 20 128.5 65.5t63.5 134.5l219 961q9 45 9 59q0 35 -22.5 50.5t-72.5 23.5l-65 10l14 60q107 -7 287 -7q75 0 142.5 1.5t97.5 3.5l30 2l-14 -60l-43 -10q-85 -20 -129 -66t-64 -135l-219 -960q-8 -40 -8 -60q0 -73 94 -73q113 0 204.5 28t157 80 t110.5 110t85 134l43 -6l-125 -416q-501 4 -710 6q-77 0 -145 -1.5t-97 -2.5zM938 1036q76 132 76 224q0 45 -23 106q10 45 39.5 70.5t65.5 25.5q37 0 56 -24.5t19 -67.5q0 -47 -18.5 -96t-53.5 -96.5t-66 -82t-75 -77.5z" />
<glyph unicode="&#x13e;" horiz-adv-x="684" d="M127 102q0 59 35 166l340 1004q14 42 14 67q0 32 -31.5 45t-99.5 13v45q22 1 60 4.5t138 27.5t179 62l-414 -1198q-49 -140 -49 -184q0 -43 41 -43q87 0 217 190l31 -22q-28 -53 -60 -100.5t-76.5 -99t-98 -82t-107.5 -30.5q-52 0 -85.5 32t-33.5 103zM754 1110 q75 130 75 223q0 49 -22 107q10 45 39 70.5t65 25.5q37 0 56.5 -24.5t19.5 -67.5q0 -47 -18.5 -96t-53.5 -96.5t-66 -82t-75 -77.5z" />
<glyph unicode="&#x13f;" horiz-adv-x="1142" d="M16 0l15 59l43 11q85 20 128.5 65.5t63.5 134.5l219 961q9 45 9 59q0 35 -22.5 50.5t-72.5 23.5l-65 10l14 60q107 -7 287 -7q75 0 142.5 1.5t97.5 3.5l30 2l-14 -60l-43 -10q-85 -20 -129 -66t-64 -135l-219 -960q-8 -40 -8 -60q0 -73 94 -73q113 0 204.5 28t157 80 t110.5 110t85 134l43 -6l-125 -416q-501 4 -710 6q-77 0 -145 -1.5t-97 -2.5zM815 768q0 55 39.5 99t97.5 44q45 0 73 -28.5t28 -73.5q0 -55 -39 -99t-96 -44q-46 0 -74.5 29t-28.5 73z" />
<glyph unicode="&#x140;" horiz-adv-x="731" d="M127 102q0 59 35 166l340 1004q14 42 14 67q0 32 -31.5 45t-99.5 13v45q22 1 60 4.5t138 27.5t179 62l-414 -1198q-49 -140 -49 -184q0 -43 41 -43q87 0 217 190l31 -22q-28 -53 -60 -100.5t-76.5 -99t-98 -82t-107.5 -30.5q-52 0 -85.5 32t-33.5 103zM621 727 q0 55 39.5 99t97.5 44q45 0 72.5 -28.5t27.5 -73.5q0 -55 -39 -99t-96 -44q-45 0 -73.5 28.5t-28.5 73.5z" />
<glyph unicode="&#x141;" horiz-adv-x="1142" d="M16 0l15 59l43 11q85 20 128.5 65.5t63.5 134.5l82 363l-164 -92l-24 92q109 58 215 115l110 483q9 45 9 59q0 35 -22.5 50.5t-72.5 23.5l-65 10l14 60q107 -7 287 -7q75 0 142.5 1.5t97.5 3.5l30 2l-14 -60l-43 -10q-85 -20 -129 -66t-64 -135l-71 -307l368 197l25 -92 q-62 -28 -418 -213l-123 -545q-8 -40 -8 -60q0 -73 94 -73q113 0 204.5 28t157 80t110.5 110t85 134l43 -6l-125 -416q-501 4 -710 6q-77 0 -145 -1.5t-97 -2.5z" />
<glyph unicode="&#x142;" horiz-adv-x="626" d="M127 102q0 59 35 166l127 377l-115 -61l-22 92q55 25 176 86l174 510q14 42 14 67q0 32 -31.5 45t-99.5 13v45q22 1 60 4.5t138 27.5t179 62l-232 -670q69 37 125.5 71t78.5 49l22 15l24 -94q-129 -64 -286 -149l-146 -420q-49 -140 -49 -184q0 -43 41 -43q87 0 217 190 l31 -22q-28 -53 -60 -100.5t-76.5 -99t-98 -82t-107.5 -30.5q-52 0 -85.5 32t-33.5 103z" />
<glyph unicode="&#x143;" horiz-adv-x="1669" d="M16 0l15 59l43 11q85 20 128.5 65t63.5 135l219 961q9 36 9 59q0 35 -22.5 50.5t-72.5 23.5l-65 10l14 60q116 -7 330 -7q0 -57 43 -131l602 -1024l184 916q11 50 11 67q0 53 -31.5 77t-95.5 32l-88 10l14 60q149 -7 315 -7q57 0 113 1.5t83 3.5l27 2l-14 -60l-43 -10 q-85 -20 -128.5 -66t-63.5 -135l-258 -1173l-64 -8l-704 1189l-199 -856q-29 -136 -29 -155q0 -79 111 -90l92 -11l-14 -59q-172 6 -299 6zM1024 1587q146 153 225 311q15 5 25 5q25 0 42 -18.5t17 -47.5q0 -53 -54 -112.5t-120 -99t-121 -56.5z" />
<glyph unicode="&#x144;" horiz-adv-x="1081" d="M90 39q0 26 10 59l187 592q14 47 14 66q0 33 -31 45t-100 12v45q22 1 60 4.5t138 27.5t179 62q-219 -540 -234 -583h9q47 86 95 163t108.5 156.5t118.5 136.5t123.5 93t125.5 36q58 0 83 -25.5t25 -76.5q0 -76 -38 -180l-123 -348q-56 -157 -56 -193q0 -29 31 -29 q58 0 176 168l31 -22q-28 -51 -59.5 -96t-73 -89t-91.5 -70t-100 -26q-39 0 -58 17.5t-19 60.5q0 81 69 279l123 350q25 73 25 102q0 41 -31 41q-73 0 -174.5 -100.5t-186 -236t-144.5 -277t-60 -219.5q-25 -17 -74 -17q-36 0 -57 19.5t-21 52.5zM799 1081q190 193 344 424 q41 0 63.5 -26t22.5 -58q0 -63 -74.5 -144t-172.5 -142t-173 -80z" />
<glyph unicode="&#x145;" horiz-adv-x="1712" d="M16 0l15 59l43 11q85 20 128.5 65t63.5 135l219 961q9 36 9 59q0 35 -22.5 50.5t-72.5 23.5l-65 10l14 60q116 -7 330 -7q0 -57 43 -131l602 -1024l184 916q11 50 11 67q0 53 -31.5 77t-95.5 32l-88 10l14 60q149 -7 315 -7q57 0 113 1.5t83 3.5l27 2l-14 -60l-43 -10 q-85 -20 -128.5 -66t-63.5 -135l-258 -1173l-64 -8l-704 1189l-199 -856q-29 -136 -29 -155q0 -79 111 -90l92 -11l-14 -59q-172 6 -299 6zM520 -537q91 24 144 77t53 110q0 69 -72 98q12 55 55 90t101 35q50 0 81 -30.5t31 -82.5q0 -55 -24.5 -105.5t-64.5 -88.5t-91 -68 t-104.5 -47.5t-104.5 -23.5z" />
<glyph unicode="&#x146;" horiz-adv-x="1083" d="M90 39q0 26 10 59l187 592q14 47 14 66q0 33 -31 45t-100 12v45q22 1 60 4.5t138 27.5t179 62q-219 -540 -234 -583h9q47 86 95 163t108.5 156.5t118.5 136.5t123.5 93t125.5 36q58 0 83 -25.5t25 -76.5q0 -76 -38 -180l-123 -348q-56 -157 -56 -193q0 -29 31 -29 q58 0 176 168l31 -22q-28 -51 -59.5 -96t-73 -89t-91.5 -70t-100 -26q-39 0 -58 17.5t-19 60.5q0 81 69 279l123 350q25 73 25 102q0 41 -31 41q-73 0 -174.5 -100.5t-186 -236t-144.5 -277t-60 -219.5q-25 -17 -74 -17q-36 0 -57 19.5t-21 52.5zM111 -537q91 24 143.5 77 t52.5 110q0 69 -71 98q12 55 54.5 90t100.5 35q50 0 81.5 -30.5t31.5 -82.5q0 -55 -24.5 -105.5t-64.5 -88.5t-91 -68t-104.5 -47.5t-104.5 -23.5z" />
<glyph unicode="&#x147;" horiz-adv-x="1669" d="M16 0l15 59l43 11q85 20 128.5 65t63.5 135l219 961q9 36 9 59q0 35 -22.5 50.5t-72.5 23.5l-65 10l14 60q116 -7 330 -7q0 -57 43 -131l602 -1024l184 916q11 50 11 67q0 53 -31.5 77t-95.5 32l-88 10l14 60q149 -7 315 -7q57 0 113 1.5t83 3.5l27 2l-14 -60l-43 -10 q-85 -20 -128.5 -66t-63.5 -135l-258 -1173l-64 -8l-704 1189l-199 -856q-29 -136 -29 -155q0 -79 111 -90l92 -11l-14 -59q-172 6 -299 6zM844 1806l129 72l157 -246q50 85 137 163.5t163 78.5q37 0 55 -16.5t18 -40.5l-393 -279z" />
<glyph unicode="&#x148;" horiz-adv-x="1083" d="M90 39q0 26 10 59l187 592q14 47 14 66q0 33 -31 45t-100 12v45q22 1 60 4.5t138 27.5t179 62q-219 -540 -234 -583h9q47 86 95 163t108.5 156.5t118.5 136.5t123.5 93t125.5 36q58 0 83 -25.5t25 -76.5q0 -76 -38 -180l-123 -348q-56 -157 -56 -193q0 -29 31 -29 q58 0 176 168l31 -22q-28 -51 -59.5 -96t-73 -89t-91.5 -70t-100 -26q-39 0 -58 17.5t-19 60.5q0 81 69 279l123 350q25 73 25 102q0 41 -31 41q-73 0 -174.5 -100.5t-186 -236t-144.5 -277t-60 -219.5q-25 -17 -74 -17q-36 0 -57 19.5t-21 52.5zM639 1452l135 47l125 -313 q32 66 80.5 134.5t115 123.5t122.5 55q37 0 57 -16.5t20 -36.5q-86 -59 -189.5 -147.5t-164.5 -147.5l-61 -59z" />
<glyph unicode="&#x149;" horiz-adv-x="1081" d="M90 39q0 26 10 59l187 592q14 47 14 66q0 33 -31 45t-100 12v45q22 1 60 4.5t138 27.5t179 62q-219 -540 -234 -583h9q47 86 95 163t108.5 156.5t118.5 136.5t123.5 93t125.5 36q58 0 83 -25.5t25 -76.5q0 -76 -38 -180l-123 -348q-56 -157 -56 -193q0 -29 31 -29 q58 0 176 168l31 -22q-28 -51 -59.5 -96t-73 -89t-91.5 -70t-100 -26q-39 0 -58 17.5t-19 60.5q0 81 69 279l123 350q25 73 25 102q0 41 -31 41q-73 0 -174.5 -100.5t-186 -236t-144.5 -277t-60 -219.5q-25 -17 -74 -17q-36 0 -57 19.5t-21 52.5zM188 1137q92 24 144.5 76.5 t52.5 109.5q0 69 -72 98q12 55 55 90t101 35q50 0 81.5 -30t31.5 -82q0 -68 -37 -129t-95.5 -102.5t-125.5 -68t-131 -34.5z" />
<glyph unicode="&#x14a;" horiz-adv-x="1705" d="M14 0l15 59l55 11q137 24 180 200l221 961q17 68 -3.5 96t-84.5 37l-65 10l14 60q117 -7 322 -7q8 -46 63 -131l625 -968l209 903q15 69 -5.5 96.5t-95.5 36.5l-96 10l14 60q177 -9 279 -9q41 0 97 2.5t92 4.5l36 2l-14 -60l-39 -10q-65 -16 -115 -66.5t-69 -134.5 l-250 -1087q-43 -190 -168 -318q-49 -50 -104.5 -83.5t-121.5 -66.5t-114 -67l-17 39q20 24 87 74.5t102 89.5q83 91 127 281l24 106l-645 991l-213 -919q-17 -70 6.5 -97t108.5 -36l96 -11l-14 -59q-193 6 -299 6z" />
<glyph unicode="&#x14b;" horiz-adv-x="1024" d="M90 39q0 26 10 59l187 592q14 47 14 66q0 33 -31 45t-100 12v45q22 1 60 4.5t138 27.5t179 62q-219 -540 -234 -583h9q47 86 95 163t108.5 156.5t118.5 136.5t123.5 93t125.5 36q58 0 83 -25.5t25 -76.5q0 -76 -38 -180l-197 -572q-24 -70 -44 -120t-47.5 -104t-62 -94.5 t-75.5 -68.5q-51 -34 -120 -53t-142 -38t-128 -54l-12 39q51 44 164.5 90t155.5 86q50 46 81.5 104.5t61.5 155.5l215 631q25 73 25 102q0 41 -31 41q-73 0 -174.5 -100.5t-186 -236t-144.5 -277t-60 -219.5q-25 -17 -74 -17q-36 0 -57 19.5t-21 52.5z" />
<glyph unicode="&#x14c;" horiz-adv-x="1556" d="M117 518q0 148 45 290t128.5 259t193 206.5t247 139t283.5 49.5q240 0 389 -147.5t149 -403.5q0 -148 -45 -290t-128.5 -259t-193 -206.5t-247 -139t-283.5 -49.5q-240 0 -389 147.5t-149 403.5zM322 559q0 -239 123 -375.5t309 -136.5q117 0 217 54.5t168 141.5 t116.5 196.5t70.5 219.5t22 211q0 239 -123.5 375.5t-309.5 136.5q-117 0 -217 -54.5t-167.5 -141.5t-116 -196.5t-70.5 -219.5t-22 -211zM780 1663l27 113q150 -7 283 -7q64 0 135.5 1.5t110.5 3.5l40 2l-26 -113q-133 6 -283 6z" />
<glyph unicode="&#x14d;" horiz-adv-x="890" d="M92 252q0 90 27.5 189t79 189.5t119 163.5t155 116.5t178.5 43.5q110 0 175 -75.5t65 -210.5q0 -114 -44 -237.5t-117 -226.5t-179.5 -170t-220.5 -67q-109 0 -173.5 76t-64.5 209zM260 274q0 -231 129 -231q66 0 130 62t107.5 153.5t70 196.5t26.5 192q0 230 -129 230 q-88 0 -167.5 -103.5t-123 -242t-43.5 -257.5zM432 1204l25 113q145 -6 278 -6l279 6l-25 -113q-128 6 -278 6z" />
<glyph unicode="&#x14e;" horiz-adv-x="1556" d="M117 518q0 148 45 290t128.5 259t193 206.5t247 139t283.5 49.5q240 0 389 -147.5t149 -403.5q0 -148 -45 -290t-128.5 -259t-193 -206.5t-247 -139t-283.5 -49.5q-240 0 -389 147.5t-149 403.5zM322 559q0 -239 123 -375.5t309 -136.5q117 0 217 54.5t168 141.5 t116.5 196.5t70.5 219.5t22 211q0 239 -123.5 375.5t-309.5 136.5q-117 0 -217 -54.5t-167.5 -141.5t-116 -196.5t-70.5 -219.5t-22 -211zM797 1769q0 43 12 99h139q-8 -33 -8 -68q0 -64 36 -99.5t107 -35.5q94 0 162 54.5t90 148.5h58q-34 -148 -129.5 -233t-231.5 -85 q-111 0 -173 57t-62 162z" />
<glyph unicode="&#x14f;" horiz-adv-x="890" d="M92 252q0 90 27.5 189t79 189.5t119 163.5t155 116.5t178.5 43.5q110 0 175 -75.5t65 -210.5q0 -114 -44 -237.5t-117 -226.5t-179.5 -170t-220.5 -67q-109 0 -173.5 76t-64.5 209zM260 274q0 -231 129 -231q66 0 130 62t107.5 153.5t70 196.5t26.5 192q0 230 -129 230 q-88 0 -167.5 -103.5t-123 -242t-43.5 -257.5zM508 1331q0 43 12 99h139q-8 -33 -8 -68q0 -64 36.5 -99.5t107.5 -35.5q94 0 162 54.5t90 148.5h57q-34 -148 -129.5 -233t-231.5 -85q-111 0 -173 57t-62 162z" />
<glyph unicode="&#x150;" horiz-adv-x="1556" d="M117 518q0 148 45 290t128.5 259t193 206.5t247 139t283.5 49.5q240 0 389 -147.5t149 -403.5q0 -148 -45 -290t-128.5 -259t-193 -206.5t-247 -139t-283.5 -49.5q-240 0 -389 147.5t-149 403.5zM322 559q0 -239 123 -375.5t309 -136.5q117 0 217 54.5t168 141.5 t116.5 196.5t70.5 219.5t22 211q0 239 -123.5 375.5t-309.5 136.5q-117 0 -217 -54.5t-167.5 -141.5t-116 -196.5t-70.5 -219.5t-22 -211zM936 1587q146 153 225 311q15 5 25 5q25 0 42 -18.5t17 -47.5q0 -53 -54 -112.5t-120 -99t-121 -56.5zM1192 1587q146 153 225 311 q15 5 25 5q25 0 42 -18.5t17 -47.5q0 -53 -54 -112.5t-120 -99t-121 -56.5z" />
<glyph unicode="&#x151;" horiz-adv-x="890" d="M92 252q0 90 27.5 189t79 189.5t119 163.5t155 116.5t178.5 43.5q110 0 175 -75.5t65 -210.5q0 -114 -44 -237.5t-117 -226.5t-179.5 -170t-220.5 -67q-109 0 -173.5 76t-64.5 209zM260 274q0 -231 129 -231q66 0 130 62t107.5 153.5t70 196.5t26.5 192q0 230 -129 230 q-88 0 -167.5 -103.5t-123 -242t-43.5 -257.5zM522 1081q190 193 344 424q41 0 63.5 -26t22.5 -58q0 -63 -74.5 -144t-172.5 -142t-173 -80zM838 1081q190 193 344 424q41 0 63.5 -26t22.5 -58q0 -63 -74.5 -144t-172.5 -142t-173 -80z" />
<glyph unicode="&#x152;" horiz-adv-x="1880" d="M117 518q0 148 45 290t128.5 259t193 206.5t247 139t283.5 49.5q111 0 207 -35h137l653 7l-82 -306h-41q0 124 -66 180t-233 56q-98 0 -159 -14l-138 -576h170q72 0 122 39.5t89 118.5l39 80h53q-50 -145 -77 -262q-13 -56 -22 -112.5t-12 -85.5l-3 -28h-52l-2 51 q-3 119 -122 119h-203l-105 -438q-12 -48 -12 -82q0 -55 40 -79.5t126 -24.5q68 0 123.5 9.5t97.5 30.5t72.5 42t58 55.5t43 58t37.5 62.5l43 -6l-100 -322q-510 6 -686 6q-78 0 -109 -2q-125 -37 -246 -37q-240 0 -389 147.5t-149 403.5zM322 559q0 -239 123 -375.5 t309 -136.5q90 0 149.5 52t81.5 147l211 893q6 27 6 51q0 92 -80 142t-207 50q-117 0 -217 -54.5t-167.5 -141.5t-116 -196.5t-70.5 -219.5t-22 -211z" />
<glyph unicode="&#x153;" horiz-adv-x="1404" d="M102 252q0 90 27.5 189t79.5 189.5t119.5 163.5t155 116.5t178.5 43.5q86 0 145 -57t78 -152q78 92 183 150.5t218 58.5q81 0 119.5 -41.5t38.5 -99.5q0 -118 -142.5 -208t-435.5 -167q-30 -105 -30 -200q0 -65 34 -109.5t107 -44.5q87 0 173.5 64t133.5 133l31 -23 q-15 -26 -31 -51t-55.5 -72.5t-81 -81t-103.5 -60t-126 -26.5q-97 0 -159 46.5t-77 125.5q-67 -77 -158.5 -124.5t-183.5 -47.5q-109 0 -173.5 76t-64.5 209zM270 274q0 -231 129 -231q66 0 130 62t107.5 153.5t70 196.5t26.5 192q0 230 -129 230q-88 0 -167.5 -103.5 t-123 -242t-43.5 -257.5zM883 494q54 16 96.5 31t104 43.5t102 59t70.5 76t30 95.5q0 35 -18 54t-51 19q-60 0 -117 -40.5t-99.5 -105t-70 -120.5t-47.5 -112z" />
<glyph unicode="&#x154;" horiz-adv-x="1386" d="M16 0l15 59l43 11q85 20 128.5 65.5t63.5 134.5l219 961q9 45 9 59q0 35 -22.5 50.5t-72.5 23.5l-65 10l14 60q107 -7 287 -7q48 0 119 3.5t125 3.5q177 0 294 -94t117 -246q0 -84 -28 -154.5t-70 -115t-99 -78.5t-105.5 -51t-98.5 -27q33 -29 52 -64t40 -92l88 -254 q35 -101 101.5 -153t142.5 -52q35 0 80 10l-11 -43q-63 -36 -184 -36q-139 0 -219 56.5t-111 178.5l-69 277q-21 80 -71 119.5t-114 39.5q-20 0 -39 -3.5t-29 -7.5l-9 -3l-101 -438q-8 -40 -8 -60q0 -35 22 -50t72 -23l66 -11l-15 -59q-110 6 -286 6q-77 0 -145 -1.5 t-97 -2.5zM549 696q64 41 143 41q34 0 67.5 -8t50.5 -16l17 -8q113 43 184.5 142.5t71.5 246.5q0 114 -78 192t-198 78q-62 0 -109 -14zM852 1587q146 153 225 311q15 5 25 5q25 0 42 -18.5t17 -47.5q0 -53 -54 -112.5t-120 -99t-121 -56.5z" />
<glyph unicode="&#x155;" horiz-adv-x="843" d="M109 51q0 27 6 47l166 588q14 49 14 70q0 33 -31 45t-100 12v45q22 1 60 4.5t138 27.5t179 62q-219 -540 -234 -583h8q5 12 14.5 33t39.5 81.5t62 115.5t79 122.5t92.5 116t101.5 81.5t107 33q62 0 96.5 -34t34.5 -87q0 -58 -39.5 -89t-87.5 -31l-14 2q4 12 4 26 q0 24 -16.5 44t-57.5 20q-56 0 -124.5 -65t-128.5 -165t-111 -211.5t-81 -214t-30 -163.5q-25 -15 -74 -15q-34 0 -53.5 23.5t-19.5 58.5zM678 1081q190 193 344 424q41 0 63.5 -26t22.5 -58q0 -63 -74.5 -144t-172.5 -142t-173 -80z" />
<glyph unicode="&#x156;" horiz-adv-x="1386" d="M16 0l15 59l43 11q85 20 128.5 65.5t63.5 134.5l219 961q9 45 9 59q0 35 -22.5 50.5t-72.5 23.5l-65 10l14 60q107 -7 287 -7q48 0 119 3.5t125 3.5q177 0 294 -94t117 -246q0 -84 -28 -154.5t-70 -115t-99 -78.5t-105.5 -51t-98.5 -27q33 -29 52 -64t40 -92l88 -254 q35 -101 101.5 -153t142.5 -52q35 0 80 10l-11 -43q-63 -36 -184 -36q-139 0 -219 56.5t-111 178.5l-69 277q-21 80 -71 119.5t-114 39.5q-20 0 -39 -3.5t-29 -7.5l-9 -3l-101 -438q-8 -40 -8 -60q0 -35 22 -50t72 -23l66 -11l-15 -59q-110 6 -286 6q-77 0 -145 -1.5 t-97 -2.5zM420 -537q91 24 143.5 77t52.5 110q0 69 -71 98q12 55 54.5 90t100.5 35q50 0 81.5 -30.5t31.5 -82.5q0 -55 -24.5 -105.5t-64.5 -88.5t-91 -68t-104.5 -47.5t-104.5 -23.5zM549 696q64 41 143 41q34 0 67.5 -8t50.5 -16l17 -8q113 43 184.5 142.5t71.5 246.5 q0 114 -78 192t-198 78q-62 0 -109 -14z" />
<glyph unicode="&#x157;" horiz-adv-x="843" d="M-162 -537q91 24 144 77t53 110q0 69 -72 98q12 55 55 90t101 35q50 0 81 -30.5t31 -82.5q0 -55 -24.5 -105.5t-64.5 -88.5t-91 -68t-104.5 -47.5t-104.5 -23.5zM109 51q0 27 6 47l166 588q14 49 14 70q0 33 -31 45t-100 12v45q22 1 60 4.5t138 27.5t179 62 q-219 -540 -234 -583h8q5 12 14.5 33t39.5 81.5t62 115.5t79 122.5t92.5 116t101.5 81.5t107 33q62 0 96.5 -34t34.5 -87q0 -58 -39.5 -89t-87.5 -31l-14 2q4 12 4 26q0 24 -16.5 44t-57.5 20q-56 0 -124.5 -65t-128.5 -165t-111 -211.5t-81 -214t-30 -163.5 q-25 -15 -74 -15q-34 0 -53.5 23.5t-19.5 58.5z" />
<glyph unicode="&#x158;" horiz-adv-x="1386" d="M16 0l15 59l43 11q85 20 128.5 65.5t63.5 134.5l219 961q9 45 9 59q0 35 -22.5 50.5t-72.5 23.5l-65 10l14 60q107 -7 287 -7q48 0 119 3.5t125 3.5q177 0 294 -94t117 -246q0 -84 -28 -154.5t-70 -115t-99 -78.5t-105.5 -51t-98.5 -27q33 -29 52 -64t40 -92l88 -254 q35 -101 101.5 -153t142.5 -52q35 0 80 10l-11 -43q-63 -36 -184 -36q-139 0 -219 56.5t-111 178.5l-69 277q-21 80 -71 119.5t-114 39.5q-20 0 -39 -3.5t-29 -7.5l-9 -3l-101 -438q-8 -40 -8 -60q0 -35 22 -50t72 -23l66 -11l-15 -59q-110 6 -286 6q-77 0 -145 -1.5 t-97 -2.5zM549 696q64 41 143 41q34 0 67.5 -8t50.5 -16l17 -8q113 43 184.5 142.5t71.5 246.5q0 114 -78 192t-198 78q-62 0 -109 -14zM623 1806l129 72l157 -246q50 85 136.5 163.5t162.5 78.5q37 0 55.5 -16.5t18.5 -40.5l-393 -279z" />
<glyph unicode="&#x159;" horiz-adv-x="843" d="M109 51q0 27 6 47l166 588q14 49 14 70q0 33 -31 45t-100 12v45q22 1 60 4.5t138 27.5t179 62q-219 -540 -234 -583h8q5 12 14.5 33t39.5 81.5t62 115.5t79 122.5t92.5 116t101.5 81.5t107 33q62 0 96.5 -34t34.5 -87q0 -58 -39.5 -89t-87.5 -31l-14 2q4 12 4 26 q0 24 -16.5 44t-57.5 20q-56 0 -124.5 -65t-128.5 -165t-111 -211.5t-81 -214t-30 -163.5q-25 -15 -74 -15q-34 0 -53.5 23.5t-19.5 58.5zM477 1452l135 47l125 -313q32 66 80.5 134.5t115 123.5t122.5 55q37 0 57.5 -16.5t20.5 -36.5q-86 -59 -190 -147.5t-165 -147.5 l-61 -59z" />
<glyph unicode="&#x15a;" horiz-adv-x="997" d="M35 29l61 333h51v-32q0 -281 283 -281q139 0 226 73t87 185q0 65 -24 124t-63 105t-85.5 91.5t-93 93.5t-85.5 99t-63 119.5t-24 145.5q0 159 118 268t314 109q76 0 190 -21.5t183 -21.5l-96 -319h-60q9 45 9 71q0 93 -68.5 152t-192.5 59q-106 0 -170.5 -62.5 t-64.5 -154.5q0 -61 24 -115t63 -95.5t85.5 -83t93 -88t85.5 -98.5t63 -126t24 -160q0 -82 -31.5 -158.5t-91 -138t-156 -98.5t-216.5 -37q-76 0 -190 31t-185 31zM784 1587q148 156 226 311q15 5 24 5q25 0 42.5 -18.5t17.5 -47.5q0 -53 -54 -112.5t-120 -99t-121 -56.5z " />
<glyph unicode="&#x15b;" horiz-adv-x="686" d="M8 76q0 52 36.5 83t86.5 31l21 -2q-13 -23 -13 -45q0 -31 31 -51t72 -20q76 0 122 32.5t46 104.5q0 46 -17.5 90.5t-43 82.5t-51 77t-43 90.5t-17.5 107.5q0 82 53.5 152t129 107.5t148.5 37.5q86 0 135.5 -32.5t49.5 -83.5q0 -47 -34 -80t-89 -33q-17 0 -33 4 q10 20 10 41q0 88 -106 88q-73 0 -113.5 -44.5t-40.5 -98.5q0 -42 20.5 -83.5t50 -78.5t59.5 -76.5t50.5 -91.5t20.5 -109q0 -70 -36 -130.5t-91 -98.5t-117 -59t-119 -21q-48 0 -85 8.5t-65 34t-28 66.5zM537 1081q190 193 344 424q41 0 63.5 -26t22.5 -58 q0 -63 -74.5 -144t-172.5 -142t-173 -80z" />
<glyph unicode="&#x15c;" horiz-adv-x="997" d="M35 29l61 333h51v-32q0 -281 283 -281q139 0 226 73t87 185q0 65 -24 124t-63 105t-85.5 91.5t-93 93.5t-85.5 99t-63 119.5t-24 145.5q0 159 118 268t314 109q76 0 190 -21.5t183 -21.5l-96 -319h-60q9 45 9 71q0 93 -68.5 152t-192.5 59q-106 0 -170.5 -62.5 t-64.5 -154.5q0 -61 24 -115t63 -95.5t85.5 -83t93 -88t85.5 -98.5t63 -126t24 -160q0 -82 -31.5 -158.5t-91 -138t-156 -98.5t-216.5 -37q-76 0 -190 31t-185 31zM518 1597l393 281q140 -166 267 -285q-1 -23 -18.5 -36t-41.5 -13q-64 0 -127.5 71t-99.5 169l-273 -246z " />
<glyph unicode="&#x15d;" horiz-adv-x="686" d="M8 76q0 52 36.5 83t86.5 31l21 -2q-13 -23 -13 -45q0 -31 31 -51t72 -20q76 0 122 32.5t46 104.5q0 46 -17.5 90.5t-43 82.5t-51 77t-43 90.5t-17.5 107.5q0 82 53.5 152t129 107.5t148.5 37.5q86 0 135.5 -32.5t49.5 -83.5q0 -47 -34 -80t-89 -33q-17 0 -33 4 q10 20 10 41q0 88 -106 88q-73 0 -113.5 -44.5t-40.5 -98.5q0 -42 20.5 -83.5t50 -78.5t59.5 -76.5t50.5 -91.5t20.5 -109q0 -70 -36 -130.5t-91 -98.5t-117 -59t-119 -21q-48 0 -85 8.5t-65 34t-28 66.5zM281 1130l413 369q13 -26 35.5 -68t85.5 -139t119 -153 q0 -19 -19 -38.5t-55 -19.5q-56 0 -101 55t-67.5 127t-25.5 142l-271 -324z" />
<glyph unicode="&#x15e;" horiz-adv-x="997" d="M35 29l61 333h51v-32q0 -281 283 -281q139 0 226 73t87 185q0 65 -24 124t-63 105t-85.5 91.5t-93 93.5t-85.5 99t-63 119.5t-24 145.5q0 159 118 268t314 109q76 0 190 -21.5t183 -21.5l-96 -319h-60q9 45 9 71q0 93 -68.5 152t-192.5 59q-106 0 -170.5 -62.5 t-64.5 -154.5q0 -61 24 -115t63 -95.5t85.5 -83t93 -88t85.5 -98.5t63 -126t24 -160q0 -81 -30 -155.5t-86.5 -135t-148.5 -99t-206 -42.5q-24 -31 -24 -65q0 -23 17 -44.5t38 -36.5t38 -39.5t17 -53.5q0 -64 -49.5 -114.5t-111.5 -73.5t-117 -23q-59 0 -95 24t-36 64 q0 39 28.5 63.5t63.5 24.5q25 0 35 -10q-35 -23 -35 -58q0 -22 18 -37.5t58 -15.5q43 0 79.5 29t36.5 69q0 25 -13.5 47.5t-30.5 37.5t-30.5 41.5t-13.5 58.5q0 56 66 114q-58 4 -163 32t-175 28z" />
<glyph unicode="&#x15f;" horiz-adv-x="686" d="M-125 -395q0 39 28.5 63.5t63.5 24.5q25 0 35 -10q-35 -23 -35 -58q0 -22 18 -37.5t58 -15.5q43 0 80 29t37 69q0 32 -22 58.5t-44 54.5t-22 61q0 43 32 75.5t78 47.5q-174 4 -174 109q0 52 36.5 83t86.5 31l21 -2q-13 -23 -13 -45q0 -31 31 -51t72 -20q76 0 122 32.5 t46 104.5q0 46 -17.5 90.5t-43 82.5t-51 77t-43 90.5t-17.5 107.5q0 82 53.5 152t129 107.5t148.5 37.5q86 0 135.5 -32.5t49.5 -83.5q0 -47 -34 -80t-89 -33q-17 0 -33 4q10 20 10 41q0 88 -106 88q-73 0 -113.5 -44.5t-40.5 -98.5q0 -42 20.5 -83.5t50 -78.5t59.5 -76.5 t50.5 -91.5t20.5 -109q0 -83 -50.5 -151.5t-120.5 -105.5t-145 -48q-59 -26 -59 -80q0 -23 17.5 -43t38 -32.5t38 -35.5t17.5 -52q0 -64 -49.5 -114.5t-112 -73.5t-117.5 -23q-59 0 -95 24t-36 64z" />
<glyph unicode="&#x160;" horiz-adv-x="997" d="M35 29l61 333h51v-32q0 -281 283 -281q139 0 226 73t87 185q0 65 -24 124t-63 105t-85.5 91.5t-93 93.5t-85.5 99t-63 119.5t-24 145.5q0 159 118 268t314 109q76 0 190 -21.5t183 -21.5l-96 -319h-60q9 45 9 71q0 93 -68.5 152t-192.5 59q-106 0 -170.5 -62.5 t-64.5 -154.5q0 -61 24 -115t63 -95.5t85.5 -83t93 -88t85.5 -98.5t63 -126t24 -160q0 -82 -31.5 -158.5t-91 -138t-156 -98.5t-216.5 -37q-76 0 -190 31t-185 31zM555 1806l129 72l158 -246q50 85 136.5 163.5t162.5 78.5q37 0 55 -16.5t18 -40.5l-393 -279z" />
<glyph unicode="&#x161;" horiz-adv-x="686" d="M8 76q0 52 36.5 83t86.5 31l21 -2q-13 -23 -13 -45q0 -31 31 -51t72 -20q76 0 122 32.5t46 104.5q0 46 -17.5 90.5t-43 82.5t-51 77t-43 90.5t-17.5 107.5q0 82 53.5 152t129 107.5t148.5 37.5q86 0 135.5 -32.5t49.5 -83.5q0 -47 -34 -80t-89 -33q-17 0 -33 4 q10 20 10 41q0 88 -106 88q-73 0 -113.5 -44.5t-40.5 -98.5q0 -42 20.5 -83.5t50 -78.5t59.5 -76.5t50.5 -91.5t20.5 -109q0 -70 -36 -130.5t-91 -98.5t-117 -59t-119 -21q-48 0 -85 8.5t-65 34t-28 66.5zM403 1452l136 47l125 -313q23 48 57 99.5t76.5 101t91.5 81t92 31.5 q37 0 57.5 -16.5t20.5 -36.5q-86 -59 -190 -147.5t-165 -147.5l-61 -59z" />
<glyph unicode="&#x162;" horiz-adv-x="1384" d="M193 1247q0 44 26 75.5t74.5 48.5t99 25.5t119.5 12.5l754 43q81 4 115 23.5t34 58.5q0 19 -7.5 42t-16.5 32q29 16 73 16q43 0 80 -25t37 -73q0 -169 -301 -172l-279 -4l-266 -1147q-8 -40 -8 -60q0 -35 22 -50t72 -23l66 -11l-15 -59q-100 4 -258 6q-71 -41 -71 -104 q0 -23 17 -44.5t38 -36.5t38 -39.5t17 -53.5q0 -64 -49.5 -114.5t-111.5 -73.5t-117 -23q-59 0 -95 24t-36 64q0 39 28.5 63.5t63.5 24.5q25 0 35 -10q-35 -23 -35 -58q0 -22 18 -37.5t58 -15.5q43 0 79.5 29t36.5 69q0 25 -14 47.5t-30 37.5t-30 41.5t-14 58.5 q0 47 41 90.5t88 60.5q-73 0 -136.5 -1.5t-90.5 -2.5l-27 -2l15 59l43 11q85 20 128.5 65.5t63.5 134.5l250 1078h-307q-77 0 -117.5 -25.5t-40.5 -62.5q0 -30 21 -62q-9 -17 -33 -27t-51 -10q-40 0 -67 21t-27 65z" />
<glyph unicode="&#x163;" horiz-adv-x="673" d="M-143 -420q0 39 28.5 63.5t63.5 24.5q25 0 35 -10q-35 -23 -35 -57q0 -22 18 -38t58 -16q43 0 79.5 29.5t36.5 69.5q0 25 -13.5 47.5t-30.5 37t-30.5 41t-13.5 58.5q0 43 34.5 82.5t78.5 60.5q-66 25 -66 121q0 80 33 172l201 576l-111 4l6 59l138 29l53 145 q41 117 145 117q21 0 42 -7.5t28 -14.5q-21 -21 -48 -82.5t-44 -112.5l-17 -51h260l-36 -90h-254l-138 -373q-90 -244 -90 -303q0 -39 35 -39q49 0 117.5 69.5t130.5 159.5l35 -20q-26 -51 -65 -108.5t-90.5 -117.5t-111.5 -99.5t-114 -39.5q-49 -36 -49 -90q0 -23 17 -44.5 t38 -36.5t38 -39.5t17 -53.5q0 -64 -49.5 -114.5t-111.5 -73.5t-117 -23q-59 0 -95 24t-36 64z" />
<glyph unicode="&#x164;" horiz-adv-x="1384" d="M193 1247q0 44 26 75.5t74.5 48.5t99 25.5t119.5 12.5l754 43q81 4 115 23.5t34 58.5q0 19 -7.5 42t-16.5 32q29 16 73 16q43 0 80 -25t37 -73q0 -169 -301 -172l-279 -4l-266 -1147q-8 -40 -8 -60q0 -35 22 -50t72 -23l66 -11l-15 -59q-110 6 -286 6q-77 0 -145 -1.5 t-97 -2.5l-29 -2l15 59l43 11q85 20 128.5 65.5t63.5 134.5l250 1078h-307q-77 0 -117.5 -25.5t-40.5 -62.5q0 -30 21 -62q-9 -17 -33 -27t-51 -10q-40 0 -67 21t-27 65zM690 1806l129 72l158 -246q50 85 136.5 163.5t162.5 78.5q37 0 55.5 -16.5t18.5 -40.5l-394 -279z" />
<glyph unicode="&#x165;" horiz-adv-x="751" d="M100 94q0 80 33 172l201 576l-111 4l6 59l138 29l53 145q41 117 145 117q21 0 42 -7.5t28 -14.5q-21 -21 -48 -82.5t-44 -112.5l-17 -51h260l-36 -90h-254l-138 -373q-90 -244 -90 -303q0 -39 35 -39q49 0 117.5 69.5t130.5 159.5l35 -20q-26 -51 -65 -108.5t-90 -117.5 t-111 -99.5t-113 -39.5q-52 0 -79.5 32.5t-27.5 94.5zM696 1065q76 132 76 223q0 49 -22 107q10 45 39 70.5t65 25.5q37 0 56.5 -24.5t19.5 -67.5q0 -47 -18.5 -96t-53.5 -96.5t-66 -82t-75 -77.5z" />
<glyph unicode="&#x166;" horiz-adv-x="1394" d="M193 1247q0 44 26 75.5t74.5 48.5t99 25.5t119.5 12.5l754 43q81 4 115 23.5t34 58.5q0 19 -7.5 42t-16.5 32q29 16 73 16q43 0 80 -25t37 -73q0 -169 -301 -172l-279 -4l-108 -465l254 6l-25 -113q-137 4 -252 6l-135 -581q-8 -40 -8 -60q0 -35 22 -50t72 -23l66 -11 l-15 -59q-110 6 -286 6q-77 0 -145 -1.5t-97 -2.5l-29 -2l15 59l43 11q85 20 128.5 65.5t63.5 134.5l119 514l-254 -6l25 113q137 -4 252 -6l108 463h-307q-77 0 -117.5 -25.5t-40.5 -62.5q0 -30 21 -62q-9 -17 -33 -27t-51 -10q-40 0 -67 21t-27 65z" />
<glyph unicode="&#x167;" horiz-adv-x="673" d="M88 524l33 92q4 0 23 -0.5t48.5 -1t61.5 -0.5l80 228l-111 4l6 59l138 29l53 145q41 117 145 117q21 0 42 -7.5t28 -14.5q-21 -21 -48 -82.5t-44 -112.5l-17 -51h260l-36 -90h-254l-84 -226l252 6l-35 -94q-119 4 -246 6l-25 -65q-90 -244 -90 -303q0 -39 35 -39 q49 0 117.5 69.5t130.5 159.5l35 -20q-26 -51 -65 -108.5t-90 -117.5t-111 -99.5t-113 -39.5q-52 0 -79.5 32.5t-27.5 94.5q0 80 33 172l90 262z" />
<glyph unicode="&#x168;" horiz-adv-x="1628" d="M274 395q0 82 25 191l145 645q9 45 9 59q0 35 -22.5 50.5t-72.5 23.5l-65 10l14 60q107 -7 287 -7q75 0 142.5 1.5t97.5 3.5l30 2l-14 -60l-43 -10q-85 -20 -129 -66t-64 -135l-125 -534q-28 -128 -28 -215q0 -344 350 -344q105 0 182.5 32t132.5 100.5t91.5 159.5 t66.5 224l146 645q8 40 8 59q0 35 -22.5 50.5t-72.5 23.5l-65 10l14 60q119 -9 250 -9q58 0 117 2.5t89 4.5l30 2l-15 -60l-43 -10q-85 -20 -128.5 -66t-63.5 -135l-131 -585q-19 -82 -39 -148t-48 -131t-61.5 -113.5t-79.5 -90.5t-101 -69t-126 -42t-156 -15 q-235 0 -373.5 106.5t-138.5 319.5zM811 1626q35 88 99 141.5t145 53.5q42 0 78 -15.5t58 -34t55 -34t69 -15.5q107 0 166 105l22 -33q-35 -90 -99 -142.5t-153 -52.5q-40 0 -75 15.5t-55.5 34t-53 34t-68.5 15.5q-106 0 -163 -105z" />
<glyph unicode="&#x169;" horiz-adv-x="1015" d="M90 672q28 51 60 96.5t73 89.5t91 70t100 26q39 0 58.5 -18t19.5 -62q0 -75 -70 -276l-123 -352q-25 -70 -25 -103q0 -39 31 -39q73 0 174.5 100.5t186 236.5t144.5 277.5t60 219.5q21 16 70 16q36 0 57 -19t21 -54q0 -25 -10 -58l-193 -592q-14 -47 -14 -65 q0 -33 35 -45t106 -12v-46q-22 -1 -60 -4.5t-138 -27.5t-179 -62q208 511 234 584h-8q-47 -86 -95 -163t-108.5 -156.5t-119 -137t-124 -93.5t-125.5 -36q-58 0 -83 25.5t-25 77.5q0 75 39 178l122 350q56 157 56 193q0 28 -31 28q-58 0 -176 -168zM428 1192 q35 87 98.5 140.5t145.5 53.5q42 0 78 -15.5t58 -33.5t55 -33.5t69 -15.5q107 0 166 105l22 -33q-35 -90 -99 -142.5t-153 -52.5q-40 0 -75 15.5t-55.5 34t-53 34t-68.5 15.5q-106 0 -163 -105z" />
<glyph unicode="&#x16a;" horiz-adv-x="1628" d="M274 395q0 82 25 191l145 645q9 45 9 59q0 35 -22.5 50.5t-72.5 23.5l-65 10l14 60q107 -7 287 -7q75 0 142.5 1.5t97.5 3.5l30 2l-14 -60l-43 -10q-85 -20 -129 -66t-64 -135l-125 -534q-28 -128 -28 -215q0 -344 350 -344q105 0 182.5 32t132.5 100.5t91.5 159.5 t66.5 224l146 645q8 40 8 59q0 35 -22.5 50.5t-72.5 23.5l-65 10l14 60q119 -9 250 -9q58 0 117 2.5t89 4.5l30 2l-15 -60l-43 -10q-85 -20 -128.5 -66t-63.5 -135l-131 -585q-19 -82 -39 -148t-48 -131t-61.5 -113.5t-79.5 -90.5t-101 -69t-126 -42t-156 -15 q-235 0 -373.5 106.5t-138.5 319.5zM852 1663l27 113q149 -7 282 -7q64 0 136 1.5t111 3.5l40 2l-27 -113q-132 6 -282 6z" />
<glyph unicode="&#x16b;" horiz-adv-x="1015" d="M90 672q28 51 60 96.5t73 89.5t91 70t100 26q39 0 58.5 -18t19.5 -62q0 -75 -70 -276l-123 -352q-25 -70 -25 -103q0 -39 31 -39q73 0 174.5 100.5t186 236.5t144.5 277.5t60 219.5q21 16 70 16q36 0 57 -19t21 -54q0 -25 -10 -58l-193 -592q-14 -47 -14 -65 q0 -33 35 -45t106 -12v-46q-22 -1 -60 -4.5t-138 -27.5t-179 -62q208 511 234 584h-8q-47 -86 -95 -163t-108.5 -156.5t-119 -137t-124 -93.5t-125.5 -36q-58 0 -83 25.5t-25 77.5q0 75 39 178l122 350q56 157 56 193q0 28 -31 28q-58 0 -176 -168zM498 1204l24 113 q146 -6 279 -6l278 6l-24 -113q-129 6 -279 6z" />
<glyph unicode="&#x16c;" horiz-adv-x="1628" d="M274 395q0 82 25 191l145 645q9 45 9 59q0 35 -22.5 50.5t-72.5 23.5l-65 10l14 60q107 -7 287 -7q75 0 142.5 1.5t97.5 3.5l30 2l-14 -60l-43 -10q-85 -20 -129 -66t-64 -135l-125 -534q-28 -128 -28 -215q0 -344 350 -344q105 0 182.5 32t132.5 100.5t91.5 159.5 t66.5 224l146 645q8 40 8 59q0 35 -22.5 50.5t-72.5 23.5l-65 10l14 60q119 -9 250 -9q58 0 117 2.5t89 4.5l30 2l-15 -60l-43 -10q-85 -20 -128.5 -66t-63.5 -135l-131 -585q-19 -82 -39 -148t-48 -131t-61.5 -113.5t-79.5 -90.5t-101 -69t-126 -42t-156 -15 q-235 0 -373.5 106.5t-138.5 319.5zM899 1769q0 43 12 99h140q-9 -38 -9 -68q0 -64 36.5 -99.5t107.5 -35.5q94 0 162 54.5t90 148.5h57q-34 -149 -129 -233.5t-231 -84.5q-111 0 -173.5 57t-62.5 162z" />
<glyph unicode="&#x16d;" horiz-adv-x="1015" d="M90 672q28 51 60 96.5t73 89.5t91 70t100 26q39 0 58.5 -18t19.5 -62q0 -75 -70 -276l-123 -352q-25 -70 -25 -103q0 -39 31 -39q73 0 174.5 100.5t186 236.5t144.5 277.5t60 219.5q21 16 70 16q36 0 57 -19t21 -54q0 -25 -10 -58l-193 -592q-14 -47 -14 -65 q0 -33 35 -45t106 -12v-46q-22 -1 -60 -4.5t-138 -27.5t-179 -62q208 511 234 584h-8q-47 -86 -95 -163t-108.5 -156.5t-119 -137t-124 -93.5t-125.5 -36q-58 0 -83 25.5t-25 77.5q0 75 39 178l122 350q56 157 56 193q0 28 -31 28q-58 0 -176 -168zM526 1331q0 39 13 99h139 q-8 -33 -8 -68q0 -64 36 -99.5t107 -35.5q94 0 162 54.5t90 148.5h57q-34 -149 -129 -233.5t-231 -84.5q-111 0 -173.5 57t-62.5 162z" />
<glyph unicode="&#x16e;" horiz-adv-x="1628" d="M274 395q0 82 25 191l145 645q9 45 9 59q0 35 -22.5 50.5t-72.5 23.5l-65 10l14 60q107 -7 287 -7q75 0 142.5 1.5t97.5 3.5l30 2l-14 -60l-43 -10q-85 -20 -129 -66t-64 -135l-125 -534q-28 -128 -28 -215q0 -344 350 -344q105 0 182.5 32t132.5 100.5t91.5 159.5 t66.5 224l146 645q8 40 8 59q0 35 -22.5 50.5t-72.5 23.5l-65 10l14 60q119 -9 250 -9q58 0 117 2.5t89 4.5l30 2l-15 -60l-43 -10q-85 -20 -128.5 -66t-63.5 -135l-131 -585q-19 -82 -39 -148t-48 -131t-61.5 -113.5t-79.5 -90.5t-101 -69t-126 -42t-156 -15 q-235 0 -373.5 106.5t-138.5 319.5zM946 1694q0 99 83.5 179.5t201.5 80.5q72 0 118 -43t46 -115q0 -99 -84 -179.5t-203 -80.5q-72 0 -117 42t-45 116zM1040 1718q0 -52 31 -82t76 -30q53 0 88.5 26.5t49 62t13.5 77.5q0 52 -30 82t-76 30q-74 0 -113 -49.5t-39 -116.5z " />
<glyph unicode="&#x16f;" horiz-adv-x="1015" d="M90 672q28 51 60 96.5t73 89.5t91 70t100 26q39 0 58.5 -18t19.5 -62q0 -75 -70 -276l-123 -352q-25 -70 -25 -103q0 -39 31 -39q73 0 174.5 100.5t186 236.5t144.5 277.5t60 219.5q21 16 70 16q36 0 57 -19t21 -54q0 -25 -10 -58l-193 -592q-14 -47 -14 -65 q0 -33 35 -45t106 -12v-46q-22 -1 -60 -4.5t-138 -27.5t-179 -62q208 511 234 584h-8q-47 -86 -95 -163t-108.5 -156.5t-119 -137t-124 -93.5t-125.5 -36q-58 0 -83 25.5t-25 77.5q0 75 39 178l122 350q56 157 56 193q0 28 -31 28q-58 0 -176 -168zM575 1260 q0 99 83.5 179.5t201.5 80.5q72 0 118 -43t46 -115q0 -99 -84 -179.5t-203 -80.5q-72 0 -117 42t-45 116zM670 1284q0 -52 30.5 -82.5t75.5 -30.5q78 0 115 50t37 116q0 52 -30.5 82.5t-76.5 30.5q-74 0 -112.5 -49.5t-38.5 -116.5z" />
<glyph unicode="&#x170;" horiz-adv-x="1628" d="M274 395q0 82 25 191l145 645q9 45 9 59q0 35 -22.5 50.5t-72.5 23.5l-65 10l14 60q107 -7 287 -7q75 0 142.5 1.5t97.5 3.5l30 2l-14 -60l-43 -10q-85 -20 -129 -66t-64 -135l-125 -534q-28 -128 -28 -215q0 -344 350 -344q105 0 182.5 32t132.5 100.5t91.5 159.5 t66.5 224l146 645q8 40 8 59q0 35 -22.5 50.5t-72.5 23.5l-65 10l14 60q119 -9 250 -9q58 0 117 2.5t89 4.5l30 2l-15 -60l-43 -10q-85 -20 -128.5 -66t-63.5 -135l-131 -585q-19 -82 -39 -148t-48 -131t-61.5 -113.5t-79.5 -90.5t-101 -69t-126 -42t-156 -15 q-235 0 -373.5 106.5t-138.5 319.5zM979 1587q146 153 225 311q15 5 25 5q25 0 42 -18.5t17 -47.5q0 -53 -54 -112.5t-120 -99t-121 -56.5zM1235 1587q146 153 225 311q15 5 25 5q25 0 42 -18.5t17 -47.5q0 -53 -54 -112.5t-120 -99t-121 -56.5z" />
<glyph unicode="&#x171;" horiz-adv-x="1015" d="M90 672q28 51 60 96.5t73 89.5t91 70t100 26q39 0 58.5 -18t19.5 -62q0 -75 -70 -276l-123 -352q-25 -70 -25 -103q0 -39 31 -39q73 0 174.5 100.5t186 236.5t144.5 277.5t60 219.5q21 16 70 16q36 0 57 -19t21 -54q0 -25 -10 -58l-193 -592q-14 -47 -14 -65 q0 -33 35 -45t106 -12v-46q-22 -1 -60 -4.5t-138 -27.5t-179 -62q208 511 234 584h-8q-47 -86 -95 -163t-108.5 -156.5t-119 -137t-124 -93.5t-125.5 -36q-58 0 -83 25.5t-25 77.5q0 75 39 178l122 350q56 157 56 193q0 28 -31 28q-58 0 -176 -168zM543 1081 q190 193 344 424q41 0 63.5 -26t22.5 -58q0 -63 -74.5 -144t-172.5 -142t-173 -80zM858 1081q190 193 344 424q41 0 63.5 -26t22.5 -58q0 -63 -74.5 -144t-172.5 -142t-173 -80z" />
<glyph unicode="&#x172;" horiz-adv-x="1628" d="M274 395q0 82 25 191l145 645q9 45 9 59q0 35 -22.5 50.5t-72.5 23.5l-65 10l14 60q107 -7 287 -7q75 0 142.5 1.5t97.5 3.5l30 2l-14 -60l-43 -10q-85 -20 -129 -66t-64 -135l-125 -534q-28 -128 -28 -215q0 -344 350 -344q105 0 182.5 32t132.5 100.5t91.5 159.5 t66.5 224l146 645q8 40 8 59q0 35 -22.5 50.5t-72.5 23.5l-65 10l14 60q119 -9 250 -9q58 0 117 2.5t89 4.5l30 2l-15 -60l-43 -10q-85 -20 -128.5 -66t-63.5 -135l-131 -585q-52 -231 -148.5 -375.5t-259.5 -206.5q-133 -94 -186 -164t-53 -141q0 -44 27.5 -68t80.5 -24 q34 0 63.5 12.5t41.5 26.5q20 -9 20 -35q0 -35 -56.5 -73t-158.5 -38q-78 0 -124 38.5t-46 107.5q0 45 18.5 89.5t46 79t66 67.5t73 55.5t72.5 43.5q-58 -4 -88 -4q-235 0 -373.5 106.5t-138.5 319.5z" />
<glyph unicode="&#x173;" horiz-adv-x="1015" d="M90 672q28 51 60 96.5t73 89.5t91 70t100 26q39 0 58.5 -18t19.5 -62q0 -75 -70 -276l-123 -352q-25 -70 -25 -103q0 -39 31 -39q73 0 174.5 100.5t186 236.5t144.5 277.5t60 219.5q21 16 70 16q36 0 57 -19t21 -54q0 -25 -10 -58l-193 -592q-14 -47 -14 -65 q0 -33 35 -45t106 -12v-46q-131 -17 -246.5 -68.5t-188.5 -132t-73 -171.5q0 -43 28 -67.5t81 -24.5q34 0 63 12.5t41 26.5q21 -9 21 -35q0 -35 -54 -73t-155 -38q-79 0 -127.5 38.5t-48.5 107.5q0 105 85 199t207 157q206 507 224 559h-8q-47 -86 -95 -163t-108.5 -156.5 t-119 -137t-124 -93.5t-125.5 -36q-58 0 -83 25.5t-25 77.5q0 75 39 178l122 350q56 157 56 193q0 28 -31 28q-58 0 -176 -168z" />
<glyph unicode="&#x174;" horiz-adv-x="2230" d="M229 1374l15 60q201 -9 262 -9l309 9l-14 -60l-43 -10q-58 -12 -97.5 -46.5t-39.5 -90.5q0 -15 4 -51l102 -926l471 938q33 68 33 102q0 37 -23 52t-67 22l-66 10l15 60q119 -7 315 -7l76 -1183l540 919q45 83 45 127q0 35 -20 50.5t-70 23.5l-65 10l14 60q137 -7 266 -7 l226 5l-15 -58l-43 -10q-65 -15 -111.5 -58.5t-107.5 -142.5l-735 -1188l-64 -8l-67 1145l-615 -1137l-63 -8l-158 1227q-11 80 -43 120t-100 50zM993 1597l393 281q140 -166 267 -285q-1 -23 -18.5 -36t-41.5 -13q-64 0 -127.5 71t-99.5 169l-272 -246z" />
<glyph unicode="&#x175;" horiz-adv-x="1411" d="M72 629q4 28 15.5 65t35 83.5t53 85t74 65t94.5 26.5q86 0 86 -129q0 -70 -13 -243t-27 -311l-13 -138q85 2 178.5 99.5t156 249.5t62.5 296q0 41 -26 41q-71 0 -140 -194l-33 4q4 27 16 64.5t35 84t53 85t74.5 65t94.5 26.5q86 0 86 -129q0 -70 -13 -243t-27 -311 l-13 -138q76 0 173.5 92t167.5 227.5t70 247.5q0 53 -22.5 90t-67.5 44q9 54 44.5 86t82.5 32q60 0 95.5 -39.5t35.5 -101.5q0 -88 -50 -206t-137.5 -238.5t-225 -229.5t-293.5 -168l-23 21q11 221 23 416q-81 -149 -212.5 -265t-291.5 -172l-23 21q37 591 43 788 q0 41 -26 41q-71 0 -140 -194zM561 1130l414 369q13 -26 35.5 -68t85 -139t118.5 -153q0 -19 -18.5 -38.5t-54.5 -19.5q-56 0 -101.5 55t-68 127t-25.5 142l-270 -324z" />
<glyph unicode="&#x176;" horiz-adv-x="1423" d="M246 1352q36 46 92.5 78t120.5 32q49 0 90 -14.5t71 -38t54.5 -62t40 -76t29.5 -91.5t21.5 -97.5t16.5 -103.5l39 -268q6 15 24 55.5t55 112t80.5 146.5t102 154.5t118 141.5t130.5 101.5t137 39.5q63 0 101.5 -32t38.5 -91q0 -43 -35.5 -75.5t-71.5 -32.5q-12 0 -18 2 q2 8 2 18q0 26 -19 46t-61 20q-70 0 -164.5 -90t-175 -212t-141 -233t-80.5 -168l-94 -411q-9 -45 -9 -60q0 -35 22.5 -50t72.5 -23l65 -11l-14 -59q-111 6 -287 6q-77 0 -144.5 -1.5t-96.5 -2.5l-29 -2l14 59l43 11q85 20 129 65.5t64 134.5l84 365l-52 285 q-15 80 -25.5 130.5t-25.5 106t-31.5 87t-39 59.5t-51.5 39.5t-66 11.5t-62.5 -11.5t-54.5 -37.5zM698 1597l394 281q139 -166 266 -285q-1 -23 -18.5 -36t-41.5 -13q-64 0 -127.5 71t-99.5 169l-272 -246z" />
<glyph unicode="&#x177;" horiz-adv-x="999" d="M-297 -389q0 44 26.5 73.5t65.5 39.5q19 -66 109 -66q146 0 280.5 79.5t173.5 160.5q13 30 13 176q0 90 -7 212t-14.5 206.5t-17.5 181t-10 98.5q-3 47 -25 47q-26 0 -53 -28t-47 -68.5t-29.5 -63t-13.5 -34.5l-33 4q4 28 15.5 65t35 83.5t53 85t74 65t94.5 26.5 q49 0 65.5 -33t20.5 -94q23 -414 23 -821q137 131 248.5 340t111.5 354q0 51 -22.5 89t-67.5 45q9 54 44.5 86t82.5 32q60 0 95.5 -39.5t35.5 -101.5q0 -91 -56 -225.5t-148 -279t-216.5 -289t-254 -258.5t-268 -185.5t-251.5 -71.5q-61 0 -97 29.5t-36 79.5zM397 1130 l414 369q13 -26 35.5 -68t85.5 -139t119 -153q0 -19 -19 -38.5t-55 -19.5q-56 0 -101.5 55t-68 127t-25.5 142l-270 -324z" />
<glyph unicode="&#x178;" horiz-adv-x="1423" d="M246 1352q36 46 92.5 78t120.5 32q49 0 90 -14.5t71 -38t54.5 -62t40 -76t29.5 -91.5t21.5 -97.5t16.5 -103.5l39 -268q6 15 24 55.5t55 112t80.5 146.5t102 154.5t118 141.5t130.5 101.5t137 39.5q63 0 101.5 -32t38.5 -91q0 -43 -35.5 -75.5t-71.5 -32.5q-12 0 -18 2 q2 8 2 18q0 26 -19 46t-61 20q-70 0 -164.5 -90t-175 -212t-141 -233t-80.5 -168l-94 -411q-9 -45 -9 -60q0 -35 22.5 -50t72.5 -23l65 -11l-14 -59q-111 6 -287 6q-77 0 -144.5 -1.5t-96.5 -2.5l-29 -2l14 59l43 11q85 20 129 65.5t64 134.5l84 365l-52 285 q-15 80 -25.5 130.5t-25.5 106t-31.5 87t-39 59.5t-51.5 39.5t-66 11.5t-62.5 -11.5t-54.5 -37.5zM731 1712q0 47 34.5 86t86.5 39q39 0 63.5 -25.5t24.5 -64.5q0 -46 -35 -85.5t-84 -39.5q-41 0 -65.5 25.5t-24.5 64.5zM1137 1712q0 47 34.5 86t85.5 39q39 0 64 -25.5 t25 -64.5q0 -46 -35.5 -85.5t-83.5 -39.5q-41 0 -65.5 25.5t-24.5 64.5z" />
<glyph unicode="&#x179;" horiz-adv-x="1329" d="M-10 29l1184 1319l-447 -13q-74 -2 -134.5 -17t-100.5 -36.5t-73.5 -56t-53.5 -66t-41 -74.5l-50 7l119 374h58q0 -1 1 -3.5t6.5 -8t14 -9.5t27 -7.5t43.5 -3.5h874l17 -45l-1178 -1305l397 6q73 1 134.5 11.5t107.5 25t88.5 42.5t71 52.5t63 67t55.5 74l57 85.5 q7 11 11 17l49 -12l-170 -453h-1122zM852 1587q146 153 225 311q15 5 25 5q25 0 42 -18.5t17 -47.5q0 -53 -54 -112.5t-120 -99t-121 -56.5z" />
</font>
</defs>
</svg>
